<svg xmlns="http://www.w3.org/2000/svg" width="500" height="500" style="width:100%;height:100%;content-visibility:visible"><defs><clipPath id="a"><path d="M0 0h500v500H0z"/></clipPath></defs><g clip-path="url(#a)"><path stroke-linecap="round" stroke-linejoin="round" stroke="#FFF" stroke-width="12.6" d="M228.795 99.489c15.523 7.85 25.235 22.092 26.392 36.312-12.142 7.504-29.363 8.126-44.893.272-15.537-7.857-25.243-22.096-26.396-36.323 12.139-7.497 29.367-8.115 44.897-.261z" fill="none" display="block"/><path stroke-linecap="round" stroke-linejoin="round" stroke="#FFF" stroke-width="12.6" d="M249.993 180.971c-.911-2.284-8.67-22.743 3.257-42.221 9.09-14.844 26.104-23.389 44-22.183" fill="none" display="block"/><g display="block"><path stroke-linecap="round" stroke-linejoin="round" stroke="#FFF" stroke-width="12.6" d="M382.93 265.716c0 24.847-7.357 49.989-20.768 71.185-13.562 21.436-34.443 43.985-61.672 43.985-7.96 0-15.52-1.78-22.28-4.96-1.89-1.2-3.86-2.29-5.9-3.24-6.77-3.19-14.33-4.97-22.31-4.97-7.92 0-15.42 1.75-22.16 4.9a53.34 53.34 0 00-6.16 3.38 52.205 52.205 0 01-22.13 4.89c-25.28 0-45.398-20.014-58.995-39.698-15.264-22.097-23.485-48.622-23.485-75.472 0-42.183 21.914-100.6 71.98-100.6 5.283 0 10.402.692 15.275 1.987 4.876 1.296 8.284 2.873 9.685 3.503 9.735 4.376 23.504 10.566 36.983 10.365 13.01-.194 26.408-6.353 34.657-10.145 1.357-.624 4.48-2.104 8.969-3.396 0 0 8.046-2.314 16.461-2.314 49.7 0 71.85 58.981 71.85 100.6z" fill="none"/><path stroke-linecap="round" stroke-linejoin="round" stroke="#FFF" stroke-width="12.6" d="M187 201.627c-4.878 2.92-14.486 9.583-21.5 21.873-9.14 16.017-8.121 31.51-7.5 37" fill="none"/></g></g></svg>