<svg xmlns="http://www.w3.org/2000/svg" width="500" height="500" style="width:100%;height:100%;content-visibility:visible"><defs><clipPath id="c"><path d="M0 0h500v500H0z"/></clipPath><clipPath id="e"><path d="M0 0h500v500H0z"/></clipPath><filter id="a" filterUnits="objectBoundingBox" x="0%" y="0%" width="100%" height="100%"><feComponentTransfer in="SourceGraphic"><feFuncA type="table" tableValues="1.0 0.0"/></feComponentTransfer></filter><filter id="b" filterUnits="objectBoundingBox" x="0%" y="0%" width="100%" height="100%"><feComponentTransfer in="SourceGraphic"><feFuncA type="table" tableValues="1.0 0.0"/></feComponentTransfer></filter><mask id="d"><g filter="url(#a)"><g display="block"><path fill="red" d="M131.561 101.834a442.65 442.65 0 01-15.193 13.408c-15.169 12.766-27.74 21.966-30.852 23.69-37.367 20.608-78.518 20.779-119.191 12.565-47.445-9.587-95.588-33.914-119.018-78.211-23.675-44.752-16.361-98.319 5.74-142.108 1.946-3.827 3.98-7.621 6.183-11.32a135.165 135.165 0 013.779-6.078c4.39-19.26 8.792-38.52 13.194-57.78a98.97 98.97 0 0119.81 3.386c1.374.385 2.711.783 4.011 1.196a99.496 99.496 0 0114.52 6.016c-1.551 6.113-3.114 12.239-4.665 18.352-3.288 12.913-6.576 25.827-9.864 38.753-3.786 27.651.594 48.53 5.182 62.105.286.856.584 1.675.868 2.468 27.832 76.886 131.847 123.188 194.408 95.106a85.166 85.166 0 0015.46-9.003l15.628 27.455zM140.306 93.517a378.854 378.854 0 01-8.745 8.317l-15.628-27.455a88.222 88.222 0 006.603-5.299c2.026.648 10.13 3.527 14.749 11.981 2.785 5.095 3.058 9.951 3.021 12.456zm-12.873-8.673c-12.243 10.523-36.563 28.281-71.518 34.564-70.424 12.658-123.963-32.054-131.968-38.963M-129.12-6.791c-.039 6.377.671 15.048 3.84 24.718 6.128 18.699 17.911 30.322 24.09 35.611m-35.604-140.625l36.519 13.029" transform="translate(250 250)"/><path stroke-linecap="round" stroke-linejoin="round" fill-opacity="0" stroke="#121331" stroke-width="0" d="M381.561 351.834a442.65 442.65 0 01-15.193 13.408c-15.169 12.766-27.74 21.966-30.852 23.69-37.367 20.608-78.518 20.779-119.191 12.565-47.445-9.587-95.588-33.914-119.018-78.211-23.675-44.752-16.361-98.319 5.74-142.108 1.946-3.827 3.98-7.621 6.183-11.32a135.165 135.165 0 013.779-6.078c4.39-19.26 8.792-38.52 13.194-57.78a98.97 98.97 0 0119.81 3.386c1.374.385 2.711.783 4.011 1.196a99.496 99.496 0 0114.52 6.016c-1.551 6.113-3.114 12.239-4.665 18.352-3.288 12.913-6.576 25.827-9.864 38.753-3.786 27.651.594 48.53 5.182 62.105.286.856.584 1.675.868 2.468 27.832 76.886 131.847 123.188 194.408 95.106a85.166 85.166 0 0015.46-9.003l15.628 27.455z"/><path fill="#121331" d="M140.306 93.517a378.854 378.854 0 01-8.745 8.317l-15.628-27.455a88.222 88.222 0 006.603-5.299c2.026.648 10.13 3.527 14.749 11.981 2.785 5.095 3.058 9.951 3.021 12.456z" transform="translate(250 250)"/><path stroke-linecap="round" stroke-linejoin="round" fill-opacity="0" stroke="#121331" stroke-width="0" d="M390.306 343.517a378.854 378.854 0 01-8.745 8.317l-15.628-27.455a88.222 88.222 0 006.603-5.299c2.026.648 10.13 3.527 14.749 11.981 2.785 5.095 3.058 9.951 3.021 12.456z"/><g><path stroke-linecap="round" stroke-linejoin="round" fill-opacity="0" stroke="#121331" stroke-width="0" d="M377.433 334.844c-12.243 10.523-36.563 28.281-71.518 34.564-70.424 12.658-123.963-32.054-131.968-38.963"/></g><g><path stroke-linecap="round" stroke-linejoin="round" fill-opacity="0" stroke="#121331" stroke-width="0" d="M120.88 243.209c-.039 6.377.671 15.048 3.84 24.718 6.128 18.699 17.911 30.322 24.09 35.611"/></g><g><path stroke-linecap="round" stroke-linejoin="round" fill-opacity="0" stroke="#121331" stroke-width="0" d="M113.206 162.913l36.519 13.029"/></g></g></g></mask><mask id="f"><g filter="url(#b)"><g display="block"><path stroke-linecap="round" stroke-linejoin="round" fill-opacity="0" stroke="#08A88A" stroke-width="0" d="M424.028 204.725a388.733 388.733 0 01-6.013 16.742c-8.618 22.33-18.574 42.273-36.919 58.202-18.154 15.762-40.368 26.029-63.154 33.168-40.551 12.7-87.876 14.356-124.64-9.803-37.145-24.406-54.183-68.704-55.711-111.737-.201-5.86-.161-11.749.302-17.597a87620.066 87620.066 0 01-14.298-50.027 86.055 86.055 0 017.464-3.059c5.358-1.909 6.909-2.732 9.207-2.718 2.437.015 4.404.713 5.634 1.266a150.334 150.334 0 0013.723 48.033c14.766 23.937 31.477 37.801 42.908 45.589 60.44 41.18 155.333 36.567 189.778-9.099a74.705 74.705 0 008.082-13.466l23.637 14.506z"/><path fill="red" d="M174.028-45.275a388.733 388.733 0 01-6.013 16.742c-8.618 22.33-18.574 42.273-36.919 58.202-18.154 15.762-40.368 26.029-63.154 33.168-40.551 12.7-87.876 14.356-124.64-9.803-37.145-24.406-54.183-68.704-55.711-111.737-.201-5.86-.161-11.749.302-17.597a87620.066 87620.066 0 01-14.298-50.027 86.055 86.055 0 017.464-3.059c5.358-1.909 6.909-2.732 9.207-2.718 2.437.015 4.404.713 5.634 1.266a150.334 150.334 0 0013.723 48.033C-75.611-58.868-58.9-45.004-47.469-37.216c60.44 41.18 155.333 36.567 189.778-9.099a74.705 74.705 0 008.082-13.466l23.637 14.506z" transform="translate(250 250)"/><g><path fill="#121331" d="M177.236-55.372a332.834 332.834 0 01-3.208 10.097l-23.637-14.506a77.343 77.343 0 002.837-6.87c1.832-.359 9.284-1.574 16.414 2.975 4.298 2.741 6.563 6.362 7.594 8.304z" transform="translate(250 250)"/><path stroke-linecap="round" stroke-linejoin="round" fill-opacity="0" stroke="#08A88A" stroke-width="0" d="M427.236 194.628a332.834 332.834 0 01-3.208 10.097l-23.637-14.506a77.343 77.343 0 002.837-6.87c1.832-.359 9.284-1.574 16.414 2.975 4.298 2.741 6.563 6.362 7.594 8.304z"/><path fill="red" d="M177.236-55.372a332.834 332.834 0 01-3.208 10.097l-23.637-14.506a77.343 77.343 0 002.837-6.87c1.832-.359 9.284-1.574 16.414 2.975 4.298 2.741 6.563 6.362 7.594 8.304z" transform="translate(250 250)"/></g><g><path stroke-linecap="round" stroke-linejoin="round" fill-opacity="0" stroke="#08A88A" stroke-width="0" d="M310.733 277.658a116.56 116.56 0 01-34.354 4.19c-17.471-.489-31.376-4.829-40.219-8.38"/><path fill="red" d="M60.733 27.658a116.56 116.56 0 01-34.354 4.19c-17.471-.489-31.376-4.829-40.219-8.38" transform="translate(250 250)"/></g></g></g></mask></defs><g clip-path="url(#c)"><g mask="url(#d)" display="block"><g clip-path="url(#e)"><g mask="url(#f)" display="block"><path stroke-linecap="round" stroke-linejoin="round" stroke="#FFF" stroke-width="12.6" d="M119.497 148.633c-19.997 31.624-4.391 63.166-4.936 65.491 8.182 14.743 19.421 27.583 33.955 37.027a91.587 91.587 0 006.855 4.047c4.674 2.489 9.513 4.563 14.467 6.272 2.368.817 4.76 1.548 7.178 2.187 27.062 7.151 56.821 3.667 83.268-5.116 11.467-3.808 22.524-8.433 32.801-14.227 28.871-16.277 44.497-39.216 55.749-69.956a345.527 345.527 0 005.181-15.271l-21.334-12.895c-1.636 3.67-3.905 7.944-7.091 12.33-26.616 36.813-93.118 49.03-142.822 27.424-9.831-4.273-18.992-9.879-27.062-16.867-.446-.402-.918-.804-1.389-1.244a76.524 76.524 0 01-2.132-1.961c-5.058-4.839-10.872-11.474-16.351-20.398-.942-.013-1.909-.001-2.901.012-.409.013-.818.014-1.227.025a96.376 96.376 0 00-11.48 1.006" fill="none"/><path fill="#FFF" d="M356.775 149.874a305.718 305.718 0 01-2.753 9.209l-21.347-12.889a71.225 71.225 0 002.46-6.273c1.637-.348 8.297-1.54 14.739 2.504 3.883 2.437 5.954 5.698 6.901 7.449z"/><path stroke-linecap="round" stroke-linejoin="round" stroke="#FFF" stroke-width="12.6" d="M356.775 149.874a305.718 305.718 0 01-2.753 9.209l-21.347-12.889a71.225 71.225 0 002.46-6.273c1.637-.348 8.297-1.54 14.739 2.504 3.883 2.437 5.954 5.698 6.901 7.449z" fill="none"/></g><g display="block"><path stroke-linecap="round" stroke-linejoin="round" stroke="#FFF" stroke-width="12.6" d="M424.028 204.725a388.733 388.733 0 01-6.013 16.742c-8.618 22.33-18.574 42.273-36.919 58.202-18.154 15.762-40.368 26.029-63.154 33.168-40.551 12.7-87.876 14.356-124.64-9.803-37.145-24.406-54.183-68.704-55.711-111.737-.201-5.86-.161-11.749.302-17.597a87620.066 87620.066 0 01-14.298-50.027 86.055 86.055 0 017.464-3.059c5.358-1.909 6.909-2.732 9.207-2.718 2.437.015 4.404.713 5.634 1.266a150.334 150.334 0 0013.723 48.033c14.766 23.937 31.477 37.801 42.908 45.589 60.44 41.18 155.333 36.567 189.778-9.099a74.705 74.705 0 008.082-13.466l23.637 14.506z" fill="none"/><path fill="#FFF" d="M427.236 194.628a332.834 332.834 0 01-3.208 10.097l-23.637-14.506a77.343 77.343 0 002.837-6.87c1.832-.359 9.284-1.574 16.414 2.975 4.298 2.741 6.563 6.362 7.594 8.304z"/><path stroke-linecap="round" stroke-linejoin="round" stroke="#FFF" stroke-width="12.6" d="M427.236 194.628a332.834 332.834 0 01-3.208 10.097l-23.637-14.506a77.343 77.343 0 002.837-6.87c1.832-.359 9.284-1.574 16.414 2.975 4.298 2.741 6.563 6.362 7.594 8.304z" fill="none"/><g><path stroke-linecap="round" stroke-linejoin="round" stroke="#FFF" stroke-width="12.6" d="M310.733 277.658a116.56 116.56 0 01-34.354 4.19c-17.471-.489-31.376-4.829-40.219-8.38" fill="none"/></g></g></g></g><g display="block"><path stroke-linecap="round" stroke-linejoin="round" stroke="#FFF" stroke-width="12.6" d="M381.561 351.834a442.65 442.65 0 01-15.193 13.408c-15.169 12.766-27.74 21.966-30.852 23.69-37.367 20.608-78.518 20.779-119.191 12.565-47.445-9.587-95.588-33.914-119.018-78.211-23.675-44.752-16.361-98.319 5.74-142.108 1.946-3.827 3.98-7.621 6.183-11.32a135.165 135.165 0 013.779-6.078c4.39-19.26 8.792-38.52 13.194-57.78a98.97 98.97 0 0119.81 3.386c1.374.385 2.711.783 4.011 1.196a99.496 99.496 0 0114.52 6.016c-1.551 6.113-3.114 12.239-4.665 18.352-3.288 12.913-6.576 25.827-9.864 38.753-3.786 27.651.594 48.53 5.182 62.105.286.856.584 1.675.868 2.468 27.832 76.886 131.847 123.188 194.408 95.106a85.166 85.166 0 0015.46-9.003l15.628 27.455z" fill="none"/><path fill="#FFF" d="M390.306 343.517a378.854 378.854 0 01-8.745 8.317l-15.628-27.455a88.222 88.222 0 006.603-5.299c2.026.648 10.13 3.527 14.749 11.981 2.785 5.095 3.058 9.951 3.021 12.456z"/><path stroke-linecap="round" stroke-linejoin="round" stroke="#FFF" stroke-width="12.6" d="M390.306 343.517a378.854 378.854 0 01-8.745 8.317l-15.628-27.455a88.222 88.222 0 006.603-5.299c2.026.648 10.13 3.527 14.749 11.981 2.785 5.095 3.058 9.951 3.021 12.456z" fill="none"/><path stroke-linecap="round" stroke-linejoin="round" stroke="#FFF" stroke-width="12.6" d="M377.433 334.844c-12.243 10.523-36.563 28.281-71.518 34.564-70.424 12.658-123.963-32.054-131.968-38.963" fill="none"/><g><path stroke-linecap="round" stroke-linejoin="round" stroke="#FFF" stroke-width="12.6" d="M120.88 243.209c-.039 6.377.671 15.048 3.84 24.718 6.128 18.699 17.911 30.322 24.09 35.611" fill="none"/></g><g><path stroke-linecap="round" stroke-linejoin="round" stroke="#FFF" stroke-width="12.6" d="M113.206 162.913l36.519 13.029" fill="none"/></g></g></g></svg>