<?xml version="1.0" encoding="utf-8"?>
<!-- Generator: Adobe Illustrator 25.0.1, SVG Export Plug-In . SVG Version: 6.00 Build 0)  -->
<svg version="1.1" id="Layer_1" xmlns="http://www.w3.org/2000/svg" xmlns:xlink="http://www.w3.org/1999/xlink" x="0px" y="0px"
	 viewBox="0 0 430 430" style="enable-background:new 0 0 430 430;" xml:space="preserve">
<style type="text/css">
	.st0{fill:#FFFFFF;}
	.st1{fill:#FFFFFF;stroke:#FFFFFF;stroke-width:12;stroke-linecap:round;stroke-linejoin:round;stroke-miterlimit:10;}
	.st2{fill:#FFFFFF;}
	.st3{fill:#FFFFFF;stroke:#FFFFFF;stroke-width:12;stroke-linecap:round;stroke-linejoin:round;stroke-miterlimit:10;}
</style>
<g>
	<g>
		<path class="st0" d="M257.9,205.7c-2,0-4-1-5.1-2.8c-1.8-2.8-0.9-6.5,1.9-8.3c22.7-14.1,37.1-33.2,48.4-63.6
			c1.3-3.5,2.5-7,3.7-10.5l-12-7.1c-1.5,2.6-3.1,5.1-4.8,7.4c-13.9,19-37.8,32.4-67.4,38c-28.6,5.3-59.5,2.2-84.6-8.6
			c-4.3-1.9-8.6-4-12.6-6.3c-1.8-1-3-3-3-5.2c0-3.3,2.7-6,6-6c1.2,0,2.3,0.3,3.2,0.9c3.6,2,7.4,3.9,11.2,5.6
			c48.2,20.7,112.5,8.8,137.6-25.5c2.5-3.4,4.7-7.2,6.6-11.3c0.7-1.6,2-2.7,3.7-3.3c1.6-0.5,3.4-0.3,4.9,0.6l21.6,12.9
			c2.4,1.4,3.5,4.3,2.6,7c-1.7,5.2-3.5,10.4-5.4,15.5c-12.1,32.7-28.6,54.2-53.3,69.6C260.1,205.4,259,205.7,257.9,205.7z
			 M134.4,138.6L134.4,138.6L134.4,138.6z"/>
		<path class="st1" d="M77.8,84.1"/>
		<g>
			<path class="st0" d="M316.8,108.6c-0.7,2.6-1.7,5.7-2.8,9.2l-21.6-12.9c1.1-2.4,1.9-4.5,2.5-6.3c1.7-0.3,8.4-1.5,14.9,2.5
				C313.8,103.6,315.9,106.8,316.8,108.6z"/>
			<path class="st0" d="M314,123.8c-1.1,0-2.1-0.3-3.1-0.8l-21.6-12.9c-2.6-1.6-3.7-4.9-2.4-7.6c0.9-1.9,1.6-3.8,2.3-5.7
				c0.7-2,2.4-3.5,4.4-3.9c3.2-0.7,11.4-1.7,19.3,3.3c3.8,2.3,6.9,5.7,9.1,9.7c0.8,1.4,0.9,3,0.5,4.5c-1,3.3-1.9,6.4-2.8,9.4
				c-0.6,1.7-1.9,3.1-3.6,3.8C315.5,123.7,314.7,123.8,314,123.8z M304.6,105.2l3.5,2.1c-0.5-0.4-1-0.8-1.5-1.1
				C306,105.8,305.3,105.5,304.6,105.2z"/>
		</g>
	</g>
	<g>
		<g>
			<path class="st2" d="M221.6,286.7c-12.2,0-24.9-1.4-37.7-4.8c-3.2-0.9-5.1-4.2-4.2-7.4c0.9-3.2,4.2-5.1,7.4-4.2
				c33.2,9,66.8,2.5,89.1-4.5c25.5-8,45.4-18.4,61-32c18.1-15.7,27.7-36.1,35.3-55.8c1.5-3.9,3-7.9,4.4-12l-14-8.6
				c-1.7,3-3.6,5.9-5.6,8.6c-18.8,24.9-55.5,39.7-98.4,39.7c-0.3,0-0.6,0-1,0c-36.2-0.2-71.2-10.6-98.6-29.3
				c-13.4-9.1-25.3-20.6-35.5-34.1c0,0-0.1-0.1-0.1-0.1l0,0c-3.1-4.1-6.2-8.6-9-13.2c-0.1-0.2-0.2-0.4-0.3-0.6
				c-1.9-4.1-3.6-8.1-5.2-12.1c-1.2-3.1,0.4-6.6,3.5-7.7c3.1-1.2,6.6,0.4,7.7,3.5c1.4,3.6,2.9,7.2,4.6,10.9
				c2.6,4.2,5.3,8.2,8.1,11.9c0,0,0.1,0.1,0.1,0.1c9.4,12.5,20.5,23.1,32.8,31.5c25.1,17.1,58.6,27,91.9,27.2
				c39.6,0.2,73-12.9,89.7-34.9c2.9-3.8,5.4-8,7.4-12.4c0.7-1.6,2.1-2.7,3.7-3.2c1.6-0.5,3.4-0.3,4.9,0.6l23.6,14.5
				c2.4,1.5,3.4,4.4,2.5,7c-2,5.9-4,11.5-6.1,17c-8.2,21.1-18.5,43.1-38.6,60.6c-16.8,14.6-38.2,25.9-65.3,34.4
				C264.4,282.1,243.9,286.7,221.6,286.7z"/>
			<path class="st3" d="M124.5,122.8"/>
			<g>
				<path class="st2" d="M387.3,153.3c-0.8,2.8-1.9,6.2-3.2,10.1l-23.6-14.5c1.2-2.6,2.2-5,2.8-6.9c1.8-0.4,9.3-1.6,16.4,3
					C384,147.8,386.3,151.4,387.3,153.3z"/>
				<path class="st2" d="M384.1,169.4c-1.1,0-2.2-0.3-3.1-0.9L357.3,154c-2.6-1.6-3.6-4.9-2.3-7.7c1-2.1,1.9-4.2,2.6-6.3
					c0.7-2,2.4-3.5,4.5-3.9c3.4-0.7,12.3-1.6,20.8,3.8c4,2.6,7.4,6.2,9.7,10.5c0.7,1.4,0.9,3,0.4,4.5c-1.1,3.6-2.2,7-3.3,10.3
					c-0.6,1.7-1.9,3.1-3.6,3.7C385.5,169.3,384.8,169.4,384.1,169.4z M370,147.8l10.7,6.5c0-0.1,0-0.1,0-0.2c-1.2-1.6-2.6-3-4.3-4.1
					C374.3,148.7,372,148.1,370,147.8z"/>
			</g>
		</g>
		<path class="st2" d="M239.7,246.6c-1.1,0-2.3,0-3.4,0c-14.5-0.4-28.7-3.4-42.3-8.8c-3.1-1.2-4.6-4.7-3.3-7.8
			c1.2-3.1,4.7-4.6,7.8-3.3c12.2,4.9,25.1,7.6,38.2,7.9c11,0.3,22-1,32.6-4c3.2-0.9,6.5,1,7.4,4.2c0.9,3.2-1,6.5-4.2,7.4
			C261.7,245.1,250.7,246.6,239.7,246.6z"/>
	</g>
	<g>
		<g>
			<path class="st0" d="M223.1,371.2c-15,0-30.9-1.7-47.9-5.1c-33.5-6.8-94.1-26.3-123.1-81.3c-11.8-22.2-16.8-47.3-15-74.6
				c1.6-24.2,8.8-49.4,20.7-73c2.3-4.4,4.3-8.3,6.4-11.7c1.1-1.9,2.2-3.7,3.3-5.4c4.3-18.9,8.6-37.8,13-56.7
				c0.7-2.9,3.3-4.8,6.3-4.6c7.1,0.5,14.1,1.7,21,3.6c1.5,0.4,2.9,0.8,4.2,1.3c5.3,1.7,10.5,3.9,15.4,6.4c2.5,1.3,3.8,4.1,3.1,6.8
				l-4.7,18.4c-3.3,12.8-6.5,25.6-9.8,38.4c-2.8,21-1.2,40.9,5,59c0.2,0.7,0.5,1.4,0.7,2l0.1,0.3c13.2,36.5,46.1,68.8,87.9,86.6
				c35.9,15.2,71.7,17,98.4,5.1c5.1-2.3,9.9-5.1,14.4-8.4c1.4-1,3.1-1.4,4.8-1c1.7,0.4,3.1,1.4,4,2.9l15.6,27.5
				c1.4,2.4,0.9,5.5-1.1,7.4c-5.1,4.7-10.2,9.3-15.4,13.6c-14.5,12.2-27.8,22.1-31.8,24.3C276.3,365.2,251.3,371.2,223.1,371.2z
				 M90.9,71.2c-4,17.5-8,35.1-12,52.6c-0.2,0.7-0.4,1.4-0.8,2c-1.2,1.8-2.4,3.7-3.6,5.8c-1.9,3.2-3.9,6.8-6,11
				c-24.2,48-26.3,97.8-5.8,136.6c26.8,50.6,83.5,68.8,114.9,75.1c46,9.3,83.7,5.4,115.1-11.9c2.6-1.5,14.9-10.4,29.9-23
				c3.8-3.2,7.7-6.6,11.5-10l-10-17.7c-3.5,2.2-7.2,4.2-11,5.9c-29.7,13.3-69,11.5-108-5c-44.9-19-80.2-54-94.5-93.6l-0.1-0.3
				c-0.3-0.7-0.5-1.5-0.8-2.3c-6.8-20-8.6-41.8-5.4-64.8c0-0.2,0.1-0.4,0.1-0.7c3.3-12.9,6.6-25.8,9.9-38.8l3.5-13.6
				c-3.1-1.4-6.2-2.6-9.3-3.6c-1.2-0.4-2.5-0.8-3.8-1.1C100,72.6,95.5,71.7,90.9,71.2z"/>
			<path class="st1" d="M104.8,127.5"/>
			<g>
				<path class="st0" d="M350.4,302.2c-2.4,2.3-5.3,5.2-8.7,8.3L326,283.1c2.7-1.9,4.9-3.8,6.6-5.3c2,0.6,10.1,3.5,14.7,12
					C350.1,294.9,350.4,299.7,350.4,302.2z"/>
				<path class="st0" d="M341.6,316.5c-0.3,0-0.6,0-0.9-0.1c-1.8-0.3-3.4-1.4-4.3-3l-15.6-27.5c-1.5-2.7-0.8-6,1.7-7.8
					c2.1-1.6,4.2-3.2,6.2-4.9c1.6-1.4,3.8-1.9,5.8-1.2c3.7,1.2,12.8,5,18.2,14.8c2.5,4.6,3.8,10,3.8,15.4c0,1.6-0.7,3.1-1.8,4.2
					c-3.1,3-6,5.8-8.9,8.4C344.6,316,343.1,316.5,341.6,316.5z M350.4,302.2L350.4,302.2L350.4,302.2z M333.9,284.8l9.2,16.2
					c0.4-0.4,0.8-0.8,1.2-1.2c-0.3-2.5-1-5-2.2-7.1C339.8,288.6,336.5,286.2,333.9,284.8z"/>
			</g>
		</g>
		<path class="st0" d="M240.6,336.4c-56.1,0-97.8-31.7-110.5-42.7c-2.5-2.2-2.8-6-0.6-8.5c2.2-2.5,6-2.8,8.5-0.6
			c13.6,11.7,62.9,49.1,127,37.6c31.4-5.6,54.7-21.2,68.7-33.2c2.5-2.2,6.3-1.9,8.5,0.6c2.2,2.5,1.9,6.3-0.6,8.5
			C319.7,316.8,294,329.2,267,334C257.9,335.7,249.1,336.4,240.6,336.4z"/>
		<path class="st0" d="M108.9,268.3c-1.4,0-2.8-0.5-3.9-1.4c-8.5-7.2-19.8-19.8-25.9-38.3c-2.8-8.5-4.2-17.5-4.1-26.6
			c0-3.3,2.7-6,6-6c0,0,0,0,0,0c3.3,0,6,2.7,6,6c0,7.8,1.1,15.5,3.5,22.8c5.2,15.9,15,26.7,22.3,32.9c2.5,2.2,2.8,5.9,0.7,8.5
			C112.2,267.5,110.5,268.3,108.9,268.3z"/>
		<path class="st0" d="M109.8,140.7c-0.7,0-1.3-0.1-2-0.4l-36.5-13c-3.1-1.1-4.7-4.5-3.6-7.7c1.1-3.1,4.5-4.7,7.7-3.6l36.5,13
			c3.1,1.1,4.7,4.5,3.6,7.7C114.5,139.1,112.2,140.7,109.8,140.7z"/>
	</g>
</g>
</svg>
