<svg xmlns="http://www.w3.org/2000/svg" width="500" height="500" style="width:100%;height:100%;content-visibility:visible"><defs><clipPath id="a"><path d="M0 0h500v500H0z"/></clipPath></defs><g display="block" clip-path="url(#a)"><path stroke-linecap="round" stroke-linejoin="round" stroke="#FFF" stroke-width="12.6" d="M250.084 408.251c-193.937-.696-241.643-291.467-69.259-291.467 35.133 0 70.961 11.774 92.317 41.228.228.322.468.643.686.965 12.178 17.265 17.67 38.6 13.6 61.96-2.18 12.562-7.288 23.495-14.223 32.974M250.136 233.571c-11.753-15.781-9.728-36.647 0-52.864" fill="none"/><path stroke-linecap="round" stroke-linejoin="round" stroke="#FFF" stroke-width="12.6" d="M373.817 234.297c-4.401 30.682-22.186 48.653-22.186 48.653s-46.003-10.279-78.426-29.039c0 0-17.013-10.787-23.069-20.337m23.692-74.597a45.11 45.11 0 012.325-.965c37.365-14.234 86.296 1.277 95.297 36.576 3.784 14.846 4.021 28.175 2.367 39.709M250.137 233.572c11.753-15.781 9.727-36.659-.001-52.865-5.71-9.531-14.068-17.453-23.796-21.782a40.727 40.727 0 00-2.211-.913c-37.365-14.234-86.297 1.277-95.298 36.576-13.85 54.34 19.82 88.362 19.82 88.362s45.941-9.656 78.385-28.904M250.123 340.804c-56.946 0-77.251-29.189-77.251-29.189s41.601-8.109 75.8-32.071a55.829 55.829 0 002.242-1.65" fill="none"/><path stroke-linecap="round" stroke-linejoin="round" stroke="#FFF" stroke-width="12.6" d="M227.039 254.047c7.06 9.302 16.536 18.737 25.984 25.371 34.199 23.962 75.796 32.063 75.796 32.063s-21.737 29.321-78.683 29.321M423.66 253.013c-11.178 75.707-72.518 154.849-173.576 155.238h-.042m-.041-272.416c19.975-13.455 44.654-19.051 69.311-19.051 82.538 0 114.62 66.664 104.348 136.229M227.036 254.046c-6.987-9.51-12.137-20.484-14.328-33.109-4.07-23.38 1.433-44.736 13.632-62.012" fill="none"/><g><path stroke-linecap="round" stroke-linejoin="round" stroke="#FFF" stroke-width="12.6" d="M327.633 137.451h.162" fill="none"/></g><g><path stroke-linecap="round" stroke-linejoin="round" stroke="#FFF" stroke-width="12.6" d="M342.455 336.451h.162" fill="none"/></g><g><path stroke-linecap="round" stroke-linejoin="round" stroke="#FFF" stroke-width="12.6" d="M122.829 152.758h.162" fill="none"/></g><g><path stroke-linecap="round" stroke-linejoin="round" stroke="#FFF" stroke-width="12.6" d="M288.719 280.029h.02" fill="none"/></g><g><path stroke-linecap="round" stroke-linejoin="round" stroke="#FFF" stroke-width="12.6" d="M403.718 230.524h.02" fill="none"/></g><g><path stroke-linecap="round" stroke-linejoin="round" stroke="#FFF" stroke-width="12.6" d="M115.889 275.524h.02" fill="none"/></g><g><path stroke-linecap="round" stroke-linejoin="round" stroke="#FFF" stroke-width="12.6" d="M232.133 377.451h.021" fill="none"/></g></g></svg>