<svg xmlns="http://www.w3.org/2000/svg" width="500" height="500" style="width:100%;height:100%;content-visibility:visible"><defs><clipPath id="a"><path d="M0 0h500v500H0z"/></clipPath></defs><g clip-path="url(#a)"><path stroke-linecap="round" stroke-linejoin="round" stroke="#FFF" stroke-width="12.6" d="M153.15 410.119h193.552c27.614 0 50-22.386 50-50v-3.373H103.15v3.373c0 27.614 22.386 50 50 50zM127.928 330.054h241.977c11.052 0 20.012-8.96 20.012-20.012 0 0 0 0 0 0 0-11.052-8.96-20.012-20.012-20.012H127.928c-11.052 0-20.011 8.96-20.011 20.012 0 0 0 0 0 0 0 11.052 8.959 20.012 20.011 20.012zM103.224 250.24c19.865 11.186 35.978 14.277 48.925 13.507 22.155-1.318 28.106-13.53 48.926-13.507 21.312.024 26.967 13.373 48.404 13.441 21.626.069 27.76-13.48 49.446-13.441 20.914.037 26.769 12.184 48.926 13.507 16.997 1.015 33.78-4.92 48.925-13.419l-13.306-27.029H116.53l-13.306 26.941zM104.65 196.612h290.552a1.5 1.5 0 001.5-1.5v-.001c0-58.117-47.114-105.23-105.231-105.23h-83.09c-58.117 0-105.231 47.113-105.231 105.23v.001a1.5 1.5 0 001.5 1.5zM316.674 156.597h.085M283.221 129.91l.084.001M249.958 156.597h.084M183.67 156.597h.084M216.7 129.91l.084.001" fill="none" display="block"/></g></svg>