<svg xmlns="http://www.w3.org/2000/svg" width="500" height="500" style="width:100%;height:100%;content-visibility:visible"><defs><filter id="a" filterUnits="objectBoundingBox" x="0%" y="0%" width="100%" height="100%"><feComponentTransfer in="SourceGraphic"><feFuncA type="table" tableValues="1.0 0.0"/></feComponentTransfer></filter><filter id="b" filterUnits="objectBoundingBox" x="0%" y="0%" width="100%" height="100%"><feComponentTransfer in="SourceGraphic"><feFuncA type="table" tableValues="1.0 0.0"/></feComponentTransfer></filter><mask id="e"><g filter="url(#a)"><g display="block"><path stroke-linecap="round" stroke-linejoin="round" fill-opacity="0" stroke="#FFF" stroke-width="12.6" d="M310.625 240.75l-29.625-50-36.375 48.625v92.25L332 331.5l-21.375-90.75z"/><path fill="red" d="M60.625-9.25L31-59.25-5.375-10.625v92.25L82 81.5 60.625-9.25z" transform="translate(250 250)"/></g></g></mask><mask id="d"><g filter="url(#b)"><g display="block"><path stroke-linecap="round" stroke-linejoin="round" fill-opacity="0" stroke="#FFF" stroke-width="12.6" d="M215.089 235.839v84.4c-4.961 5.211-63.895 66.923-77.551 81.219h-.108C100.25 385 80.75 357.5 74.458 337.705v-84.389C78 270.125 110.5 305.25 137.484 317.101c25.868-27.084 51.737-54.167 77.605-81.262z"/><path fill="red" d="M-34.911-14.161v84.4c-4.961 5.211-63.895 66.923-77.551 81.219h-.108C-149.75 135-169.25 107.5-175.542 87.705V3.316C-172 20.125-139.5 55.25-112.516 67.101c25.868-27.084 51.737-54.167 77.605-81.262z" transform="translate(250 250)"/><path stroke-linecap="round" stroke-linejoin="round" fill-opacity="0" stroke="#FFF" stroke-width="12.6" d="M215.093 235.843l-77.607 81.264C110.5 305.25 78 270 74.458 253.317c46.849-5.816 93.685-11.633 140.521-17.462.038 0 .076-.012.114-.012z"/><path fill="red" d="M-34.907-14.157l-77.607 81.264C-139.5 55.25-172 20-175.542 3.317c46.849-5.816 93.685-11.633 140.521-17.462.038 0 .076-.012.114-.012z" transform="translate(250 250)"/><g><path stroke-linecap="round" stroke-linejoin="round" fill-opacity="0" stroke="#FFF" stroke-width="12.6" d="M137.486 317.107l-.057 84.347"/><path fill="red" d="M-112.514 67.107l-.057 84.347" transform="translate(250 250)"/></g><g><path stroke-linecap="round" stroke-linejoin="round" fill-opacity="0" stroke="#FFF" stroke-width="12.6" d="M178.767 273.876c3.007 4.988 3.843 9.446 4.114 12.027.338 3.215.681 6.467-1.131 9.847-.229.427-3.44 6.226-8.5 6.25-4.615.022-9.455-4.766-10.104-11.765"/><path fill="red" d="M-71.233 23.876c3.007 4.988 3.843 9.446 4.114 12.027.338 3.215.681 6.467-1.131 9.847-.229.427-3.44 6.226-8.5 6.25-4.615.022-9.455-4.766-10.104-11.765" transform="translate(250 250)"/></g><g><path stroke-linecap="round" stroke-linejoin="round" fill-opacity="0" stroke="#FFF" stroke-width="12.6" d="M98.09 373.93c2-2.43 3.38-7.84 3.38-14.12 0-8.56-2.57-15.5-5.75-15.5-3.17 0-5.75 6.94-5.75 15.5 0 2.29.19 4.46.52 6.42"/><path fill="red" d="M-151.91 123.93c2-2.43 3.38-7.84 3.38-14.12 0-8.56-2.57-15.5-5.75-15.5-3.17 0-5.75 6.94-5.75 15.5 0 2.29.19 4.46.52 6.42" transform="translate(250 250)"/></g></g></g></mask><clipPath id="c"><path d="M0 0h500v500H0z"/></clipPath></defs><g clip-path="url(#c)"><g mask="url(#d)" display="block"><path stroke-linecap="round" stroke-linejoin="round" stroke="#FFF" stroke-width="12.6" d="M244.714 285.638h-84.206l-.177-94.999c40.276.055 80.566.095 120.842.15" fill="none"/><path stroke-linecap="round" stroke-linejoin="round" stroke="#FFF" stroke-width="12.6" d="M160.331 190.639v-.082c0-28.333 54.518-51.303 121.759-51.303s121.758 22.97 121.758 51.303" fill="none"/></g><g mask="url(#e)" display="block"><path stroke-linecap="round" stroke-linejoin="round" stroke="#FFF" stroke-width="12.6" d="M215.089 235.839v84.4c-4.961 5.211-63.895 66.923-77.551 81.219h-.108C100.25 385 80.75 357.5 74.458 337.705v-84.389C78 270.125 110.5 305.25 137.484 317.101c25.868-27.084 51.737-54.167 77.605-81.262z" fill="none"/><path stroke-linecap="round" stroke-linejoin="round" stroke="#FFF" stroke-width="12.6" d="M215.093 235.843l-77.607 81.264C110.5 305.25 78 270 74.458 253.317c46.849-5.816 93.685-11.633 140.521-17.462.038 0 .076-.012.114-.012zM137.486 317.107l-.057 84.347" fill="none"/><g><path stroke-linecap="round" stroke-linejoin="round" stroke="#FFF" stroke-width="12.6" d="M178.767 273.876c3.007 4.988 3.843 9.446 4.114 12.027.338 3.215.681 6.467-1.131 9.847-.229.427-3.44 6.226-8.5 6.25-4.615.022-9.455-4.766-10.104-11.765" fill="none"/></g><g><path stroke-linecap="round" stroke-linejoin="round" stroke="#FFF" stroke-width="12.6" d="M98.09 373.93c2-2.43 3.38-7.84 3.38-14.12 0-8.56-2.57-15.5-5.75-15.5-3.17 0-5.75 6.94-5.75 15.5 0 2.29.19 4.46.52 6.42" fill="none"/></g></g><g display="block"><path stroke-linecap="round" stroke-linejoin="round" stroke="#FFF" stroke-width="12.6" d="M403.848 190.557c0 20.316-28.018 37.868-68.65 46.172-16.048 3.283-34.065 5.131-53.109 5.131-13.079 0-25.664-.876-37.457-2.477v-.095c12.189-16.157 24.365-32.328 36.541-48.499" fill="none"/><path stroke-linecap="round" stroke-linejoin="round" stroke="#FFF" stroke-width="12.6" d="M403.848 190.557v92.345c0 25.487-44.093 46.624-101.894 50.619-6.457.451-13.093.684-19.865.684-6.772 0-13.407-.233-19.864-.684a264.014 264.014 0 01-17.429-1.779l-.082-46.104-.082-46.255" fill="none"/></g></g></svg>