<svg xmlns="http://www.w3.org/2000/svg" width="500" height="500" style="width:100%;height:100%;content-visibility:visible"><defs><clipPath id="b"><path d="M0 0h500v500H0z"/></clipPath><filter id="a" filterUnits="objectBoundingBox" x="0%" y="0%" width="100%" height="100%"><feComponentTransfer in="SourceGraphic"><feFuncA type="table" tableValues="1.0 0.0"/></feComponentTransfer></filter><mask id="c"><g filter="url(#a)"><g display="block"><path fill="red" d="M38.54-99.182C15.823-110.026 1.301-130.309-.842-150.844c17.319-11.257 42.212-12.725 64.939-1.876 22.738 10.854 37.25 31.133 39.388 51.678-17.314 11.247-42.217 12.709-64.945 1.86z" transform="translate(250 250)"/></g></g></mask></defs><g clip-path="url(#b)"><path stroke-linecap="round" stroke-linejoin="round" stroke="#FFF" stroke-width="12.6" d="M239.455 360.288c-3.001 29.783-30.616 52.507-60.433 49.441-30.215-3.107-52.519-30.524-49.412-60.739 1.747-16.99 14.522-38.77 33.946-40.714 11.241-1.125 20.446 4.833 24.592 7.976 5.037-2.388 15.726-6.428 26.782-2.693 15.195 5.134 23.049 21.167 24.539 36.227a52.871 52.871 0 01-.014 10.502zM384.992 286.822c4.586 29.58-16.427 58.519-46.057 63.05-30.025 4.591-58.508-16.336-63.099-46.361-2.582-16.884 4.306-41.175 22.617-47.942 10.596-3.916 21.003-.464 25.806 1.535 4.274-3.578 13.605-10.176 25.245-9.341 15.997 1.148 27.631 14.69 32.86 28.892a52.84 52.84 0 012.628 10.167z" fill="none" display="block"/><g mask="url(#c)" display="block"><path stroke-linecap="round" stroke-linejoin="round" stroke="#FFF" stroke-width="12.6" d="M188.147 316.252c56.665-96.954 60.113-198.598 61.034-217.035-.648 15.762 6.631 110.08 75.078 157.887" fill="none"/></g><path stroke-linecap="round" stroke-linejoin="round" stroke="#FFF" stroke-width="12.6" d="M288.54 150.818c-22.717-10.844-37.239-31.127-39.382-51.662 17.319-11.257 42.212-12.725 64.939-1.876 22.738 10.854 37.25 31.133 39.388 51.678-17.314 11.247-42.217 12.709-64.945 1.86z" fill="none" display="block"/></g></svg>