<?xml version="1.0" encoding="utf-8"?>
<!-- Generator: Adobe Illustrator 25.0.1, SVG Export Plug-In . SVG Version: 6.00 Build 0)  -->
<svg version="1.1" id="Layer_1" xmlns="http://www.w3.org/2000/svg" xmlns:xlink="http://www.w3.org/1999/xlink" x="0px" y="0px"
	 viewBox="0 0 430 430" style="enable-background:new 0 0 430 430;" xml:space="preserve">
<style type="text/css">
	.st0{fill:#FFFFFF;}
	.st1{fill:#FFFFFF;}
</style>
<g id="_x35_44">
	<path class="st0" d="M142,381.1c-2,0-4.1-0.1-6.1-0.3c-33.7-3.5-58.2-33.7-54.8-67.3c2.2-20.9,17.4-43.9,39.3-46.1
		c10.5-1.1,19.5,2.9,25.9,7.1c7.5-3,17.5-5.1,28-1.5c18.7,6.3,27,25.5,28.6,41.3c0.4,3.9,0.4,7.8,0,11.7
		c-1.6,16.1-9.6,30.7-22.5,41.2C169.3,376.2,155.9,381.1,142,381.1z M123.9,279.2c-0.7,0-1.5,0-2.2,0.1
		c-16.4,1.6-27.2,21.6-28.6,35.4c-2.8,27.1,17,51.4,44.1,54.2c12.8,1.3,25.4-2.6,35.8-11c10.4-8.5,16.8-20.2,18.1-33.1l0,0
		c0.3-3.1,0.3-6.2,0-9.3c-1.2-12.1-7.2-26.6-20.5-31.1c-8.3-2.8-16.7-0.2-22.3,2.4c-2,1-4.4,0.7-6.2-0.6
		C137.8,282.9,131.3,279.2,123.9,279.2z"/>
	<path class="st0" d="M288.1,321.6c-29.8,0-56-21.8-60.6-52.1c-3.2-20.8,5.8-46.9,26.5-54.5c9.9-3.7,19.6-2.1,26.8,0.4
		c6.5-4.7,15.7-9.3,26.7-8.5c19.7,1.4,32.6,17.9,38.1,32.8c1.3,3.6,2.3,7.5,2.9,11.3c2.5,16-1.6,32.1-11.4,45.5
		c-9.8,13.3-23.9,22-39.7,24.4C294.2,321.3,291.1,321.6,288.1,321.6z M266.3,224.8c-2.7,0-5.5,0.4-8.2,1.4
		c-15.5,5.7-20.9,27.7-18.8,41.4c4.1,26.9,29.3,45.5,56.3,41.3c12.7-1.9,24-8.9,31.8-19.6c7.9-10.8,11.2-23.8,9.2-36.6c0,0,0,0,0,0
		c-0.5-3.1-1.3-6.1-2.3-9c-4.2-11.4-13.7-24-27.7-25c-8.7-0.6-16.2,4-21,8c-1.7,1.4-4.1,1.8-6.2,0.9
		C275.9,226.2,271.3,224.8,266.3,224.8z"/>
	<path class="st0" d="M145.7,287.3c-1,0-1.9-0.2-2.8-0.7c-2.9-1.6-4-5.2-2.4-8.1c26.6-49.5,44.8-102,53.9-156
		c3.3-19.2,5.4-38.9,6.4-58.5c0.2-3.3,3-5.9,6.3-5.7c3.3,0.1,5.9,2.9,5.7,6.2c-0.8,20,1.6,39.6,7.1,58.4
		c13.7,46.5,43.3,77.1,65.6,94.5c2.6,2,3.1,5.8,1,8.4c-2,2.6-5.8,3.1-8.4,1c-23.8-18.5-55.1-51-69.8-100.6c-0.5-1.8-1.1-3.7-1.6-5.6
		c-0.2,1.2-0.4,2.5-0.6,3.7c-9.4,55.3-28,109-55.2,159.7C149.9,286.2,147.8,287.3,145.7,287.3z"/>
	<path class="st1" d="M278.1,129.3c-11.5,0-23.4-2.7-34.6-8c-23.9-11.4-40.3-33.1-42.8-56.5c-0.2-2.2,0.8-4.4,2.7-5.7
		c19.7-12.8,46.9-13.7,70.8-2.3c23.9,11.4,40.3,33.1,42.8,56.5c0.2,2.2-0.8,4.4-2.7,5.7C303.8,125.9,291.2,129.3,278.1,129.3z
		 M213.2,67.3c3.3,17.8,16.6,34.1,35.5,43.1l0,0c18.9,9,39.9,9.1,55.9,0.4c-3.3-17.8-16.6-34.1-35.5-43.2
		C250.2,58.7,229.1,58.6,213.2,67.3z"/>
</g>
</svg>
