<svg xmlns="http://www.w3.org/2000/svg" width="500" height="500" style="width:100%;height:100%;content-visibility:visible"><defs><clipPath id="b"><path d="M0 0h500v500H0z"/></clipPath><filter id="a" filterUnits="objectBoundingBox" x="0%" y="0%" width="100%" height="100%"><feComponentTransfer in="SourceGraphic"><feFuncA type="table" tableValues="1.0 0.0"/></feComponentTransfer></filter><mask id="c"><g filter="url(#a)"><g display="block"><path fill="red" d="M35.549 26.739L-7.857 93.456S-30.508 66.394-113.84 66.394c-24.235 0 4.703-93.028 4.703-93.028L35.549 26.739zm0 0s62.068 86.716 96.605 66.717c5.757-3.334-9.793-94.681-9.793-94.681L35.549 26.739z" transform="translate(250 250)"/><path stroke-linecap="round" stroke-linejoin="round" fill-opacity="0" stroke="#000" stroke-width="0" d="M285.549 276.739l-43.406 66.717s-22.651-27.062-105.983-27.062c-24.235 0 4.703-93.028 4.703-93.028l144.686 53.373zm0 0s62.068 86.716 96.605 66.717c5.757-3.334-9.793-94.681-9.793-94.681l-86.812 27.964z"/></g></g></mask></defs><g clip-path="url(#b)"><g mask="url(#c)" display="block"><path stroke-linecap="round" stroke-linejoin="round" stroke="#FFF" stroke-width="12.6" d="M359.494 250H221.706m69.026-80.698H153.206m137.757 103.299l-.231-102.98m-68.794 81.3l.031-161.679M359.75 345.356l-.171 44.937c-.022 11.03-8.97 19.959-20 19.959H173.25c-11.046 0-20-8.954-20-20v-72.504M153.237 227.917V119.239c0-16.568 13.432-30 30-30h107.525v80.06h69.252l-.202 82.712" fill="none"/></g><path stroke-linecap="round" stroke-linejoin="round" stroke="#FFF" stroke-width="12.6" d="M285.549 276.739l-43.406 66.717s-22.651-27.062-105.983-27.062c-24.235 0 4.703-93.028 4.703-93.028l144.686 53.373zm0 0s62.068 86.716 96.605 66.717c5.757-3.334-9.793-94.681-9.793-94.681l-86.812 27.964zM359.983 169.302h-69.251v-80.06h49.251c11.046 0 20 8.954 20 20v60.06z" fill="none" display="block"/></g></svg>