<?xml version="1.0" encoding="utf-8"?>
<!-- Generator: Adobe Illustrator 25.0.1, SVG Export Plug-In . SVG Version: 6.00 Build 0)  -->
<svg version="1.1" id="Layer_1" xmlns="http://www.w3.org/2000/svg" xmlns:xlink="http://www.w3.org/1999/xlink" x="0px" y="0px"
	 viewBox="0 0 430 430" style="enable-background:new 0 0 430 430;" xml:space="preserve">
<style type="text/css">
	.st0{fill:#FFFFFF;}
	.st1{fill:#FFFFFF;}
</style>
<g>
	<path class="st0" d="M299.6,381.1H133.2c-14.3,0-26-11.7-26-26v-72.5c0-3.3,2.7-6,6-6s6,2.7,6,6v72.5c0,7.7,6.3,14,14,14h166.3
		c7.7,0,14-6.3,14-14l0.2-44.9c0-3.3,2.7-6,6-6c0,0,0,0,0,0c3.3,0,6,2.7,6,6l-0.2,44.9C325.5,369.5,313.9,381.1,299.6,381.1z"/>
	<path class="st1" d="M319.8,223.7C319.8,223.7,319.8,223.7,319.8,223.7c-3.3,0-6-2.7-6-6l0.2-76.7h-63.2c-3.3,0-6-2.7-6-6V60.9
		H143.2c-13.2,0-24,10.8-24,24v108.7c0,3.3-2.7,6-6,6c-3.3,0-6-2.7-6-6V84.9c0-19.9,16.1-36,36-36h107.5c3.3,0,6,2.7,6,6v74.1H320
		c1.6,0,3.1,0.6,4.2,1.8c1.1,1.1,1.8,2.7,1.8,4.3l-0.2,82.7C325.8,221,323.1,223.7,319.8,223.7z"/>
	<path class="st1" d="M182,224.9c-3.3,0-6-2.7-6-6V54.9c0-3.3,2.7-6,6-6s6,2.7,6,6v164.1C188,222.2,185.3,224.9,182,224.9z"/>
	<path class="st1" d="M250.8,246.7c-3.3,0-6-2.7-6-6V135.3c0-3.3,2.7-6,6-6s6,2.7,6,6v105.4C256.8,244,254.1,246.7,250.8,246.7z"/>
	<path class="st1" d="M320,140.9h-69.3c-3.3,0-6-2.7-6-6V54.9c0-3.3,2.7-6,6-6H300c14.3,0,26,11.7,26,26v60.1
		C326,138.3,323.3,140.9,320,140.9z M256.8,128.9H314V74.9c0-7.7-6.3-14-14-14h-43.3V128.9z"/>
	<path class="st1" d="M250.8,140.9H113.2c-3.3,0-6-2.7-6-6s2.7-6,6-6h137.5c3.3,0,6,2.7,6,6S254.1,140.9,250.8,140.9z"/>
	<path class="st1" d="M319.5,221.6H173.1c-3.3,0-6-2.7-6-6s2.7-6,6-6h146.4c3.3,0,6,2.7,6,6S322.8,221.6,319.5,221.6z"/>
	<path class="st0" d="M330.7,318.1c-12.2,0-26.5-6.9-42.9-20.6C270,282.6,254,263.2,246,252.9c-0.8-1.1-1.3-2.3-1.3-3.7v-8.5
		c0-2.6,1.7-4.9,4.2-5.7l81.6-26.3c1.7-0.5,3.5-0.3,5,0.6c1.5,0.9,2.5,2.4,2.8,4.1c0,0.2,3.9,23.2,7.1,46.3
		c1.9,13.6,3.1,24.7,3.7,32.8c1,14.6,0.2,19.5-3.9,21.8l0,0C340.8,316.8,336,318.1,330.7,318.1z M256.8,247.2
		c26.7,34,61,65.9,80.6,57.6c1-9.3-3.9-47-9.8-82.5l-70.9,22.8V247.2z M339.2,303.9C339.2,303.9,339.2,303.9,339.2,303.9
		C339.2,303.9,339.2,303.9,339.2,303.9z"/>
	<path class="st0" d="M250.8,255.2c-1.8,0-3.6-0.8-4.7-2.3c-3.3-4.3-5.2-7-5.3-7.1c-1.1-1.6-1.4-3.6-0.8-5.4c0.6-1.8,2-3.2,3.9-3.8
		l5.2-1.7c1.8-0.6,3.8-0.3,5.4,0.9c1.6,1.1,2.5,2.9,2.5,4.9v8.5c0,2.6-1.6,4.8-4.1,5.7C252.1,255.1,251.4,255.2,250.8,255.2z"/>
	<path class="st0" d="M202.2,315.1c-1.8,0-3.5-0.8-4.6-2.1c-0.2-0.2-22.8-24.9-101.4-24.9c-4.5,0-8.3-1.9-11-5.6
		c-3.9-5.3-8.1-16.8-0.1-55.8c4.2-20.5,9.9-38.6,10.1-39.4c0.5-1.6,1.6-2.9,3.1-3.6c1.5-0.7,3.2-0.8,4.7-0.2l144.7,53.4
		c1.7,0.6,3,2,3.6,3.7c0.6,1.7,0.3,3.6-0.7,5.2l-43.4,66.7c-1,1.6-2.8,2.6-4.7,2.7C202.4,315.1,202.3,315.1,202.2,315.1z
		 M104.8,196.9c-2,7-5.3,19.3-8,32.3c-7.3,35.4-3.4,44.3-2,46.2c0.5,0.6,0.8,0.7,1.4,0.7c63.6,0,93.3,15.6,104.7,24l35.6-54.7
		L104.8,196.9z"/>
</g>
</svg>
