<?xml version="1.0" encoding="utf-8"?>
<!-- Generator: Adobe Illustrator 25.0.1, SVG Export Plug-In . SVG Version: 6.00 Build 0)  -->
<svg version="1.1" id="Layer_1" xmlns="http://www.w3.org/2000/svg" xmlns:xlink="http://www.w3.org/1999/xlink" x="0px" y="0px"
	 viewBox="0 0 430 430" style="enable-background:new 0 0 430 430;" xml:space="preserve">
<style type="text/css">
	.st0{fill:#FFFFFF;}
	.st1{fill:#FFFFFF;}
</style>
<path class="st0" d="M160.3,211.9c-2.9,0-5.4-2.1-5.9-5.1c-0.5-3.3,1.7-6.3,5-6.9c2.7-0.4,5.4-1.4,7.8-2.8c2.8-1.7,6.5-0.8,8.2,2.1
	c1.7,2.8,0.8,6.5-2.1,8.2c-3.6,2.2-7.8,3.7-12,4.4C160.9,211.8,160.6,211.9,160.3,211.9z"/>
<path class="st0" d="M269.6,211.6c-0.4,0-0.9,0-1.3-0.1c-3.6-0.8-7-2.1-10.2-4c-2.8-1.7-3.8-5.4-2.1-8.2s5.4-3.8,8.2-2.1
	c2,1.2,4.3,2.1,6.6,2.6c3.2,0.7,5.3,3.9,4.6,7.1C274.8,209.7,272.3,211.6,269.6,211.6z"/>
<path class="st1" d="M246.7,381.1h-63.3c-3.3,0-6-2.7-6-6v-36c0-3.3,2.7-6,6-6s6,2.7,6,6v30h51.3v-30.4c0-3.3,2.7-6,6-6s6,2.7,6,6
	v36.4C252.7,378.4,250,381.1,246.7,381.1z"/>
<path class="st0" d="M215.8,343c-0.3,0-0.6,0-0.9,0c-3,0-6.1-0.4-9.2-1c-0.1,0-0.3-0.1-0.4-0.1c-3.2-0.8-5.2-4-4.4-7.3
	c0.8-3.1,3.8-5,6.9-4.5c0.1,0,0.2,0,0.3,0.1l0,0c2.3,0.5,4.6,0.7,6.9,0.8c0.1,0,0.2,0,0.2,0c0.1,0,0.3,0,0.4,0c0,0,0.1,0,0.1,0
	c3.7,0,7.3-0.6,10.9-1.7c2.1-0.8,4.6-0.3,6.3,1.4c2.3,2.3,2.3,6.1,0,8.5c-0.7,0.7-1.5,1.2-2.5,1.5v0
	C225.7,342.2,220.7,343,215.8,343z"/>
<path class="st0" d="M154.2,189.2c-1.5,0-3.1-0.6-4.2-1.8c-1.2-1.2-1.8-2.7-1.8-4.2c0-0.3,0-0.6,0.1-0.9c1.7-11.3,3.9-22.7,6.6-33.7
	c4.9-20,11.5-39.4,19.1-56.2c13.7-29.7,27-43.5,41.6-43.5c14.7,0,27.9,13.8,41.6,43.5c11.6,25.5,20.5,56.3,25.3,86.9
	c0.5,3.3-1.7,6.3-5,6.9c-3.3,0.5-6.3-1.7-6.9-5c-4.6-29.5-13.3-59.2-24.4-83.7c-13.9-30.1-24.4-36.5-30.7-36.5
	c-6.3,0-16.8,6.3-30.7,36.5c-7.3,16.1-13.7,34.8-18.4,54.1c-2.6,10.6-4.8,21.5-6.4,32.4c-0.2,1.3-0.7,2.6-1.7,3.6
	C157.3,188.6,155.8,189.2,154.2,189.2z"/>
<path class="st1" d="M238.7,345c-9.3,0-17.9-0.9-24.6-2c-2.4-0.4-4.3-2.2-4.9-4.6c-0.6-2.4,0.4-4.8,2.3-6.3
	c15.5-11.1,27.3-24.6,35.1-40c2.2-4.4,3.5-7.7,4-9c3-8,5.7-19.6,10-52.7c0.4-3.2,0.8-6.4,1.1-9.7c2-18.2,4.2-38.8,16.5-54.5
	c17.6-22.5,49.7-24.9,62.8-24.9c0,0,0.1,0,0.1,0c2.5,0,4.7,1.5,5.6,3.9c0.9,2.3,0.2,5-1.6,6.6c-7.2,6.5-13,13.9-17.1,22
	c-8,15.9-7.1,33.8-6.1,52.7c0.4,7.4,0.8,15.1,0.5,22.7c-0.7,25.5-4,54.3-23,73.9C282.8,340.5,259,345,238.7,345z M230,332.7
	c19.4,1.3,44.6-1,60.8-17.8c16.1-16.7,18.9-42.7,19.6-65.9c0.2-7-0.2-14.2-0.5-21.7c-1-19.6-2-40,7.4-58.7c2.5-4.9,5.5-9.6,8.9-14.1
	c-12.8,1.9-28.8,6.8-38.6,19.3c-10.2,12.9-12.1,31-14,48.4c-0.4,3.3-0.7,6.7-1.1,10c-4.4,34.4-7.2,46.3-10.6,55.4
	c-0.7,1.7-2.1,5.4-4.5,10.1C250.7,310.6,241.6,322.4,230,332.7z"/>
<path class="st1" d="M189.5,345.3c-19.9,0-42.8-4.4-59-21c-19-19.4-22.3-48.3-23-74c-0.2-7.5,0.2-15.2,0.5-22.7
	c1-18.9,1.9-36.8-6.1-52.7c-4.1-8.1-9.8-15.6-17.1-22c-1.9-1.7-2.5-4.3-1.6-6.6c0.9-2.3,3.1-3.9,5.6-3.9c0,0,0.1,0,0.1,0
	c13.1,0,45.2,2.5,62.8,24.9c12.3,15.7,14.5,36.3,16.5,54.5c0.4,3.4,0.7,6.6,1.1,9.7c4.3,33.4,6.9,44.6,9.9,52.6c0.6,1.5,1.9,4.7,4,9
	c7.7,15.1,19.5,28.2,35,38.9c2,1.4,3,3.8,2.5,6.2c-0.5,2.4-2.4,4.2-4.8,4.6C208.8,344.2,199.6,345.3,189.5,345.3z M103.8,155.5
	c3.5,4.4,6.5,9.1,8.9,14.1c9.4,18.8,8.4,39.1,7.4,58.7c-0.4,7.5-0.7,14.7-0.5,21.7c0.7,23.3,3.5,49.4,19.6,65.9
	c16.3,16.7,42.3,18.3,60.6,16.9c-11.5-9.9-20.6-21.4-27.1-34.2c-2.4-4.7-3.9-8.4-4.6-10.2c-3.9-10.3-6.7-24.8-10.6-55.4
	c-0.4-3.3-0.8-6.7-1.1-10c-1.9-17.4-3.8-35.4-14-48.4C132.6,162.2,116.6,157.3,103.8,155.5z"/>
<path class="st0" d="M215.7,130.1c-7.8,0-13.9-2.7-17.5-4.9c-2.8-1.7-3.7-5.4-2-8.2c1.7-2.8,5.4-3.7,8.2-2c2.4,1.4,6.3,3.2,11.3,3.2
	c0,0,0,0,0,0c5,0,8.9-1.7,11.2-3.1c2.8-1.7,6.5-0.8,8.2,2.1s0.8,6.5-2.1,8.2C229.5,127.4,223.5,130,215.7,130.1
	C215.8,130.1,215.8,130.1,215.7,130.1z"/>
<path class="st0" d="M215.7,182.7c-7.8,0-13.9-2.7-17.5-4.9c-2.8-1.7-3.7-5.4-2-8.2c1.7-2.8,5.4-3.7,8.2-2c2.4,1.4,6.3,3.2,11.3,3.2
	c0,0,0,0,0,0c5,0,8.9-1.7,11.2-3.1c2.8-1.7,6.5-0.8,8.2,2.1s0.8,6.5-2.1,8.2C229.5,180,223.5,182.7,215.7,182.7
	C215.8,182.7,215.8,182.7,215.7,182.7z"/>
<path class="st0" d="M165,156.4c-1.8,0-3.5-0.1-5.2-0.4c-3.3-0.5-5.5-3.6-5-6.8s3.6-5.5,6.8-5c1,0.2,2.1,0.2,3.3,0.2
	c5,0,8.8-1.7,11.2-3.1c2.8-1.7,6.5-0.8,8.2,2.1c1.7,2.8,0.8,6.5-2.1,8.2C178.7,153.7,172.7,156.3,165,156.4z"/>
<path class="st0" d="M266.2,156.4c-7.7,0-13.7-2.6-17.4-4.8c-2.8-1.7-3.8-5.4-2.1-8.2c1.7-2.8,5.4-3.8,8.2-2.1
	c2.4,1.4,6.2,3.1,11.2,3.1c1.2,0,2.3-0.1,3.3-0.2c3.3-0.5,6.3,1.7,6.8,5s-1.7,6.3-5,6.8C269.7,156.3,268,156.4,266.2,156.4z"/>
<path class="st0" d="M215.7,235.3c-7.8,0-13.9-2.7-17.5-4.9c-2.8-1.7-3.7-5.4-2-8.2c1.7-2.8,5.4-3.7,8.2-2c2.4,1.4,6.3,3.2,11.3,3.2
	c0,0,0,0,0,0c5,0,8.9-1.7,11.2-3.1c2.8-1.7,6.5-0.8,8.2,2.1c1.7,2.8,0.8,6.5-2.1,8.2C229.5,232.6,223.5,235.3,215.7,235.3
	C215.8,235.3,215.8,235.3,215.7,235.3z"/>
<path class="st0" d="M215.7,287.9c-7.8,0-13.9-2.7-17.6-4.9c-2.8-1.7-3.7-5.4-2-8.2c1.7-2.8,5.4-3.7,8.2-2c2.4,1.4,6.3,3.2,11.4,3.2
	c5,0,8.9-1.7,11.2-3.1c2.8-1.7,6.5-0.8,8.2,2.1s0.8,6.5-2.1,8.2C229.5,285.3,223.5,287.9,215.7,287.9
	C215.8,287.9,215.8,287.9,215.7,287.9z"/>
<path class="st1" d="M215,343c-0.1,0-0.2,0-0.4,0c-10-0.6-35.4-4.2-55.4-24.3c-13.5-13.6-19.1-29.1-20.8-35.1
	c-1.8-6.1-2.9-12.5-3.2-19c-0.2-3.3,2.4-6.1,5.7-6.3c3.3-0.2,6.1,2.4,6.3,5.7c0.3,5.5,1.2,10.9,2.7,16.2c1.5,5.2,6.3,18.4,17.8,30
	c17.1,17.2,39,20.3,47.6,20.8c3.3,0.2,5.8,3,5.6,6.3C220.8,340.5,218.2,343,215,343z"/>
<path class="st1" d="M215,343c-3.1,0-5.8-2.5-6-5.6c-0.2-3.3,2.3-6.2,5.6-6.3c8.6-0.5,30.5-3.6,47.6-20.8
	c11.6-11.6,16.3-24.9,17.8-30c1.5-5.2,2.4-10.7,2.7-16.2c0.2-3.3,3-5.9,6.3-5.7c3.3,0.2,5.9,3,5.7,6.3c-0.3,6.4-1.4,12.8-3.2,19
	c-1.8,6-7.3,21.5-20.8,35.1c-20,20.1-45.4,23.7-55.4,24.3C215.2,343,215.1,343,215,343z"/>
</svg>
