<svg xmlns="http://www.w3.org/2000/svg" width="500" height="500" style="width:100%;height:100%;content-visibility:visible"><defs><clipPath id="c"><path d="M0 0h500v500H0z"/></clipPath><clipPath id="b"><path d="M0 0h500v500H0z"/></clipPath><filter id="a" filterUnits="objectBoundingBox" x="0%" y="0%" width="100%" height="100%"><feComponentTransfer in="SourceGraphic"><feFuncA type="table" tableValues="1.0 0.0"/></feComponentTransfer></filter><mask id="d"><g filter="url(#a)"><g clip-path="url(#b)" display="block"><g display="block"><path fill="#FFF" d="M.003 123.003c13.941 2.248 55.872 7.214 80.116-17.972 17.73-18.419 20.612-46.329 21.282-69.935.735-25.904-5.876-53.773 6.23-77.918 5.644-11.258 13.091-19.046 18.425-23.822-20.653-.023-44.793 5.576-58.191 22.653-13.313 16.969-13.758 40.84-16.372 61.284-4.145 32.415-6.923 45.072-10.298 54.016-.755 2.002-2.166 5.398-4.25 9.542C31.262 92.152 20.627 108.23.003 123.003z" transform="translate(250 250)"/><path stroke-linecap="round" stroke-linejoin="round" fill-opacity="0" stroke="#08A88A" stroke-width="0" d="M250.003 373.003c13.941 2.248 55.872 7.214 80.116-17.972 17.73-18.419 20.612-46.329 21.282-69.935.735-25.904-5.876-53.773 6.23-77.918 5.644-11.258 13.091-19.046 18.425-23.822-20.653-.023-44.793 5.576-58.191 22.653-13.313 16.969-13.758 40.84-16.372 61.284-4.145 32.415-6.923 45.072-10.298 54.016-.755 2.002-2.166 5.398-4.25 9.542-5.683 11.301-16.318 27.379-36.942 42.152z"/><g><path stroke-linecap="round" stroke-linejoin="round" fill-opacity="0" stroke="#08A88A" stroke-width="0" d="M250 373.003c6.782-.407 31.795-2.71 51.534-22.54 13.481-13.543 18.288-29.018 19.324-32.565a75.236 75.236 0 002.927-17.566"/></g></g><g display="block"><path fill="#FFF" d="M.003 123.003c-13.639 2.392-55.783 8.051-80.122-16.899-17.734-18.18-20.604-46.035-21.282-69.934-.735-25.904 5.876-53.773-6.23-77.918-5.644-11.258-13.091-19.047-18.425-23.823 20.653-.023 44.793 5.576 58.191 22.653 13.313 16.969 13.758 40.841 16.372 61.285 4.129 32.286 6.808 44.897 10.251 53.989.797 2.105 2.204 5.46 4.297 9.568 9.76 19.157 24.131 32.287 36.948 41.079z" transform="translate(250 250)"/><path stroke-linecap="round" stroke-linejoin="round" fill-opacity="0" stroke="#08A88A" stroke-width="0" d="M250.003 373.003c-13.639 2.392-55.783 8.051-80.122-16.899-17.734-18.18-20.604-46.035-21.282-69.934-.735-25.904 5.876-53.773-6.23-77.918-5.644-11.258-13.091-19.047-18.425-23.823 20.653-.023 44.793 5.576 58.191 22.653 13.313 16.969 13.758 40.841 16.372 61.285 4.129 32.286 6.808 44.897 10.251 53.989.797 2.105 2.204 5.46 4.297 9.568 9.76 19.157 24.131 32.287 36.948 41.079z"/><g><path stroke-linecap="round" stroke-linejoin="round" fill-opacity="0" stroke="#08A88A" stroke-width="0" d="M250.003 373.003c-6.782-.407-31.795-2.71-51.534-22.54-13.481-13.543-18.288-29.018-19.324-32.565a75.245 75.245 0 01-2.928-17.566"/></g></g></g></g></mask></defs><g clip-path="url(#c)"><g mask="url(#d)" display="block"><path fill="#FFF" d="M186.683 241.921c1.32.204 2.727.312 4.23.312 7.032-.011 12.142-2.673 14.289-3.951"/><path stroke-linecap="round" stroke-linejoin="round" stroke="#FFF" stroke-width="12.6" d="M186.683 241.921c1.32.204 2.727.312 4.23.312 7.032-.011 12.142-2.673 14.289-3.951" fill="none"/><path fill="#FFF" d="M296.191 238.282c2.147 1.278 7.257 3.94 14.289 3.951 1.503 0 2.91-.108 4.23-.312"/><path stroke-linecap="round" stroke-linejoin="round" stroke="#FFF" stroke-width="12.6" d="M296.191 238.282c2.147 1.278 7.257 3.94 14.289 3.951 1.503 0 2.91-.108 4.23-.312" fill="none"/><path stroke-linecap="round" stroke-linejoin="round" stroke="#FFF" stroke-width="12.6" d="M187.945 228.699c-4.641 38.659-1.35 74.635 10.113 101.07 11.223 26.414 30.618 43.285 52.627 43.238 22.009.047 41.403-16.825 52.626-43.238 11.463-26.435 14.755-62.411 10.114-101.07-4.646-38.718-15.341-73.04-26.572-97.825-11.466-24.763-23.468-39.989-36.168-39.993-12.7.004-24.702 15.23-36.168 39.993-11.231 24.785-21.926 59.108-26.572 97.825z" fill="none"/><path fill="#FFF" d="M236.292 156.033c2.141 1.293 7.335 4.038 14.494 4.026 7.03-.011 12.142-2.674 14.291-3.958"/><path stroke-linecap="round" stroke-linejoin="round" stroke="#FFF" stroke-width="12.6" d="M236.292 156.033c2.141 1.293 7.335 4.038 14.494 4.026 7.03-.011 12.142-2.674 14.291-3.958" fill="none"/><path fill="#FFF" d="M236.292 208.638c2.141 1.293 7.335 4.038 14.494 4.026 7.03-.011 12.142-2.675 14.291-3.959"/><path stroke-linecap="round" stroke-linejoin="round" stroke="#FFF" stroke-width="12.6" d="M236.292 208.638c2.141 1.293 7.335 4.038 14.494 4.026 7.03-.011 12.142-2.675 14.291-3.959" fill="none"/><g><path fill="#FFF" d="M195.74 186.046c1.32.204 2.727.311 4.23.311 7.032-.011 12.142-2.673 14.289-3.951"/><path stroke-linecap="round" stroke-linejoin="round" stroke="#FFF" stroke-width="12.6" d="M195.74 186.046c1.32.204 2.727.311 4.23.311 7.032-.011 12.142-2.673 14.289-3.951" fill="none"/></g><g><path fill="#FFF" d="M286.928 182.454c2.147 1.278 7.258 3.939 14.29 3.95 1.503 0 2.91-.107 4.23-.311"/><path stroke-linecap="round" stroke-linejoin="round" stroke="#FFF" stroke-width="12.6" d="M286.928 182.454c2.147 1.278 7.258 3.939 14.29 3.95 1.503 0 2.91-.107 4.23-.311" fill="none"/></g><g><path fill="#FFF" d="M236.292 261.243c2.141 1.293 7.335 4.038 14.494 4.026 7.03-.011 12.142-2.675 14.291-3.959"/><path stroke-linecap="round" stroke-linejoin="round" stroke="#FFF" stroke-width="12.6" d="M236.292 261.243c2.141 1.293 7.335 4.038 14.494 4.026 7.03-.011 12.142-2.675 14.291-3.959" fill="none"/></g><g><path fill="#FFF" d="M236.292 313.848c2.141 1.293 7.335 4.038 14.494 4.026 7.03-.011 12.142-2.675 14.291-3.959"/><path stroke-linecap="round" stroke-linejoin="round" stroke="#FFF" stroke-width="12.6" d="M236.292 313.848c2.141 1.293 7.335 4.038 14.494 4.026 7.03-.011 12.142-2.675 14.291-3.959" fill="none"/></g></g><g display="block"><path stroke-linecap="round" stroke-linejoin="round" stroke="#FFF" stroke-width="12.6" d="M250.003 373.003c13.941 2.248 55.872 7.214 80.116-17.972 17.73-18.419 20.612-46.329 21.282-69.935.735-25.904-5.876-53.773 6.23-77.918 5.644-11.258 13.091-19.046 18.425-23.822-20.653-.023-44.793 5.576-58.191 22.653-13.313 16.969-13.758 40.84-16.372 61.284-4.145 32.415-6.923 45.072-10.298 54.016-.755 2.002-2.166 5.398-4.25 9.542-5.683 11.301-16.318 27.379-36.942 42.152z" fill="none"/><path stroke-linecap="round" stroke-linejoin="round" stroke="#FFF" stroke-width="12.6" d="M250 373.003c6.782-.407 31.795-2.71 51.534-22.54 13.481-13.543 18.288-29.018 19.324-32.565a75.236 75.236 0 002.927-17.566" fill="none"/></g><g display="block"><path stroke-linecap="round" stroke-linejoin="round" stroke="#FFF" stroke-width="12.6" d="M250.003 373.003c-13.639 2.392-55.783 8.051-80.122-16.899-17.734-18.18-20.604-46.035-21.282-69.934-.735-25.904 5.876-53.773-6.23-77.918-5.644-11.258-13.091-19.047-18.425-23.823 20.653-.023 44.793 5.576 58.191 22.653 13.313 16.969 13.758 40.841 16.372 61.285 4.129 32.286 6.808 44.897 10.251 53.989.797 2.105 2.204 5.46 4.297 9.568 9.76 19.157 24.131 32.287 36.948 41.079z" fill="none"/><path stroke-linecap="round" stroke-linejoin="round" stroke="#FFF" stroke-width="12.6" d="M250.003 373.003c-6.782-.407-31.795-2.71-51.534-22.54-13.481-13.543-18.288-29.018-19.324-32.565a75.245 75.245 0 01-2.928-17.566" fill="none"/></g><path stroke-linecap="round" stroke-linejoin="round" stroke="#FFF" stroke-width="12.6" d="M281.67 374.682v36.437h-63.34v-36.007" fill="none" display="block"/></g></svg>