<svg xmlns="http://www.w3.org/2000/svg" width="500" height="500" style="width:100%;height:100%;content-visibility:visible"><defs><clipPath id="a"><path d="M0 0h500v500H0z"/></clipPath></defs><g display="block" clip-path="url(#a)"><path stroke-linecap="round" stroke-linejoin="round" stroke="#FFF" stroke-width="12.6" d="M408.5 227.16a29.11 29.11 0 00-10.38-1.9c-8.32 0-15.86 3.49-21.23 9.09-5.12 5.3-8.27 12.51-8.27 20.41v47.35c0 16.22-13.27 29.5-29.5 29.5-16.22 0-29.5-13.28-29.5-29.5V250c0 7.89-1.53 15.42-4.31 22.31-8.84 21.88-30.27 37.31-55.31 37.31-17 0-32.34-7.11-43.2-18.52-3.46 12.43-14.91 21.63-28.42 21.63-16.22 0-29.5-13.28-29.5-29.5v-30.07c0-8.12-3.32-15.49-8.66-20.84-5.35-5.34-12.72-8.66-20.84-8.66-15.99 0-29.13 12.9-29.48 28.82v.04c.1 6.71.62 13.31 1.52 19.79 4.98 35.7 21.73 67.64 46.21 91.75 28.91 28.49 68.58 46.06 112.37 46.06 48.45 0 91.88-21.52 121.23-55.52 16.06-18.58 27.9-40.89 34.07-65.46 1.38-5.5 2.48-11.11 3.28-16.83 1.01-7.29 1.54-14.74 1.54-22.31 0-7.75-.55-15.38-1.62-22.84z" fill="none"/><path stroke-linecap="round" stroke-linejoin="round" stroke="#FFF" stroke-width="12.6" d="M408.5 227.16a29.11 29.11 0 00-10.38-1.9c-8.32 0-15.86 3.49-21.23 9.09-5.12 5.3-8.27 12.51-8.27 20.41v47.35c0 16.22-13.27 29.5-29.5 29.5-16.22 0-29.5-13.28-29.5-29.5V250c0-32.93-26.69-59.62-59.62-59.62-16.44 0-31.33 6.65-42.12 17.42-10.81 10.79-17.5 25.71-17.5 42.2 0 7.89 1.53 15.42 4.31 22.31a59.848 59.848 0 0012.11 18.79c-3.46 12.43-14.91 21.63-28.42 21.63-16.22 0-29.5-13.28-29.5-29.5v-30.07c0-8.12-3.32-15.49-8.66-20.84-5.35-5.34-12.72-8.66-20.84-8.66-15.99 0-29.13 12.9-29.48 28.82-.01-.82-.02-1.65-.02-2.48 0-88.43 71.69-160.12 160.12-160.12 51.66 0 97.61 24.47 126.89 62.46 16.44 21.32 27.63 46.91 31.61 74.82zM150.865 197.508L159.667 179M291.663 135.619l-10.247 17.748m54.883 38.33l9.2 18.313M215.784 154.74l-16.024-12.778" fill="none"/></g></svg>