<?xml version="1.0" encoding="utf-8"?>
<!-- Generator: Adobe Illustrator 25.0.1, SVG Export Plug-In . SVG Version: 6.00 Build 0)  -->
<svg version="1.1" id="Layer_1" xmlns="http://www.w3.org/2000/svg" xmlns:xlink="http://www.w3.org/1999/xlink" x="0px" y="0px"
	 viewBox="0 0 430 430" style="enable-background:new 0 0 430 430;" xml:space="preserve">
<style type="text/css">
	.st0{fill:#FFFFFF;}
	.st1{fill:#FFFFFF;}
</style>
<g>
	<path class="st0" d="M215,381.1c-43.9,0-85.3-17-116.6-47.8c-25.9-25.5-42.9-59.3-47.9-95.2c-0.9-6.8-1.5-13.7-1.6-20.5
		c0,0,0-0.1,0-0.1c0,0,0-0.1,0-0.1c0.4-19.1,16.3-34.7,35.5-34.7c9.4,0,18.4,3.7,25.1,10.4c6.7,6.7,10.4,15.6,10.4,25.1v30.1
		c0,13,10.5,23.5,23.5,23.5c10.5,0,19.8-7.1,22.6-17.2c0.6-2.1,2.2-3.7,4.3-4.2c2.1-0.5,4.3,0.1,5.8,1.7
		c10.2,10.7,24,16.7,38.9,16.7c22,0,41.5-13.2,49.7-33.6c2.6-6.4,3.9-13.1,3.9-20.1c0-3.3,2.7-6,6-6s6,2.7,6,6v52.1
		c0,13,10.5,23.5,23.5,23.5s23.5-10.5,23.5-23.5v-47.4c0-9.2,3.5-17.9,10-24.6c6.7-7,15.8-10.9,25.5-10.9c4.3,0,8.5,0.8,12.5,2.3
		c2,0.8,3.5,2.6,3.8,4.8c1.1,7.8,1.7,15.7,1.7,23.7c0,7.7-0.5,15.5-1.6,23.1c-0.8,5.8-2,11.7-3.4,17.5
		c-6.3,24.9-18.5,48.4-35.3,67.9C309.2,360.1,263.3,381.1,215,381.1z M60.9,217.5c0.1,6.3,0.6,12.7,1.5,19
		c4.6,33.3,20.4,64.6,44.5,88.3c29,28.6,67.4,44.3,108.2,44.3c44.8,0,87.4-19.5,116.7-53.4c15.7-18.1,27-39.9,32.8-63
		c1.3-5.3,2.4-10.8,3.2-16.2c1-7.1,1.5-14.3,1.5-21.5c0-6.1-0.4-12.2-1.1-18.2c-1.6-0.3-3.3-0.5-4.9-0.5c-6.4,0-12.4,2.6-16.9,7.2
		c-4.3,4.4-6.6,10.2-6.6,16.3v47.4c0,19.6-15.9,35.5-35.5,35.5s-35.5-15.9-35.5-35.5v-14.2c-12.1,17.2-31.9,27.7-53.6,27.7
		c-15.2,0-29.5-5.1-41-14.4c-6.3,10.6-17.8,17.5-30.6,17.5c-19.6,0-35.5-15.9-35.5-35.5v-30.1c0-6.2-2.5-12.1-6.9-16.6
		c-4.5-4.4-10.4-6.9-16.6-6.9C71.7,194.7,61.2,204.9,60.9,217.5z"/>
	<path class="st0" d="M304.1,302.6c-19.6,0-35.5-15.9-35.5-35.5V215c0-29.6-24.1-53.6-53.6-53.6c-14.3,0-27.8,5.6-37.9,15.7
		c-10.1,10.1-15.7,23.6-15.7,38c0,6.9,1.3,13.7,3.9,20.1c2.5,6.3,6.2,12,10.9,16.9c1.5,1.5,2,3.7,1.4,5.7c-4.3,15.3-18.3,26-34.2,26
		c-19.6,0-35.5-15.9-35.5-35.5v-30.1c0-6.2-2.5-12.1-6.9-16.6c-4.5-4.4-10.4-6.9-16.6-6.9c-12.7,0-23.2,10.3-23.5,23
		c-0.1,3.3-2.7,5.9-6,5.9c0,0,0,0,0,0c-3.3,0-5.9-2.7-6-5.9c0-0.9,0-1.7,0-2.6c0-91.6,74.5-166.1,166.1-166.1
		c51.9,0,99.9,23.6,131.6,64.8c17.4,22.6,28.8,49.5,32.8,77.6c0.3,2.1-0.5,4.2-2.2,5.5s-3.9,1.7-5.9,0.9c-2.6-1-5.4-1.5-8.2-1.5
		c-6.4,0-12.4,2.6-16.9,7.2c-4.3,4.4-6.6,10.2-6.6,16.3v47.4C339.6,286.7,323.7,302.6,304.1,302.6z M215,149.4
		c36.2,0,65.6,29.4,65.6,65.6v52.1c0,13,10.5,23.5,23.5,23.5s23.5-10.5,23.5-23.5v-47.4c0-9.2,3.5-17.9,10-24.6
		c6.7-7,15.8-10.9,25.5-10.9c1,0,2,0,3,0.1c-4.6-23-14.6-44.7-28.9-63.4c-29.4-38.2-74-60.1-122.1-60.1
		c-76.5,0-140.1,56-152.1,129.1c6-4.6,13.4-7.3,21.5-7.3c9.4,0,18.4,3.7,25.1,10.4c6.7,6.7,10.4,15.6,10.4,25.1v30.1
		c0,13,10.5,23.5,23.5,23.5c9.4,0,17.9-5.7,21.6-14.3c-4.6-5.4-8.2-11.4-10.8-17.9c-3.2-7.8-4.7-16.1-4.7-24.6
		c0-17.6,6.8-34,19.3-46.4C181,156.2,197.5,149.4,215,149.4z"/>
	<path class="st1" d="M115.9,168.5c-0.9,0-1.7-0.2-2.6-0.6c-3-1.4-4.3-5-2.8-8l8.8-18.5c1.4-3,5-4.3,8-2.8c3,1.4,4.3,5,2.8,8
		l-8.8,18.5C120.3,167.2,118.1,168.5,115.9,168.5z"/>
	<path class="st1" d="M310.5,181c-2.2,0-4.3-1.2-5.4-3.3l-9.2-18.3c-1.5-3-0.3-6.6,2.7-8.1c3-1.5,6.6-0.3,8.1,2.7l9.2,18.3
		c1.5,3,0.3,6.6-2.7,8.1C312.3,180.8,311.4,181,310.5,181z"/>
	<path class="st1" d="M246.4,124.4c-1,0-2-0.3-3-0.8c-2.9-1.7-3.9-5.3-2.2-8.2l10.2-17.7c1.7-2.9,5.3-3.9,8.2-2.2
		c2.9,1.7,3.9,5.3,2.2,8.2l-10.2,17.7C250.5,123.3,248.5,124.4,246.4,124.4z"/>
	<path class="st1" d="M180.8,125.7c-1.3,0-2.6-0.4-3.7-1.3l-16-12.8c-2.6-2.1-3-5.8-1-8.4c2.1-2.6,5.8-3,8.4-1l16,12.8
		c2.6,2.1,3,5.8,1,8.4C184.3,125,182.5,125.7,180.8,125.7z"/>
</g>
</svg>
