<?xml version="1.0" encoding="utf-8"?>
<!-- Generator: Adobe Illustrator 25.0.1, SVG Export Plug-In . SVG Version: 6.00 Build 0)  -->
<svg version="1.1" id="Layer_1" xmlns="http://www.w3.org/2000/svg" xmlns:xlink="http://www.w3.org/1999/xlink" x="0px" y="0px"
	 viewBox="0 0 430 430" style="enable-background:new 0 0 430 430;" xml:space="preserve">
<style type="text/css">
	.st0{fill:#FFFFFF;}
	.st1{fill:#FFFFFF;}
</style>
<g>
	<path class="st0" d="M277.3,310.9c-16.3,0-30.9-3.7-43.7-11.1c-2.9-1.7-3.8-5.3-2.2-8.2c1.7-2.9,5.3-3.8,8.2-2.2
		c15.2,8.8,33.8,11.5,55.1,8c51.9-9.3,74.7-47,64.3-106.2c-7.7-46.5-34-93.7-64-114.9c-13.7-9.7-27.2-13.4-40.1-11.1
		c-23.8,3.9-43,28.2-53,66.7c-0.8,3.2-4.1,5.1-7.3,4.3c-3.2-0.8-5.1-4.1-4.3-7.3c11.2-43.4,34-70.9,62.6-75.6
		c15.8-2.8,32.8,1.7,49,13.1c32.4,22.9,60.7,73.3,68.9,122.7c6,33.9,1.9,61.9-12.3,83c-13,19.4-34.4,32.2-61.8,37.1
		C290,310.4,283.5,310.9,277.3,310.9z"/>
	<path class="st1" d="M153.4,377.4c-9,0-18.4-1.2-28.1-3.7c-27-7.4-47.1-22.1-58.3-42.6c-12.2-22.3-13.8-50.5-4.8-83.8
		c12.6-48.4,45.3-96.1,79.6-115.9c17.1-9.9,34.5-12.9,50.1-8.6c15.6,4,29.1,15.2,39.1,32.3c19.9,34.2,24.7,91.9,11.6,140.2
		c-8.7,33.4-24.1,57-45.7,70.4C184.2,373.5,169.4,377.4,153.4,377.4z M177.5,132.8c-9.4,0-19.3,3-29.6,8.9
		c-31.7,18.4-62.2,63-74,108.6c-15.8,58.1,3.6,97.7,54.5,111.7c51,13.1,87.5-11.7,102.7-69.9c0,0,0,0,0-0.1
		c12.3-45.4,8.1-99.3-10.4-131c-8.4-14.5-19.1-23.5-31.8-26.7C185.2,133.4,181.4,132.8,177.5,132.8z"/>
	<path class="st1" d="M209.6,242.8c-0.1,0-0.3,0-0.4,0c-3.3-0.2-5.8-3.1-5.6-6.4c0.7-10.2,0-20.4-1.9-30.5
		c-2.2-11.5-6.2-22.6-11.7-33c-1.6-2.9-0.4-6.6,2.5-8.1c2.9-1.6,6.6-0.4,8.1,2.5c6.1,11.4,10.4,23.7,12.8,36.3
		c2.1,11,2.8,22.3,2.1,33.5C215.4,240.4,212.8,242.8,209.6,242.8z"/>
</g>
<path class="st1" d="M163.3,281.5c-1.3,0-2.6-0.4-3.7-1.3l-35.6-27.6c-1.7-1.3-2.6-3.5-2.2-5.7l8.5-51.9L107,169.5
	c-2.2-2.5-2.1-6.2,0.4-8.5c2.5-2.2,6.2-2.1,8.5,0.4L141,189c1.2,1.4,1.8,3.2,1.5,5l-8.4,51.3l32.8,25.5c2.6,2,3.1,5.8,1.1,8.4
	C166.8,280.7,165.1,281.5,163.3,281.5z"/>
<path class="st1" d="M132,296.3c-0.3,0-0.7,0-1-0.1c-3.3-0.6-5.4-3.7-4.9-6.9l5.4-30.8c0.6-3.3,3.7-5.4,6.9-4.9
	c3.3,0.6,5.4,3.7,4.9,6.9l-5.4,30.8C137.4,294.3,134.9,296.3,132,296.3z"/>
</svg>
