<svg xmlns="http://www.w3.org/2000/svg" width="500" height="500" style="width:100%;height:100%;content-visibility:visible"><defs><filter id="a" filterUnits="objectBoundingBox" x="0%" y="0%" width="100%" height="100%"><feComponentTransfer in="SourceGraphic"><feFuncA type="table" tableValues="1.0 0.0"/></feComponentTransfer></filter><filter id="b" filterUnits="objectBoundingBox" x="0%" y="0%" width="100%" height="100%"><feComponentTransfer in="SourceGraphic"><feFuncA type="table" tableValues="1.0 0.0"/></feComponentTransfer></filter><filter id="c" filterUnits="objectBoundingBox" x="0%" y="0%" width="100%" height="100%"><feComponentTransfer in="SourceGraphic"><feFuncA type="table" tableValues="1.0 0.0"/></feComponentTransfer></filter><clipPath id="d"><path d="M0 0h500v500H0z"/></clipPath><mask id="e"><g filter="url(#c)"><path fill="#FFF" d="M20.201 80.583c-17.302 66.575-60.846 86.799-110.05 74.144-48.997-13.431-76.764-52.601-58.745-118.985 17.09-65.781 73.321-133.754 122.317-120.321C22.926-71.924 38.01 14.994 20.201 80.583z" transform="translate(250 250)" display="block"/></g></mask></defs><g clip-path="url(#d)"><g mask="url(#e)" display="block"><path stroke-linecap="round" stroke-linejoin="round" stroke="#FFF" stroke-width="12.6" d="M398.269 227.029c11.967 67.738-19.213 104.246-69.221 113.211-50.143 8.174-91.69-15.892-102.926-83.754-11.829-66.928 11.02-152.134 61.163-160.305 50.007-8.964 99.888 63.796 110.984 130.848zm-88.421-91.95a103.465 103.465 0 0122.522 20.533 103.407 103.407 0 0113.996 22.602" fill="none"/></g><g display="block"><path stroke-linecap="round" stroke-linejoin="round" stroke="#FFF" stroke-width="12.6" d="M270.201 330.583c-17.302 66.575-60.846 86.799-110.05 74.144-48.997-13.431-76.764-52.601-58.745-118.985 17.09-65.781 73.321-133.754 122.317-120.321 49.203 12.655 64.287 99.573 46.478 165.162z" fill="none"/><path stroke-linecap="round" stroke-linejoin="round" stroke="#FFF" stroke-width="12.6" d="M170.725 296.4l-5.367 30.768m-20.535-124.87l25.117 27.585-8.958 54.808 35.645 27.64" fill="none"/></g></g></svg>