<?xml version="1.0" encoding="utf-8"?>
<!-- Generator: Adobe Illustrator 25.0.1, SVG Export Plug-In . SVG Version: 6.00 Build 0)  -->
<svg version="1.1" id="Layer_1" xmlns="http://www.w3.org/2000/svg" xmlns:xlink="http://www.w3.org/1999/xlink" x="0px" y="0px"
	 viewBox="0 0 430 430" style="enable-background:new 0 0 430 430;" xml:space="preserve">
<style type="text/css">
	.st0{fill:#FFFFFF;}
	.st1{fill:#FFFFFF;}
</style>
<g>
	<path class="st0" d="M113.9,363.7c-10.1,0-19.9-6.5-23.7-15.9c-2.4-5.9-2.4-12-2.3-17.4c0-0.8,0-1.5,0-2.2c0-17.1,0-58.7,0-92.1
		c0-18.7,0-35,0-43.3c0-3.3,2.7-6,6-6c0,0,0,0,0,0c3.3,0,6,2.7,6,6c0,8.3,0,24.6,0,43.3c0,33.4,0,75.1,0,92.1c0,0.8,0,1.6,0,2.4
		c0,4.7-0.1,9.2,1.4,12.9c2,4.9,7.3,8.5,12.6,8.5c0,0,0,0,0,0c5.3,0,10.6-3.6,12.6-8.5c2-5,1.8-11.9,1.5-18.6
		c-0.1-2.3-0.2-4.6-0.2-6.8c0-8.4,0-16.9,0-25.1l0-3.5c0-5.1,0-11,2.2-16.6c3.7-9.6,13.5-16.3,23.8-16.3c0.1,0,0.1,0,0.2,0
		c10.4,0.1,20.1,7,23.7,16.7c1.7,4.5,1.9,9.1,2.1,13.2c0.2,3.6,0.4,7,1.4,9.8c1.9,5,7.1,8.7,12.4,8.8c5.3,0.1,10.7-3.4,12.7-8.4
		c1.5-3.7,1.5-8.2,1.5-12.7l-0.1-91c0-3.3,2.7-6,6-6c0,0,0,0,0,0c3.3,0,6,2.7,6,6l0.1,91c0,5.3,0,11.4-2.4,17.2
		c-3.9,9.5-13.8,16-24,15.8c-10.3-0.2-19.9-7-23.5-16.6c-1.7-4.5-1.9-9.2-2.2-13.3c-0.2-3.6-0.4-6.9-1.4-9.8
		c-1.9-5.1-7.2-8.8-12.6-8.8c0,0-0.1,0-0.1,0c-5.4,0-10.7,3.6-12.6,8.6c-1.4,3.5-1.4,8-1.3,12.2l0,3.5c0,8.3,0.1,16.8,0,25.2
		c0,2,0.1,4.1,0.2,6.3c0.3,7.6,0.6,16.2-2.4,23.6C133.8,357.1,124.1,363.7,113.9,363.7C113.9,363.7,113.9,363.7,113.9,363.7z"/>
	<g>
		<path class="st1" d="M355.5,166.3H234.8c-3.3,0-6-2.7-6-6s2.7-6,6-6h114.7v-28H234.8c-3.3,0-6-2.7-6-6s2.7-6,6-6h120.7
			c3.3,0,6,2.7,6,6v40C361.5,163.6,358.8,166.3,355.5,166.3z"/>
		<g>
			<path class="st1" d="M174.8,211.8h-0.2c-14.3,0-26-11.7-26-26V92.3c0-14.3,11.7-26,26-26h0.2c14.3,0,26,11.7,26,26v93.5
				C200.8,200.1,189.2,211.8,174.8,211.8z M174.7,78.3c-7.7,0-14,6.3-14,14v93.5c0,7.7,6.3,14,14,14h0.2c7.7,0,14-6.3,14-14V92.3
				c0-7.7-6.3-14-14-14H174.7z"/>
			<path class="st1" d="M214.8,198.6c-14.3,0-26-11.7-26-26v-66.8c0-14.3,11.7-26,26-26s26,11.7,26,26v66.8
				C240.8,187,229.2,198.6,214.8,198.6z M214.8,91.9c-7.7,0-14,6.3-14,14v66.8c0,7.7,6.3,14,14,14c7.7,0,14-6.3,14-14v-66.8
				C228.8,98.2,222.6,91.9,214.8,91.9z"/>
			<path class="st1" d="M94.5,198.6c-14.3,0-26-11.7-26-26v-66.8c0-14.3,11.7-26,26-26s26,11.7,26,26v66.8
				C120.5,187,108.8,198.6,94.5,198.6z M94.5,91.9c-7.7,0-14,6.3-14,14v66.8c0,7.7,6.3,14,14,14s14-6.3,14-14v-66.8
				C108.5,98.2,102.2,91.9,94.5,91.9z"/>
			<path class="st1" d="M134.7,212.1c-14.3,0-26-11.7-26-26V92.6c0-14.3,11.7-26,26-26s26,11.7,26,26v93.5
				C160.7,200.4,149,212.1,134.7,212.1z M134.7,78.6c-7.7,0-14,6.3-14,14v93.5c0,7.7,6.3,14,14,14s14-6.3,14-14V92.6
				C148.7,84.8,142.4,78.6,134.7,78.6z"/>
		</g>
	</g>
</g>
</svg>
