<svg xmlns="http://www.w3.org/2000/svg" width="500" height="500" style="width:100%;height:100%;content-visibility:visible"><defs><clipPath id="b"><path d="M0 0h500v500H0z"/></clipPath><filter id="a" filterUnits="objectBoundingBox" x="0%" y="0%" width="100%" height="100%"><feComponentTransfer in="SourceGraphic"><feFuncA type="table" tableValues="1.0 0.0"/></feComponentTransfer></filter><mask id="c"><g filter="url(#a)"><g display="block"><path fill="red" d="M66-40h120.67v-40H66M6.003 5.544h-.167c-11.046 0-20-8.954-20-20v-93.5c0-11.046 8.954-20 20-20h.167c11.046 0 20 8.954 20 20v93.5c0 11.046-8.954 20-20 20zm40-13.167c-11.046 0-20-8.954-20-20v-66.75c0-11.046 8.954-20 20-20s20 8.954 20 20v66.75c0 11.046-8.954 20-20 20zm-120.333 0c-11.046 0-20-8.954-20-20v-66.75c0-11.046 8.954-20 20-20s20 8.954 20 20v66.75c0 11.046-8.954 20-20 20zm40.166 13.417c-11.046 0-20-8.954-20-20v-93.5c0-11.046 8.954-20 20-20s20 8.954 20 20v93.5c0 11.046-8.954 20-20 20z" transform="translate(250 250)"/><path stroke-linecap="round" stroke-linejoin="round" fill-opacity="0" stroke="#121331" stroke-width="0" d="M256.003 255.544h-.167c-11.046 0-20-8.954-20-20v-93.5c0-11.046 8.954-20 20-20h.167c11.046 0 20 8.954 20 20v93.5c0 11.046-8.954 20-20 20zM296.003 242.377s0 0 0 0c-11.046 0-20-8.954-20-20v-66.75c0-11.046 8.954-20 20-20 0 0 0 0 0 0 11.046 0 20 8.954 20 20v66.75c0 11.046-8.954 20-20 20zM175.67 242.377s0 0 0 0c-11.046 0-20-8.954-20-20v-66.75c0-11.046 8.954-20 20-20 0 0 0 0 0 0 11.046 0 20 8.954 20 20v66.75c0 11.046-8.954 20-20 20z"/><path stroke-linecap="round" stroke-linejoin="round" fill-opacity="0" stroke="#121331" stroke-width="0" d="M215.836 255.794s0 0 0 0c-11.046 0-20-8.954-20-20v-93.5c0-11.046 8.954-20 20-20 0 0 0 0 0 0 11.046 0 20 8.954 20 20v93.5c0 11.046-8.954 20-20 20z"/></g></g></mask></defs><g clip-path="url(#b)"><g mask="url(#c)" display="block"><path stroke-linecap="round" stroke-linejoin="round" stroke="#FFF" stroke-width="12.6" d="M294.949 242.354c.034 28.856.069 62.107.103 90.963.006 5.056-.016 10.261-1.928 14.942-2.948 7.215-10.575 12.246-18.367 12.117-7.792-.129-15.249-5.411-17.956-12.719-2.707-7.308-.883-15.699-3.581-23.01-2.724-7.381-10.285-12.699-18.152-12.767-7.867-.068-15.52 5.117-18.372 12.449-1.769 4.548-1.774 9.563-1.755 14.443.036 9.574.084 19.148.049 28.722-.031 8.651 1.517 19.479-1.776 27.646-2.898 7.188-10.395 12.268-18.145 12.288-7.75.021-15.277-5.024-18.197-12.203-2.248-5.528-1.867-11.611-1.882-17.449-.067-26.544.037-112.139.026-135.399" fill="none"/></g><g display="block"><path stroke-linecap="round" stroke-linejoin="round" stroke="#FFF" stroke-width="12.6" d="M316 210h120.67v-40H316M256.003 255.544h-.167c-11.046 0-20-8.954-20-20v-93.5c0-11.046 8.954-20 20-20h.167c11.046 0 20 8.954 20 20v93.5c0 11.046-8.954 20-20 20z" fill="none"/><path stroke-linecap="round" stroke-linejoin="round" stroke="#FFF" stroke-width="12.6" d="M296.003 242.377s0 0 0 0c-11.046 0-20-8.954-20-20v-66.75c0-11.046 8.954-20 20-20 0 0 0 0 0 0 11.046 0 20 8.954 20 20v66.75c0 11.046-8.954 20-20 20zM175.67 242.377s0 0 0 0c-11.046 0-20-8.954-20-20v-66.75c0-11.046 8.954-20 20-20 0 0 0 0 0 0 11.046 0 20 8.954 20 20v66.75c0 11.046-8.954 20-20 20zM215.836 255.794s0 0 0 0c-11.046 0-20-8.954-20-20v-93.5c0-11.046 8.954-20 20-20 0 0 0 0 0 0 11.046 0 20 8.954 20 20v93.5c0 11.046-8.954 20-20 20z" fill="none"/></g></g></svg>