<svg xmlns="http://www.w3.org/2000/svg" width="500" height="500" style="width:100%;height:100%;content-visibility:visible"><defs><mask id="e"><g filter="url(#a)"><path fill="red" d="M-26.811 6.513c-5.381 8.023-14.527 13.299-24.908 13.299-16.54 0-29.959-13.411-29.959-29.959 0-13.427 8.846-24.796 21.023-28.605a59.75 59.75 0 01-1.047-11.174c0-33.095 26.823-59.919 59.918-59.919s59.919 26.824 59.919 59.919c0 3.862-.366 7.641-1.07 11.301C69.347-34.89 78.29-23.469 78.29-9.96c0 16.548-13.419 29.959-29.959 29.959-10.478 0-19.698-5.374-25.057-13.524-5.359 8.15-14.58 13.524-25.058 13.524-10.463 0-19.668-5.358-25.027-13.486" transform="translate(250 250)" display="block"/></g></mask><mask id="i"><g filter="url(#b)"><g display="block"><path fill="red" d="M-26.811-43.419c-5.381 8.023-14.527 13.299-24.908 13.299-16.54 0-29.959-13.411-29.959-29.959 0-13.427 8.846-24.796 21.023-28.605a59.75 59.75 0 01-1.047-11.174c0-33.095 26.823-59.919 59.918-59.919s59.919 26.824 59.919 59.919c0 3.862-.366 7.641-1.07 11.301C69.347-84.822 78.29-73.401 78.29-59.892c0 16.548-13.419 29.959-29.959 29.959-10.478 0-19.698-5.374-25.057-13.524-5.359 8.15-14.58 13.524-25.058 13.524-10.463 0-19.668-5.358-25.027-13.486m14.35-86.006c-2.2.71-7.227 2.67-11.289 7.675-5.821 7.171-5.399 15.342-5.25 17.25" transform="translate(250 250)"/><path stroke-linecap="round" stroke-linejoin="round" fill-opacity="0" stroke="#121331" stroke-width="0" d="M223.189 206.581c-5.381 8.023-14.527 13.299-24.908 13.299-16.54 0-29.959-13.411-29.959-29.959 0-13.427 8.846-24.796 21.023-28.605a59.75 59.75 0 01-1.047-11.174c0-33.095 26.823-59.919 59.918-59.919s59.919 26.824 59.919 59.919c0 3.862-.366 7.641-1.07 11.301 12.282 3.735 21.225 15.156 21.225 28.665 0 16.548-13.419 29.959-29.959 29.959-10.478 0-19.698-5.374-25.057-13.524-5.359 8.15-14.58 13.524-25.058 13.524-10.463 0-19.668-5.358-25.027-13.486"/><path stroke-linecap="round" stroke-linejoin="round" fill-opacity="0" stroke="#121331" stroke-width="0" d="M237.539 120.575c-2.2.71-7.227 2.67-11.289 7.675-5.821 7.171-5.399 15.342-5.25 17.25"/></g></g></mask><mask id="f"><g filter="url(#c)"><path fill="red" d="M-26.811 6.513c-5.381 8.023-14.527 13.299-24.908 13.299-16.54 0-29.959-13.411-29.959-29.959 0-13.427 8.846-24.796 21.023-28.605a59.75 59.75 0 01-1.047-11.174c0-33.095 26.823-59.919 59.918-59.919s59.919 26.824 59.919 59.919c0 3.862-.366 7.641-1.07 11.301C69.347-34.89 78.29-23.469 78.29-9.96c0 16.548-13.419 29.959-29.959 29.959-10.478 0-19.698-5.374-25.057-13.524-5.359 8.15-14.58 13.524-25.058 13.524-10.463 0-19.668-5.358-25.027-13.486" transform="translate(250 250)" display="block"/></g></mask><mask id="h"><path fill="red" d="M0 14.002c28.296 0 49.625-12.968 60.045-19.336L0 160.334-60.045-5.334C-53-.716-28.296 14.002 0 14.002z" transform="translate(250 250)" display="block"/></mask><filter id="a" filterUnits="objectBoundingBox" x="0%" y="0%" width="100%" height="100%"><feComponentTransfer in="SourceGraphic"><feFuncA type="table" tableValues="1.0 0.0"/></feComponentTransfer></filter><filter id="b" filterUnits="objectBoundingBox" x="0%" y="0%" width="100%" height="100%"><feComponentTransfer in="SourceGraphic"><feFuncA type="table" tableValues="1.0 0.0"/></feComponentTransfer></filter><filter id="c" filterUnits="objectBoundingBox" x="0%" y="0%" width="100%" height="100%"><feComponentTransfer in="SourceGraphic"><feFuncA type="table" tableValues="1.0 0.0"/></feComponentTransfer></filter><clipPath id="d"><path d="M0 0h500v500H0z"/></clipPath><clipPath id="g"><path d="M0 0h500v500H0z"/></clipPath></defs><g clip-path="url(#d)"><g mask="url(#e)" display="block"><path stroke-linecap="round" stroke-linejoin="round" stroke="#FFF" stroke-width="12.6" d="M250 229.752c28.296 0 49.578 9.4 60.045 14.914L250 410.334l-60.045-165.668c10.467-5.514 31.749-14.914 60.045-14.914zM189.955 244.666s57.006 42.661 120.09 0" fill="none"/></g><g mask="url(#f)" display="block"><g clip-path="url(#g)"><g mask="url(#h)" display="block"><path stroke-linecap="round" stroke-linejoin="round" stroke="#FFF" stroke-width="12.6" d="M77.75 270.159L268 460.409m-129.75-247.75l190.25 190.25m-161.125-220.25l190.25 190.25M196.25 152.659l190.25 190.25m-161.125-220.25l190.25 190.25" fill="none"/></g></g></g><g mask="url(#i)" display="block"><path stroke-linecap="round" stroke-linejoin="round" stroke="#FFF" stroke-width="12.6" d="M223.189 256.513c-5.381 8.023-14.527 13.299-24.908 13.299-16.54 0-29.959-13.411-29.959-29.959 0-13.427 8.846-24.796 21.023-28.605a59.75 59.75 0 01-1.047-11.174c0-33.095 26.823-59.919 59.918-59.919s59.919 26.824 59.919 59.919c0 3.862-.366 7.641-1.07 11.301 12.282 3.735 21.225 15.156 21.225 28.665 0 16.548-13.419 29.959-29.959 29.959-10.478 0-19.698-5.374-25.057-13.524-5.359 8.15-14.58 13.524-25.058 13.524-10.463 0-19.668-5.358-25.027-13.486" fill="none"/></g><g display="block"><path stroke-linecap="round" stroke-linejoin="round" stroke="#FFF" stroke-width="12.6" d="M223.189 206.581c-5.381 8.023-14.527 13.299-24.908 13.299-16.54 0-29.959-13.411-29.959-29.959 0-13.427 8.846-24.796 21.023-28.605a59.75 59.75 0 01-1.047-11.174c0-33.095 26.823-59.919 59.918-59.919s59.919 26.824 59.919 59.919c0 3.862-.366 7.641-1.07 11.301 12.282 3.735 21.225 15.156 21.225 28.665 0 16.548-13.419 29.959-29.959 29.959-10.478 0-19.698-5.374-25.057-13.524-5.359 8.15-14.58 13.524-25.058 13.524-10.463 0-19.668-5.358-25.027-13.486" fill="none"/><path stroke-linecap="round" stroke-linejoin="round" stroke="#FFF" stroke-width="12.6" d="M237.539 120.575c-2.2.71-7.227 2.67-11.289 7.675-5.821 7.171-5.399 15.342-5.25 17.25" fill="none"/></g></g></svg>