<?xml version="1.0" encoding="utf-8"?>
<!-- Generator: Adobe Illustrator 25.0.1, SVG Export Plug-In . SVG Version: 6.00 Build 0)  -->
<svg version="1.1" id="Layer_1" xmlns="http://www.w3.org/2000/svg" xmlns:xlink="http://www.w3.org/1999/xlink" x="0px" y="0px"
	 viewBox="0 0 430 430" style="enable-background:new 0 0 430 430;" xml:space="preserve">
<style type="text/css">
	.st0{fill:#FFFFFF;}
	.st1{fill:#FFFFFF;}
</style>
<g>
	<g>
		<path class="st0" d="M216.7,381.1L216.7,381.1c-2.5,0-4.8-1.6-5.6-4l-50.8-140.3c-0.3-0.7-0.4-1.5-0.4-2.3c0-3.3,2.7-6,6-6h0
			c2.5,0,4.8,1.6,5.6,4l45.3,125L262,232.6c1.1-3.1,4.6-4.7,7.7-3.6c3.1,1.1,4.7,4.6,3.6,7.7l-50.9,140.5
			C221.5,379.5,219.2,381.1,216.7,381.1z"/>
		<path class="st0" d="M254.7,276.2c-1.5,0-3.1-0.6-4.2-1.7l-18-17.9c-4.3-4.2-7.3-7.2-18-17.8c-2.4-2.3-2.4-6.1,0-8.5
			c2.3-2.4,6.1-2.4,8.5,0c10.7,10.6,13.7,13.6,18,17.8l18,17.9c2.4,2.3,2.4,6.1,0,8.5C257.8,275.6,256.2,276.2,254.7,276.2z"/>
		<path class="st0" d="M238.4,321.1c-1.6,0-3.1-0.6-4.3-1.8l-69.7-72.5c-2.3-2.4-2.2-6.2,0.2-8.5c2.4-2.3,6.2-2.2,8.5,0.2l69.7,72.5
			c2.3,2.4,2.2,6.2-0.2,8.5C241.4,320.6,239.9,321.1,238.4,321.1z"/>
	</g>
	<path class="st0" d="M193.2,231.4c-0.5,0-0.9-0.1-1.4-0.2c-2.1-0.5-3.9-1-5.7-1.5c-3.2-0.9-5-4.3-4-7.5c0.9-3.2,4.3-5,7.5-4
		c1.6,0.5,3.3,0.9,5.1,1.4c3.2,0.8,5.2,4,4.4,7.2C198.4,229.6,195.9,231.4,193.2,231.4z"/>
	<path class="st0" d="M235.3,232.8c-2.8,0-5.4-2-5.9-4.9c-0.6-3.3,1.6-6.4,4.8-7c2.4-0.4,4.9-1,7.2-1.6c3.2-0.9,6.5,1,7.4,4.2
		c0.9,3.2-1,6.5-4.2,7.4c-2.7,0.7-5.4,1.3-8.2,1.8C236,232.7,235.6,232.8,235.3,232.8z"/>
	<path class="st1" d="M265,240.7c-9.4,0-18.4-3.7-25-10.2c-0.2,0.2-0.4,0.4-0.6,0.6c-5.5,5.1-12.4,8.3-19.9,9.3
		c-1.4,0.2-3,0.3-4.5,0.3c-9.5,0-18.3-3.6-25.1-10.2c-6.4,6.1-14.9,9.7-23.8,10c-0.4,0-0.7,0-1.1,0c-19.8,0-36-16.1-36-36
		c0-12.1,6-23.3,16.1-30c2.8-1.8,6.5-1.1,8.3,1.7c1.8,2.8,1.1,6.5-1.7,8.3c-6.7,4.5-10.7,11.9-10.7,20c0,13.2,10.7,24,24,24
		c0.1,0,0.2,0,0.3,0c0.1,0,0.2,0,0.3,0c6.8-0.2,13.2-3.2,17.6-8.4c0.6-0.7,1.2-1.4,1.7-2.2c1.1-1.7,3-2.7,5-2.7c0,0,0,0,0,0
		c2,0,3.9,1,5,2.7c0.8,1.2,1.7,2.3,2.7,3.4c4.6,4.8,10.7,7.4,17.3,7.4c1,0,2-0.1,3-0.2c5-0.6,9.6-2.8,13.3-6.2
		c1.4-1.3,2.7-2.8,3.8-4.5c1.1-1.7,3-2.7,5-2.7c0,0,0,0,0,0c2,0,3.9,1,5,2.7c0.7,1.1,1.5,2.1,2.4,3c4.6,5,11,7.8,17.7,7.8
		c0.7,0,1.4,0,2-0.1c12.3-1,21.9-11.5,21.9-23.9c0-8-4-15.5-10.7-20c-2.8-1.8-3.5-5.6-1.7-8.3c1.8-2.8,5.6-3.5,8.3-1.7
		c10.1,6.7,16.1,17.9,16.1,30c0,18.5-14.4,34.3-32.9,35.8C267.1,240.7,266.1,240.7,265,240.7z"/>
	<g>
		<path class="st0" d="M265,190.8c-9.5,0-18.4-3.7-25.1-10.2c-6.6,6.5-15.6,10.2-25.1,10.2c-9.5,0-18.4-3.7-25.1-10.2
			c-6.6,6.3-15.5,10-24.9,10c-19.8,0-36-16.1-36-36c0-14.1,8-26.5,20.4-32.4c-0.3-2.4-0.4-4.9-0.4-7.4c0-36.3,29.6-65.9,65.9-65.9
			s65.9,29.6,65.9,65.9c0,2.5-0.1,5-0.4,7.4c12.5,5.9,20.6,18.4,20.6,32.5C301,174.7,284.9,190.8,265,190.8z M240,165.3L240,165.3
			c2,0,3.9,1,5,2.7c4.5,6.8,11.9,10.8,20,10.8c13.2,0,24-10.7,24-24c0-10.5-7-19.9-17-22.9c-2.9-0.9-4.7-3.9-4.1-6.9
			c0.6-3.3,1-6.7,1-10.2c0-29.7-24.2-53.9-53.9-53.9c-29.7,0-53.9,24.2-53.9,53.9c0,3.4,0.3,6.8,0.9,10.1c0.6,3-1.2,5.9-4.1,6.8
			c-10.1,3.1-16.8,12.3-16.8,22.9c0,13.2,10.7,24,24,24c8,0,15.5-4,19.9-10.6c1.1-1.7,3-2.7,5-2.7c0,0,0,0,0,0c2,0,3.9,1,5,2.7
			c4.5,6.8,11.9,10.8,20,10.8c8.1,0,15.6-4,20-10.8C236.1,166.3,237.9,165.3,240,165.3z"/>
		<path class="st0" d="M187.7,116.2c-3.1,0-5.7-2.4-6-5.5c-0.3-3.7-0.2-13.1,6.6-21.5c4.6-5.7,10.2-8.3,14.1-9.6
			c3.2-1,6.5,0.7,7.6,3.9c1,3.2-0.7,6.5-3.9,7.6c-2.4,0.8-5.7,2.4-8.5,5.7c-4.1,5-4.1,10.8-3.9,13c0.3,3.3-2.2,6.2-5.5,6.4
			C188,116.2,187.8,116.2,187.7,116.2z"/>
	</g>
</g>
</svg>
