<?xml version="1.0" encoding="utf-8"?>
<!-- Generator: Adobe Illustrator 25.0.1, SVG Export Plug-In . SVG Version: 6.00 Build 0)  -->
<svg version="1.1" id="Layer_1" xmlns="http://www.w3.org/2000/svg" xmlns:xlink="http://www.w3.org/1999/xlink" x="0px" y="0px"
	 viewBox="0 0 430 430" style="enable-background:new 0 0 430 430;" xml:space="preserve">
<style type="text/css">
	.st0{fill:#FFFFFF;}
	.st1{fill:#FFFFFF;}
</style>
<g>
	<path class="st0" d="M82,337.1c-7.2,0-13.7-2.3-18.6-6.9c-11.4-10.7-10.6-30.6,1.6-49.1c-7.7-19-8.6-41.3-2.8-64.8
		c6.2-24.9,19.6-48.8,38.8-69.1c37.2-39.5,88.6-57.1,129.4-44.7c19-19.8,44.3-25.4,57.9-12.6c6.9,6.5,9.5,16.5,7.2,28.1
		c-2,10.2-7.5,20.6-15.6,29.6c11.6,28.5,7.8,65.1-10.3,98.8c-0.6,1.1-1.2,2.2-1.8,3.2c-1.1,2-2.2,3.8-3.4,5.7
		c-1.8,2.8-5.5,3.7-8.3,1.9c-2.8-1.8-3.7-5.5-1.9-8.3c1.1-1.7,2.1-3.4,3.1-5.2c0.5-1,1.1-2,1.7-3c17.2-31.9,20.3-66.3,8.4-91.9
		c-1.1-2.3-0.6-5,1.2-6.8c0.5-0.5,0.9-0.9,1.4-1.4c7.2-7.6,12-16.5,13.7-24.9c0.8-4.3,1.5-12.3-3.7-17.1c-8.5-8-27.5-2.3-41.4,12.5
		c-0.7,0.7-1.3,1.4-1.9,2.1c-1.6,1.9-4.3,2.6-6.6,1.8c-36.9-13.2-85.3,3-120.4,40.4c-35.2,37.4-48.5,88.3-32.5,123.9
		c0.9,2,0.6,4.3-0.6,6c-10.1,13.8-12.3,29.3-5.1,36.1c7.2,6.8,22.5,3.7,35.7-7.1c1.7-1.4,4-1.8,6-1c20.5,7.9,45.6,6.6,70.7-3.8
		c3.1-1.3,6.6,0.2,7.8,3.3c1.3,3.1-0.2,6.6-3.3,7.8c-26.7,11-53.6,12.8-76.3,5C102.1,333.3,91.4,337.1,82,337.1z"/>
	<g>
		<path class="st1" d="M259.9,346.9c-63.3,0-114.8-46.3-114.8-103.2c0-3.3,2.7-6,6-6h217.6c3.3,0,6,2.7,6,6
			C374.7,300.6,323.2,346.9,259.9,346.9z M157.3,249.7c3.5,47.5,48.2,85.2,102.6,85.2c54.4,0,99.1-37.7,102.6-85.2H157.3z"/>
		<path class="st1" d="M259.3,320.2c-46.8,0-84.9-34.3-84.9-76.5c0-3.3,2.7-6,6-6s6,2.7,6,6c0,35.6,32.7,64.5,72.9,64.5
			c40.2,0,72.9-28.9,72.9-64.5c0-3.3,2.7-6,6-6s6,2.7,6,6C344.3,285.9,306.2,320.2,259.3,320.2z"/>
		<path class="st1" d="M259.3,320.2c-3.3,0-6-2.7-6-6v-70.5c0-3.3,2.7-6,6-6s6,2.7,6,6v70.5C265.3,317.5,262.7,320.2,259.3,320.2z"
			/>
		<path class="st1" d="M206.7,302.2c-1.5,0-3.1-0.6-4.2-1.8c-2.3-2.3-2.3-6.1,0-8.5l52.5-52.5c2.3-2.3,6.1-2.3,8.5,0
			c2.3,2.3,2.3,6.1,0,8.5L211,300.5C209.8,301.7,208.2,302.2,206.7,302.2z"/>
		<path class="st1" d="M312,302.2c-1.5,0-3.1-0.6-4.2-1.8l-52.5-52.5c-2.3-2.3-2.3-6.1,0-8.5c2.3-2.3,6.1-2.3,8.5,0l52.5,52.5
			c2.3,2.3,2.3,6.1,0,8.5C315,301.7,313.5,302.2,312,302.2z"/>
	</g>
</g>
</svg>
