<svg xmlns="http://www.w3.org/2000/svg" width="500" height="500" style="width:100%;height:100%;content-visibility:visible"><defs><clipPath id="b"><path d="M0 0h500v500H0z"/></clipPath><filter id="a" filterUnits="objectBoundingBox" x="0%" y="0%" width="100%" height="100%"><feComponentTransfer in="SourceGraphic"><feFuncA type="table" tableValues="1.0 0.0"/></feComponentTransfer></filter><mask id="c"><g filter="url(#a)"><g display="block"><path fill="red" d="M153.686 28.693c0 53.676-48.712 97.194-108.808 97.194-60.086 0-108.798-43.518-108.798-97.194h217.606z" transform="translate(250 250)"/><path stroke-linecap="round" stroke-linejoin="round" fill-opacity="0" stroke="#08A88A" stroke-width="0" d="M403.686 278.693c0 53.676-48.712 97.194-108.808 97.194-60.086 0-108.798-43.518-108.798-97.194h217.606z"/></g></g></mask></defs><g clip-path="url(#b)"><g mask="url(#c)" display="block"><path stroke-linecap="round" stroke-linejoin="round" stroke="#FFF" stroke-width="12.6" d="M274.626 312.772c-38.178 40.539-90.507 55.942-128.596 41.211-15.484 12.768-33.869 16.048-43.592 6.891-9.745-9.177-7.54-27.79 4.339-44.034-16.757-37.137-4.484-90.086 33.585-130.51 37.593-39.918 88.88-55.458 126.815-41.894a55.196 55.196 0 012.111-2.357c16.458-17.476 38.775-23.181 49.848-12.753s6.715 33.047-9.743 50.523a55.582 55.582 0 01-1.551 1.59c17.312 37.17 5.138 90.606-33.216 131.333z" fill="none"/></g><g display="block"><path stroke-linecap="round" stroke-linejoin="round" stroke="#FFF" stroke-width="12.6" d="M403.686 278.693c0 53.676-48.712 97.194-108.808 97.194-60.086 0-108.798-43.518-108.798-97.194h217.606z" fill="none"/><path stroke-linecap="round" stroke-linejoin="round" stroke="#FFF" stroke-width="12.6" d="M373.273 278.693c0 38.94-35.339 70.511-78.937 70.511-43.59 0-78.929-31.571-78.929-70.511M294.34 349.204v-70.512M294.258 278.692l-52.548 52.547M346.969 331.239l-52.547-52.547" fill="none"/></g></g></svg>