<svg xmlns="http://www.w3.org/2000/svg" width="500" height="500" style="width:100%;height:100%;content-visibility:visible"><defs><clipPath id="a"><path d="M0 0h500v500H0z"/></clipPath></defs><g display="block" clip-path="url(#a)"><path stroke-linecap="round" stroke-linejoin="round" stroke="#FFF" stroke-width="12.6" d="M291.29 268.33l64.09 64.09c1.02-1.65 2.26-3.22 3.7-4.66 9.4-9.4 24.01-10.02 32.64-1.39 8.63 8.63 8.01 23.25-1.38 32.64-5.35 5.35-11.37 6.64-11.37 6.64-5.28 1.05-8.28-.82-10.49 1.32-2.35 2.28-.31 5.74-1.42 11.43 0 0-1.33 6.41-6.75 11.84-9.4 9.4-24.01 10.02-32.64 1.39-8.63-8.63-8.01-23.25 1.38-32.64 1.15-1.15 2.37-2.16 3.66-3.04l-64.52-64.52" fill="none"/><path stroke-linecap="round" stroke-linejoin="round" stroke="#FFF" stroke-width="12.6" d="M246.165 130.928c3.843 4.385 7.082 9.129 9.579 14.123 8.375 16.754 14.515 35.406 21.738 52.882l20.269 49.044c.949 2.297 1.906 4.591 2.849 6.892.843 2.055.011 5.146-1.808 6.965l-37.92 37.919c-1.819 1.819-4.909 2.651-6.957 1.801-30.048-12.414-59.657-25.966-90.356-37.181-26.597-9.716-48.408-27.022-57.379-54.541-6.872-21.081-5.553-47.62 9.499-70.222a81.624 81.624 0 0110.204-12.445c38.672-38.671 93.81-25.445 120.282 4.763zM203.915 142.249l.084.004M189.75 177.75l.084.005M158.665 152h.084" fill="none"/></g></svg>