<svg xmlns="http://www.w3.org/2000/svg" width="500" height="500" style="width:100%;height:100%;content-visibility:visible"><defs><clipPath id="b"><path d="M0 0h500v500H0z"/></clipPath><filter id="a" filterUnits="objectBoundingBox" x="0%" y="0%" width="100%" height="100%"><feComponentTransfer in="SourceGraphic"><feFuncA type="table" tableValues="1.0 0.0"/></feComponentTransfer></filter><mask id="c"><g filter="url(#a)"><g display="block"><path stroke-linecap="round" stroke-linejoin="round" fill-opacity="0" stroke="#08A88A" stroke-width="0" d="M295.798 133.975c-12.663 14.862-29.747 22.368-43.442 20.459-4.06-13.218.639-31.277 13.302-46.139 12.663-14.862 29.747-22.368 43.442-20.459 4.06 13.218-.639 31.277-13.302 46.139z"/><path fill="red" d="M45.798-116.025C33.135-101.163 16.051-93.657 2.356-95.566c-4.06-13.218.639-31.277 13.302-46.139 12.663-14.862 29.747-22.368 43.442-20.459 4.06 13.218-.639 31.277-13.302 46.139z" transform="translate(250 250)"/></g></g></mask></defs><g clip-path="url(#b)"><path stroke-linecap="round" stroke-linejoin="round" stroke="#FFF" stroke-width="12.6" d="M379.298 284.258c0 27.192-9.565 51.92-25.201 70.243-15.526 18.194-37.723 26.854-59.265 36.264-13.679 5.975-27.289 12.008-40.827 18.297-1.131.525-2.308 1.062-3.555 1.057-1.175-.004-2.289-.489-3.363-.965-18.457-8.177-37.625-15.372-55.674-24.396-17.43-7.625-32.938-15.478-45.51-30.257-15.636-18.323-25.201-43.051-25.201-70.243 0-56.5 41.283-102.294 92.214-102.294 13.199 0 25.744 3.077 37.091 8.619 11.347-5.542 23.892-8.619 37.091-8.619 50.917 0 92.2 45.794 92.2 102.294z" fill="none" display="block"/><path stroke-linecap="round" stroke-linejoin="round" stroke="#FFF" stroke-width="12.6" d="M250.007 190.583c9.734 5.217 33.31 19.672 44.206 47.766 14.87 38.34.004 86.303-38.213 118.397" fill="none" display="block"/><g mask="url(#c)" display="block"><path stroke-linecap="round" stroke-linejoin="round" stroke="#FFF" stroke-width="12.6" d="M250.004 190.583c.576-1.203 11.659-25.474-3.135-47.867-9.947-15.058-27.659-23.307-45.778-21.348" fill="none"/></g><path stroke-linecap="round" stroke-linejoin="round" stroke="#FFF" stroke-width="12.6" d="M295.798 133.975c-12.663 14.862-29.747 22.368-43.442 20.459-4.06-13.218.639-31.277 13.302-46.139 12.663-14.862 29.747-22.368 43.442-20.459 4.06 13.218-.639 31.277-13.302 46.139z" fill="none" display="block"/></g></svg>