<svg xmlns="http://www.w3.org/2000/svg" width="500" height="500" style="width:100%;height:100%;content-visibility:visible"><defs><clipPath id="a"><path d="M0 0h500v500H0z"/></clipPath></defs><g clip-path="url(#a)"><path stroke-linecap="round" stroke-linejoin="round" stroke="#FFF" stroke-width="12.04" d="M233.494 134.166c1.965-19.929 8.212-36.353 16.506-44.424 8.111 7.889 14.258 23.767 16.364 43.088" fill="none" display="block"/><path stroke-linecap="round" stroke-linejoin="round" stroke="#FFF" stroke-width="12.04" d="M249.474 149.356c10.005-14.177 25.609-24.344 45.042-27.564a78.808 78.808 0 0113.6-1.053c-13.377 8.688-22.926 21.711-27.382 36.951" fill="none" display="block"/><path stroke-linecap="round" stroke-linejoin="round" stroke="#FFF" stroke-width="12.04" d="M259.258 170.101c-6.866-24.557-25.866-42.263-53.774-46.881a78.808 78.808 0 00-13.6-1.053c13.377 8.688 22.686 20.471 27.142 35.711M249.575 185.071c9.711-16.628 26.541-28.728 48.07-32.293a79.8 79.8 0 0113.6-1.043c-19.696 12.79-31.109 34.987-30.177 59.827" fill="none" display="block"/><path stroke-linecap="round" stroke-linejoin="round" stroke="#FFF" stroke-width="12.04" d="M218.972 211.552c.446-24.253-10.906-45.842-30.217-58.389a78.808 78.808 0 0113.6 1.053c29.893 4.942 50.723 26.349 56.05 53.478" fill="none" display="block"/><path stroke-linecap="round" stroke-linejoin="round" stroke="#FFF" stroke-width="12.04" d="M169.986 308.78c0 55.968 25.966 101.34 80.014 101.34 54.048 0 80.014-45.372 80.014-101.34S317.56 207.44 250 207.44s-80.014 45.372-80.014 101.34zm31.425 10.623v-5.531c0-4.692 2.133-9.129 5.798-12.059 0 0 0 0 0 0a15.439 15.439 0 0119.282 0s0 0 0 0a15.438 15.438 0 015.798 12.059v5.531m35.422 0v-5.531c0-4.692 2.133-9.129 5.798-12.059 0 0 0 0 0 0a15.439 15.439 0 0119.282 0s0 0 0 0a15.438 15.438 0 015.798 12.059v5.531m-64.028 53.917v-5.531c0-4.692 2.133-9.129 5.798-12.059 0 0 0 0 0 0a15.439 15.439 0 0119.282 0s0 0 0 0a15.438 15.438 0 015.798 12.059v5.531m-30.878-107.834v-5.531c0-4.692 2.133-9.129 5.798-12.059 0 0 0 0 0 0a15.439 15.439 0 0119.282 0s0 0 0 0a15.438 15.438 0 015.798 12.059v5.531" fill="none" display="block"/></g></svg>