<?xml version="1.0" encoding="utf-8"?>
<!-- Generator: Adobe Illustrator 24.1.2, SVG Export Plug-In . SVG Version: 6.00 Build 0)  -->
<svg version="1.1" id="Warstwa_1" xmlns="http://www.w3.org/2000/svg" xmlns:xlink="http://www.w3.org/1999/xlink" x="0px" y="0px"
	 viewBox="0 0 430 430" style="enable-background:new 0 0 430 430;" xml:space="preserve">
<style type="text/css">
	.st0{fill:#FFFFFF;}
	.st1{fill:#FFFFFF;}
	.st2{fill:#FFFFFF;}
	.st3{fill:none;}
	.st4{fill:#FFFFFF;}
	.st5{fill:none;stroke:#FFFFFF;stroke-width:12;stroke-linecap:round;stroke-linejoin:round;stroke-miterlimit:10;}
</style>
<g>
	<path class="st0" d="M282.01,115.13c-0.74-2.54-3.06-4.3-5.71-4.32c-4.89-0.04-9.81,0.33-14.63,1.12c-1.88,0.31-3.72,0.7-5.54,1.13
		c4.76-8.98,11.7-16.66,20.26-22.22c2.22-1.44,3.23-4.17,2.49-6.71c-0.74-2.54-3.06-4.3-5.71-4.32c-4.91-0.04-9.83,0.34-14.64,1.13
		c-8.03,1.33-15.59,3.82-22.51,7.32c-2.99-16.59-8.95-30.07-16.84-37.75c-2.33-2.26-6.04-2.26-8.37,0
		c-8.14,7.92-14.18,21.89-17.08,39.09c-6.84-3.45-14.32-5.92-22.27-7.23c-4.8-0.8-9.72-1.16-14.64-1.13
		c-2.65,0.02-4.97,1.78-5.71,4.32c-0.74,2.54,0.27,5.27,2.49,6.71c8.56,5.56,15.5,13.23,20.26,22.21c-1.82-0.43-3.66-0.8-5.54-1.11
		c-4.8-0.8-9.72-1.16-14.64-1.13c-2.65,0.02-4.97,1.78-5.71,4.32c-0.74,2.54,0.27,5.27,2.49,6.71
		c17.61,11.44,27.89,31.35,27.49,53.25c-0.06,3.31,2.58,6.05,5.89,6.11c0.04,0,0.08,0,0.11,0c3.26,0,5.94-2.61,6-5.89
		c0.35-19-6.1-36.77-17.79-50.31c15.95,4.06,28.95,13.52,37.13,26.58c0.13,0.24,0.28,0.48,0.44,0.71
		c3.67,6.05,6.32,12.84,7.77,20.21c0.64,3.25,3.79,5.36,7.04,4.73c3.25-0.64,5.37-3.79,4.73-7.04c-1.51-7.71-4.12-14.89-7.68-21.41
		c2.27-3.42,4.85-6.55,7.72-9.39c0.06-0.05,0.11-0.1,0.16-0.16c7.66-7.51,17.29-12.88,28.31-15.68
		c-12.03,13.91-18.47,32.25-17.73,51.87c0.12,3.24,2.78,5.78,5.99,5.78c0.08,0,0.15,0,0.23,0c3.31-0.12,5.9-2.91,5.77-6.22
		c-0.84-22.46,9.42-42.86,27.45-54.57C281.73,120.4,282.75,117.67,282.01,115.13z M240.85,118.37c-4.58,2.16-8.89,4.74-12.85,7.74
		c-1.7-4.04-3.75-7.88-6.12-11.49C230.1,104.53,241.5,97.37,254.7,94C248.58,101.08,243.87,109.35,240.85,118.37z M215.01,64.36
		c4.67,7.28,8.22,18.15,9.96,30.75c-3.88,2.92-7.45,6.22-10.66,9.87c-2.89-3.1-6.05-5.94-9.46-8.49
		C206.5,83.45,210.18,71.93,215.01,64.36z M189.16,119.8c-3.02-9.02-7.74-17.3-13.86-24.39c7.09,1.8,13.59,4.66,19.35,8.42
		c0.33,0.28,0.69,0.52,1.08,0.72c5.2,3.56,9.75,7.89,13.55,12.87c0.24,0.41,0.52,0.79,0.85,1.14c3.52,4.85,6.34,10.29,8.34,16.23
		c-1.39,1.52-2.72,3.11-3.99,4.76C207.74,131.23,199.15,124.5,189.16,119.8z"/>
	<path class="st1" d="M215,381.19c-27.41,0-49.94-11.12-65.14-32.17c-13.66-18.91-20.88-44.9-20.88-75.17
		c0-34.66,4.81-57.74,15.6-74.86c13.78-21.86,36.81-32.48,70.42-32.48s56.64,10.63,70.42,32.48c10.79,17.11,15.6,40.2,15.6,74.86
		c0,30.27-7.22,56.27-20.88,75.17C264.94,370.06,242.41,381.19,215,381.19z M215,178.51c-29.15,0-48.87,8.79-60.27,26.88
		c-9.38,14.88-13.75,36.63-13.75,68.46c0,46.09,19.44,95.34,74.01,95.34s74.01-49.25,74.01-95.34c0-31.82-4.37-53.58-13.75-68.46
		C263.87,187.3,244.15,178.51,215,178.51z"/>
	<g>
		<path class="st1" d="M197.29,290.47c-3.31,0-6-2.69-6-6v-5.53c0-2.88-1.29-5.57-3.54-7.37c-3.47-2.78-8.32-2.78-11.79,0
			c-2.25,1.8-3.54,4.49-3.54,7.37v5.53c0,3.31-2.69,6-6,6s-6-2.69-6-6v-5.53c0-6.55,2.93-12.65,8.05-16.75
			c7.88-6.3,18.89-6.3,26.77,0c5.12,4.09,8.05,10.19,8.05,16.75v5.53C203.29,287.79,200.6,290.47,197.29,290.47z"/>
		<path class="st1" d="M263.59,290.47c-3.31,0-6-2.69-6-6v-5.53c0-2.88-1.29-5.57-3.54-7.37c-3.47-2.78-8.32-2.78-11.79,0
			c-2.25,1.8-3.54,4.49-3.54,7.37v5.53c0,3.31-2.69,6-6,6s-6-2.69-6-6v-5.53c0-6.55,2.93-12.65,8.05-16.75
			c7.88-6.3,18.89-6.3,26.77,0c5.12,4.09,8.05,10.19,8.05,16.75v5.53C269.59,287.79,266.9,290.47,263.59,290.47z"/>
	</g>
	<g>
		<path class="st1" d="M230.44,344.39c-3.31,0-6-2.69-6-6v-5.53c0-2.88-1.29-5.57-3.54-7.37c-3.47-2.78-8.32-2.78-11.79,0
			c-2.25,1.8-3.54,4.49-3.54,7.37v5.53c0,3.31-2.69,6-6,6s-6-2.69-6-6v-5.53c0-6.55,2.93-12.65,8.05-16.75
			c7.88-6.3,18.89-6.3,26.77,0c5.12,4.09,8.05,10.19,8.05,16.75v5.53C236.44,341.7,233.75,344.39,230.44,344.39z"/>
		<path class="st1" d="M230.44,236.56c-3.31,0-6-2.69-6-6v-5.53c0-2.88-1.29-5.57-3.54-7.37c-3.47-2.78-8.32-2.78-11.79,0
			c-2.25,1.8-3.54,4.49-3.54,7.37v5.53c0,3.31-2.69,6-6,6s-6-2.69-6-6v-5.53c0-6.55,2.93-12.65,8.05-16.75
			c7.88-6.3,18.89-6.3,26.77,0c5.12,4.09,8.05,10.19,8.05,16.75v5.53C236.44,233.87,233.75,236.56,230.44,236.56z"/>
	</g>
</g>
</svg>
