<svg xmlns="http://www.w3.org/2000/svg" width="500" height="500" style="width:100%;height:100%;content-visibility:visible"><defs><clipPath id="a"><path d="M0 0h500v500H0z"/></clipPath></defs><g clip-path="url(#a)"><path stroke-linecap="round" stroke-linejoin="round" stroke="#FFF" stroke-width="12.25" d="M370.885 337.369c-37.26 17.935-79.105 27.76-123.257 27.282-44.151-.48-85.74-11.217-122.602-29.956" fill="none" display="block"/><path stroke-linecap="round" stroke-linejoin="round" stroke="#FFF" stroke-width="12.25" d="M105.626 373c42.535 21.638 90.583 34.021 141.536 34.575 50.952.555 99.257-10.81 142.286-31.487l-18.56-38.718L250.652 86.822" fill="none" display="block"/><path stroke-linecap="round" stroke-linejoin="round" stroke="#FFF" stroke-width="12.25" d="M104.952 372.944l9.748-19.129 20.875-40.955 12.618-24.753c6.14-12.047 11.181-21.933 11.249-22.064 0 0 0 0 0 0 .067-.13.138-.263.157-.297 0 0 0 0 0 0 .02-.033 4.114-8.072 9.138-17.938 0 0 0 0 0 0l9.11-17.888s0 0 0 0l.149-.292s0 0 0 0c.078-.155 4.083-8.02 8.938-17.55 0 0 0 0 0 0l8.939-17.547s0 0 0 0l.146-.286s0 0 0 0l9.1-17.86s0 0 0 0l9.105-17.87s0 0 0 0l.179-.35s0 0 0 0l11.294-22.163 24.926-48.908M281.848 306.43c-10.25-5.223-14.325-17.763-9.102-28.014 5.222-10.25 17.763-14.325 28.014-9.102 10.25 5.223 14.325 17.763 9.102 28.014-5.223 10.25-17.763 14.325-28.014 9.102zM197.085 309.817c-10.25-5.223-14.325-17.764-9.102-28.014 5.223-10.25 17.763-14.325 28.014-9.103 10.25 5.223 14.328 17.766 9.106 28.016-5.223 10.251-17.767 14.324-28.018 9.101zM239.911 225.766c-10.25-5.223-14.325-17.763-9.102-28.014 5.223-10.25 17.763-14.325 28.014-9.102 10.25 5.223 14.329 17.765 9.106 28.015-5.223 10.251-17.767 14.324-28.018 9.101z" fill="none" display="block"/></g></svg>