<svg xmlns="http://www.w3.org/2000/svg" width="500" height="500" style="width:100%;height:100%;content-visibility:visible"><defs><clipPath id="c"><path d="M0 0h500v500H0z"/></clipPath><clipPath id="e"><path d="M0 0h500v500H0z"/></clipPath><filter id="a" filterUnits="objectBoundingBox" x="0%" y="0%" width="100%" height="100%"><feComponentTransfer in="SourceGraphic"><feFuncA type="table" tableValues="1.0 0.0"/></feComponentTransfer></filter><filter id="b" filterUnits="objectBoundingBox" x="0%" y="0%" width="100%" height="100%"><feComponentTransfer in="SourceGraphic"><feFuncA type="table" tableValues="1.0 0.0"/></feComponentTransfer></filter><mask id="d"><g filter="url(#a)"><g display="block"><path fill="red" d="M44.2-28.159c6.97-12.16 20.93-19.41 35.62-17.14 19.05 2.93 32.11 20.76 29.18 39.81-2.94 19.05-20.77 32.12-39.82 29.18a34.636 34.636 0 01-18.62-9.11m-33.71 17.38c2.53 5.83 3.5 12.43 2.46 19.18-2.94 19.05-20.76 32.11-39.81 29.18-19.05-2.94-32.12-20.76-29.18-39.82a34.68 34.68 0 0110.856-20.357c.274-.252-13.729-20.625-13.447-20.868l39.646-30.526 13.875 5 53.25-2.5L65.125-10 61 14.75l-7.5-.375L29 20.75 13.5 35.5M-12.31 9.781c-.42.4-.85.79-1.29 1.17-6.58 5.68-15.23 8.88-24.39 8.45-1.23-.05-2.48-.18-3.73-.37-19.06-2.94-32.12-20.77-29.18-39.82 2.93-19.05 20.76-32.11 39.81-29.18 12.81 1.98 22.91 10.68 27.25 21.96M-14.235-8.083c2.937-19.052 20.762-32.116 39.814-29.179C44.631-34.325 57.695-16.5 54.758 2.552c-2.937 19.052-20.762 32.116-39.814 29.179-19.052-2.937-32.116-20.762-29.179-39.814z" transform="translate(250 250)"/><path stroke-linecap="round" stroke-linejoin="round" fill-opacity="0" stroke="#121331" stroke-width="0" d="M294.2 221.841c6.97-12.16 20.93-19.41 35.62-17.14 19.05 2.93 32.11 20.76 29.18 39.81-2.94 19.05-20.77 32.12-39.82 29.18a34.636 34.636 0 01-18.62-9.11"/><path stroke-linecap="round" stroke-linejoin="round" fill-opacity="0" stroke="#121331" stroke-width="0" d="M266.85 281.961c2.53 5.83 3.5 12.43 2.46 19.18-2.94 19.05-20.76 32.11-39.81 29.18-19.05-2.94-32.12-20.76-29.18-39.82a34.68 34.68 0 0110.856-20.357c.274-.252-13.729-20.625-13.447-20.868l39.646-30.526 13.875 5 53.25-2.5L315.125 240 311 264.75l-7.5-.375-24.5 6.375-15.5 14.75"/><path stroke-linecap="round" stroke-linejoin="round" fill-opacity="0" stroke="#121331" stroke-width="0" d="M237.69 259.781c-.42.4-.85.79-1.29 1.17-6.58 5.68-15.23 8.88-24.39 8.45-1.23-.05-2.48-.18-3.73-.37-19.06-2.94-32.12-20.77-29.18-39.82 2.93-19.05 20.76-32.11 39.81-29.18 12.81 1.98 22.91 10.68 27.25 21.96"/><path stroke-linecap="round" stroke-linejoin="round" fill-opacity="0" stroke="#121331" stroke-width="0" d="M235.765 241.917c2.937-19.052 20.762-32.116 39.814-29.179 19.052 2.937 32.116 20.762 29.179 39.814-2.937 19.052-20.762 32.116-39.814 29.179-19.052-2.937-32.116-20.762-29.179-39.814z"/></g></g></mask><mask id="f"><g filter="url(#b)"><g display="block"><path fill="red" d="M-98.142-100.311c-3.361 7.462-4.503 15.15-1.768 24.053 5.843 19.021 30.166 31.741 48.172 35.751 1.719.383 3.48.717 5.03 1.554 4.14 2.236 6.691 7.79 7.707 12.194.342 1.481.264 17.544-2.478 16.654 14.503 4.71 30.922-.679 39.618-14.086C4.632-34.202 5.492-47.233.28-57.987c-5.873-12.117-18.55-18.716-29.571-25.352-12.991-7.823-26.925-15.546-38.829-24.976-9.219-7.303-11.732-20.602-5.232-30.623l.834-1.286c-1.2-.185-9.054 13.5-10.114 15.077-3.73 5.553-7.446 11.117-11.052 16.752-1.726 2.697-3.238 5.375-4.458 8.084z" transform="translate(250 250)"/><path stroke-linecap="round" stroke-linejoin="round" fill-opacity="0" stroke="#08A88A" stroke-width="0" d="M151.858 149.689c-3.361 7.462-4.503 15.15-1.768 24.053 5.843 19.021 30.166 31.741 48.172 35.751 1.719.383 3.48.717 5.03 1.554 4.14 2.236 6.691 7.79 7.707 12.194.342 1.481.264 17.544-2.478 16.654 14.503 4.71 30.922-.679 39.618-14.086 6.493-10.011 7.353-23.042 2.141-33.796-5.873-12.117-18.55-18.716-29.571-25.352-12.991-7.823-26.925-15.546-38.829-24.976-9.219-7.303-11.732-20.602-5.232-30.623l.834-1.286c-1.2-.185-9.054 13.5-10.114 15.077-3.73 5.553-7.446 11.117-11.052 16.752-1.726 2.697-3.238 5.375-4.458 8.084z"/></g></g></mask></defs><g clip-path="url(#c)"><g mask="url(#d)" display="block"><g clip-path="url(#e)"><g mask="url(#f)" display="block"><path stroke-linecap="round" stroke-linejoin="round" stroke="#FFF" stroke-width="12.6" d="M192.74 368.421c2.44 12.86 12.04 23.81 25.55 27.31 16.2 4.19 32.7-3.71 39.93-18.07M230.36 348.151v.01c1.97 14.46 12.94 26.58 27.86 29.5.46.09.93.18 1.41.25 19.05 2.94 36.87-10.13 39.81-29.18.92-5.97.27-11.82-1.65-17.12" fill="none"/><path stroke-linecap="round" stroke-linejoin="round" stroke="#FFF" stroke-width="12.6" d="M202.86 299.381c.3.03.61.07.91.12 15.02 2.31 26.31 13.88 28.98 28.01.11.58.21 1.16.29 1.75.45 3.26.44 6.63-.09 10.05-.48 3.12-1.36 6.08-2.59 8.84v.01c-6.23 14.06-21.31 22.79-37.23 20.33-.13-.02-.26-.04-.39-.07-18.84-3.12-31.7-20.82-28.79-39.74a34.659 34.659 0 018.36-17.81" fill="none"/><path stroke-linecap="round" stroke-linejoin="round" stroke="#FFF" stroke-width="12.6" d="M186.89 242.861c16.36 4.96 27 21.32 24.32 38.71-1.06 6.87-4.05 12.97-8.35 17.81-7.42 8.37-18.7 13.01-30.55 11.49-.3-.03-.61-.07-.91-.12-19.05-2.94-32.12-20.77-29.18-39.82 1.66-10.78 8.09-19.64 16.81-24.77M326.31 274.051c6.4 7.46 9.63 17.57 8.01 28.04-2.77 17.96-18.76 30.6-36.53 29.52-.01.01-.02 0-.02 0-1.08-.06-2.17-.17-3.26-.34-13.09-2.01-23.35-11.05-27.53-22.69a34.65 34.65 0 01-1.65-17.12c2.56-16.65 16.5-28.72 32.69-29.54" fill="none"/><path stroke-linecap="round" stroke-linejoin="round" stroke="#FFF" stroke-width="12.6" d="M134.705 207.45c-2.937 19.052 10.127 36.877 29.179 39.814 19.052 2.937 36.877-10.127 39.814-29.179 2.937-19.052-10.127-36.877-29.179-39.814-19.052-2.937-36.877 10.127-39.814 29.179z" fill="none"/></g><path stroke-linecap="round" stroke-linejoin="round" stroke="#FFF" stroke-width="12.6" d="M278 103.321a266.824 266.824 0 00-17 47 267.258 267.258 0 00-8.496 64.797" fill="none" display="block"/><path stroke-linecap="round" stroke-linejoin="round" stroke="#FFF" stroke-width="12.6" d="M151.858 149.689c-3.361 7.462-4.503 15.15-1.768 24.053 5.843 19.021 30.166 31.741 48.172 35.751 1.719.383 3.48.717 5.03 1.554 4.14 2.236 6.691 7.79 7.707 12.194.342 1.481.264 17.544-2.478 16.654 14.503 4.71 30.922-.679 39.618-14.086 6.493-10.011 7.353-23.042 2.141-33.796-5.873-12.117-18.55-18.716-29.571-25.352-12.991-7.823-26.925-15.546-38.829-24.976-9.219-7.303-11.732-20.602-5.232-30.623l.834-1.286c-1.2-.185-9.054 13.5-10.114 15.077-3.73 5.553-7.446 11.117-11.052 16.752-1.726 2.697-3.238 5.375-4.458 8.084z" fill="none" display="block"/><path stroke-linecap="round" stroke-linejoin="round" stroke="#FFF" stroke-width="12.6" d="M358.118 141.821c2.99 10.825 6.251 21.36 9.705 32.04 4.928 15.235 1.491 29.311-13.942 36.166-4.093 1.818-52.289 16.463-52.495 15.717l.01.037c-10.294 4.18-16.247 15.322-13.816 26.3-15.249.124-29.282-9.959-33.537-25.362-4.775-17.287 4.476-35.136 20.885-41.438 13.978-5.368 29.81-6.162 44.295-9.78 13.214-3.3 32.642-8.498 37.555-23.14 1.626-4.847.271-9.365.011-14.062.573 1.124.993 2.304 1.329 3.522z" fill="none" display="block"/></g></g><g display="block"><path stroke-linecap="round" stroke-linejoin="round" stroke="#FFF" stroke-width="12.6" d="M294.2 221.841c6.97-12.16 20.93-19.41 35.62-17.14 19.05 2.93 32.11 20.76 29.18 39.81-2.94 19.05-20.77 32.12-39.82 29.18a34.636 34.636 0 01-18.62-9.11M266.85 281.961c2.53 5.83 3.5 12.43 2.46 19.18-2.94 19.05-20.76 32.11-39.81 29.18-19.05-2.94-32.12-20.76-29.18-39.82 1.31-8.54 5.62-15.87 11.69-21.1h.01" fill="none"/><path stroke-linecap="round" stroke-linejoin="round" stroke="#FFF" stroke-width="12.6" d="M237.69 259.781c-.42.4-.85.79-1.29 1.17-6.58 5.68-15.23 8.88-24.39 8.45-1.23-.05-2.48-.18-3.73-.37-19.06-2.94-32.12-20.77-29.18-39.82 2.93-19.05 20.76-32.11 39.81-29.18 12.81 1.98 22.91 10.68 27.25 21.96" fill="none"/><path stroke-linecap="round" stroke-linejoin="round" stroke="#FFF" stroke-width="12.6" d="M235.765 241.917c-2.937 19.052 10.127 36.877 29.179 39.814 19.052 2.937 36.877-10.127 39.814-29.179 2.937-19.052-10.127-36.877-29.179-39.814-19.052-2.937-36.877 10.127-39.814 29.179z" fill="none"/></g></g></svg>