<svg xmlns="http://www.w3.org/2000/svg" width="500" height="500" style="width:100%;height:100%;content-visibility:visible"><defs><clipPath id="a"><path d="M0 0h500v500H0z"/></clipPath></defs><g display="block" clip-path="url(#a)"><path stroke-linecap="round" stroke-linejoin="round" stroke="#FFF" stroke-width="12.6" d="M402 221.791c0 .181 0 .35-.012.531-.06 9.667-1.931 18.971-5.358 27.684-14.144 36.072-54.669 62.115-102.459 62.115-18.488 0-37.013-3.935-53.691-11.972-11.296-5.443-21.771-12.876-33.803-16.714-13.202-4.2-26.007-1.798-39.535-1.798-26.671 0-49.914-12.117-62.091-30.038-5.298-7.796-8.496-16.679-8.979-26.152a43.915 43.915 0 01-.072-2.522c0-21.119 14.446-38.316 32.15-48.212 15.833-8.846 33.585-9.136 51.193-10.282 18.247-1.183 34.43-5.467 50.36-14.711 20.045-11.622 41.008-18.259 64.468-18.259 59.544 0 107.829 40.44 107.829 90.33z" fill="none"/><path stroke-linecap="round" stroke-linejoin="round" stroke="#FFF" stroke-width="12.6" d="M401.988 222.322H402v55.887c0 49.89-48.285 90.33-107.829 90.33-18.488 0-37.013-3.934-53.691-11.971-11.296-5.443-21.771-12.877-33.803-16.715-13.202-4.2-26.007-1.798-39.535-1.798-38.268 0-69.477-24.933-71.07-56.189v-56.419" fill="none"/><path stroke-linecap="round" stroke-linejoin="round" stroke="#FFF" stroke-width="12.6" d="M190 222.999c0 9.021-10.671 16.333-23.834 16.333s-23.833-7.312-23.833-16.333c0-9.021 10.67-16.333 23.833-16.333 13.163 0 23.834 7.312 23.834 16.333zM336.882 260.51l-98.545-24.977M328.394 222.934l-64.276-16.291M325.258 185.67l-32.466-8.229" fill="none"/></g></svg>