<?xml version="1.0" encoding="utf-8"?>
<!-- Generator: Adobe Illustrator 25.0.1, SVG Export Plug-In . SVG Version: 6.00 Build 0)  -->
<svg version="1.1" id="Layer_1" xmlns="http://www.w3.org/2000/svg" xmlns:xlink="http://www.w3.org/1999/xlink" x="0px" y="0px"
	 viewBox="0 0 430 430" style="enable-background:new 0 0 430 430;" xml:space="preserve">
<style type="text/css">
	.st0{fill:none;stroke:#FFFFFF;stroke-width:12;stroke-linecap:round;stroke-linejoin:round;stroke-miterlimit:10;}
	.st1{fill:#FFFFFF;}
	.st2{fill:#FFFFFF;}
</style>
<path class="st0" d="M207.2,132.5"/>
<path class="st1" d="M176.1,370.8c-19.4,0-37.5-11.4-46.4-30.6c-2-4.3-3.5-8.9-4.5-13.8c-4.2-20.5-8.8-41.2-13.3-61.2
	c-1-4.6-2-9.1-3.1-13.7l-0.6-2.8c-4.7-20.8-9.9-44.3-4.3-67.4c5.1-21,20.5-38.8,41.3-47.5c4.2-1.8,8.6-3.3,13.2-4.5
	c3.2-0.9,6.5,1,7.3,4.2c0.9,3.2-1,6.5-4.2,7.3c-4.1,1.1-8,2.4-11.7,4c-17.3,7.2-30.1,21.9-34.3,39.2c-4.9,20.4-0.2,41.5,4.4,61.9
	l0.6,2.8c1,4.6,2,9.1,3.1,13.7c4.5,20.1,9.2,40.9,13.4,61.5c0.8,3.9,2,7.7,3.6,11.1c8.7,18.8,28.8,27.9,47.8,21.6
	c11.1-3.7,18.9-12.3,27.9-22.3l0.2-0.2c13.6-15,27.5-29.9,41.5-44.1c2.2-2.2,4.4-4.4,6.6-6.6c12-12,24.4-24.3,30.6-40.1
	c1.1-2.8,2-5.7,2.7-8.6c4.4-18.4,0.5-38.6-10.1-52.6c-2.3-3-4.8-6-7.6-8.8c-2.3-2.4-2.3-6.2,0.1-8.5c2.4-2.3,6.2-2.3,8.5,0.1
	c3.1,3.2,6,6.5,8.6,9.9c12.7,16.8,17.4,40.8,12.2,62.6c-0.8,3.5-1.9,7-3.3,10.3c-7.2,18-20.5,31.3-33.3,44.1
	c-2.2,2.2-4.3,4.3-6.5,6.5c-13.8,14.2-27.7,28.9-41.1,43.8l-0.2,0.2c-9.3,10.3-18.9,21-33,25.7C186.8,370,181.4,370.8,176.1,370.8z"
	/>
<path class="st0" d="M245.4,143"/>
<path class="st1" d="M264,230.6c-0.6,0-1.1-0.1-1.7-0.2c-3.2-0.9-5-4.3-4.1-7.4l1.7-5.8c0.9-3.2,4.2-5,7.4-4.1
	c3.2,0.9,5,4.3,4.1,7.4l-1.7,5.8C269,228.9,266.6,230.6,264,230.6z"/>
<path class="st1" d="M213.6,195.4c-0.6,0-1.1-0.1-1.7-0.2c-3.2-0.9-5-4.3-4.1-7.4l1.7-5.8c0.9-3.2,4.3-5,7.4-4.1
	c3.2,0.9,5,4.3,4.1,7.4l-1.7,5.8C218.6,193.7,216.2,195.4,213.6,195.4z"/>
<path class="st1" d="M180.1,313.1c-0.6,0-1.1-0.1-1.7-0.2c-3.2-0.9-5-4.2-4.1-7.4l1.7-5.8c0.9-3.2,4.2-5,7.4-4.1
	c3.2,0.9,5,4.3,4.1,7.4l-1.7,5.8C185.1,311.4,182.7,313.1,180.1,313.1z"/>
<path class="st1" d="M165.7,250.8c-0.6,0-1.1-0.1-1.7-0.2c-3.2-0.9-5-4.2-4.1-7.4l1.7-5.8c0.9-3.2,4.2-5,7.4-4.1
	c3.2,0.9,5,4.3,4.1,7.4l-1.7,5.8C170.7,249.1,168.3,250.8,165.7,250.8z"/>
<path class="st1" d="M218.2,266.1c-0.6,0-1.1-0.1-1.7-0.2c-3.2-0.9-5-4.2-4.1-7.4l1.7-5.8c0.9-3.2,4.3-5,7.4-4.1
	c3.2,0.9,5,4.3,4.1,7.4l-1.7,5.8C223.2,264.4,220.8,266.1,218.2,266.1z"/>
<path class="st1" d="M152.1,196.5c-0.6,0-1.1-0.1-1.7-0.2c-3.2-0.9-5-4.3-4.1-7.4l1.7-5.8c0.9-3.2,4.3-5,7.4-4.1
	c3.2,0.9,5,4.2,4.1,7.4l-1.7,5.8C157.1,194.8,154.7,196.5,152.1,196.5z"/>
<g>
	<path class="st2" d="M218.9,171c-1.7,0-3.3-0.7-4.4-2c-12.7-14-16.7-38.2-10.3-61.7c6.4-23.5,22.2-42.3,40.3-47.9
		c2.2-0.7,4.7,0,6.2,1.7c12.7,14,16.7,38.2,10.3,61.7c0,0,0,0,0,0c-6.4,23.5-22.2,42.3-40.3,47.9C220.1,170.9,219.5,171,218.9,171z
		 M244.3,72.3c-12.7,5.8-23.6,20.2-28.5,38.2c-4.9,17.9-2.9,36,5.1,47.4c12.7-5.8,23.6-20.2,28.5-38.2v0
		C254.3,101.8,252.2,83.7,244.3,72.3z M255.2,121.3L255.2,121.3L255.2,121.3z"/>
	<path class="st2" d="M203.3,170.3c-0.1,0-0.2,0-0.3,0c-18.8-0.9-38.8-15.2-50.9-36.4c-12.1-21.2-14.2-45.6-5.4-62.3
		c1.1-2.1,3.3-3.3,5.6-3.2c18.8,0.9,38.8,15.2,50.9,36.4c12.1,21.2,14.2,45.6,5.4,62.3C207.6,169.1,205.5,170.3,203.3,170.3z
		 M155.7,80.8c-4.9,13-2.4,31,6.8,47.2c9.2,16.1,23.4,27.5,37.1,29.9c4.9-13,2.4-31-6.8-47.1c0,0,0,0,0,0
		C183.6,94.6,169.4,83.2,155.7,80.8z"/>
	<path class="st2" d="M253.6,182.8c-8.7,0-16.9-1.8-23.7-5.4c-2.1-1.1-3.3-3.3-3.2-5.6C227.6,153,241.8,133,263,121
		c21.2-12.1,45.7-14.2,62.3-5.4c2.1,1.1,3.3,3.3,3.2,5.6c-0.9,18.8-15.2,38.8-36.4,50.9C279.7,179.2,266.1,182.8,253.6,182.8z
		 M239.1,168.5c13,4.9,31,2.4,47.2-6.8c16.1-9.2,27.5-23.4,29.9-37.1c-13-4.9-31-2.4-47.1,6.8C252.8,140.6,241.5,154.8,239.1,168.5z
		"/>
</g>
</svg>
