<svg xmlns="http://www.w3.org/2000/svg" width="500" height="500" style="width:100%;height:100%;content-visibility:visible"><defs><clipPath id="d"><path d="M0 0h500v500H0z"/></clipPath><clipPath id="f"><path d="M0 0h500v500H0z"/></clipPath><clipPath id="h"><path d="M0 0h500v500H0z"/></clipPath><filter id="a" filterUnits="objectBoundingBox" x="0%" y="0%" width="100%" height="100%"><feComponentTransfer in="SourceGraphic"><feFuncA type="table" tableValues="1.0 0.0"/></feComponentTransfer></filter><filter id="b" filterUnits="objectBoundingBox" x="0%" y="0%" width="100%" height="100%"><feComponentTransfer in="SourceGraphic"><feFuncA type="table" tableValues="1.0 0.0"/></feComponentTransfer></filter><filter id="c" filterUnits="objectBoundingBox" x="0%" y="0%" width="100%" height="100%"><feComponentTransfer in="SourceGraphic"><feFuncA type="table" tableValues="1.0 0.0"/></feComponentTransfer></filter><mask id="e"><g filter="url(#a)"><g display="block"><path fill="red" d="M90.673 32.219c-7.924 19.855-24.193 34.009-38.49 48.648a1530.952 1530.952 0 00-41.281 43.975c-9.275 10.279-17.94 19.943-30.62 24.147-21.784 7.222-45.143-3.148-55.122-24.82-1.802-3.913-3.151-8.115-4.033-12.465-5.119-25.127-10.824-50.053-16.391-75.025-4.773-21.41-10.485-44.718-4.986-67.433 4.998-20.645 20.261-36.017 37.809-43.356 21.924-9.165 50.238-10.922 78.995-3.047 28.478 7.798 51.761 23.493 65.998 42.313C94.057-19.636 98.553 2.197 93.664 22.782a67.582 67.582 0 01-2.991 9.437z" transform="translate(250 250)"/></g></g></mask><mask id="g"><g filter="url(#b)"><g display="block"><path stroke-linecap="round" stroke-linejoin="round" fill-opacity="0" stroke="#08A88A" stroke-width="0" d="M306.05 162.622c-20.069 11.44-32.563 29.642-33.365 45.983 14.469 7.635 36.498 6.157 56.567-5.283 20.069-11.441 32.563-29.642 33.365-45.983-14.469-7.635-36.498-6.158-56.567 5.283z"/><path fill="red" d="M56.05-87.378c-20.069 11.44-32.563 29.642-33.365 45.983 14.469 7.635 36.498 6.157 56.567-5.283 20.069-11.441 32.563-29.642 33.365-45.983-14.469-7.635-36.498-6.158-56.567 5.283z" transform="translate(250 250)"/></g></g></mask><mask id="i"><g filter="url(#c)"><g display="block"><path stroke-linecap="round" stroke-linejoin="round" fill-opacity="0" stroke="#08A88A" stroke-width="0" d="M295.211 157.754c-6.101 22.281-20.632 38.902-36.262 43.735-10.987-12.122-15.023-33.827-8.922-56.108 6.101-22.281 20.632-38.902 36.262-43.735 10.987 12.122 15.023 33.827 8.922 56.108z"/><path fill="red" d="M45.211-92.246C39.11-69.965 24.579-53.344 8.949-48.511-2.038-60.633-6.074-82.338.027-104.619c6.101-22.281 20.632-38.902 36.262-43.735 10.987 12.122 15.023 33.827 8.922 56.108z" transform="translate(250 250)"/></g></g></mask></defs><g clip-path="url(#d)"><g mask="url(#e)" display="block"><g clip-path="url(#f)"><g mask="url(#g)" display="block"><g clip-path="url(#h)"><g mask="url(#i)" display="block"><path stroke-linecap="round" stroke-linejoin="round" stroke="#08A88A" stroke-width="12.6" d="M238.095 144.19c11.44 20.069 12.918 42.098 5.283 56.567-16.341-.802-34.543-13.297-45.983-33.366-11.441-20.069-12.918-42.097-5.283-56.566 16.341.802 34.542 13.296 45.983 33.365z" fill="none"/></g><path stroke-linecap="round" stroke-linejoin="round" stroke="#08A88A" stroke-width="12.6" d="M295.211 157.754c-6.101 22.281-20.632 38.902-36.262 43.735-10.987-12.122-15.023-33.827-8.922-56.108 6.101-22.281 20.632-38.902 36.262-43.735 10.987 12.122 15.023 33.827 8.922 56.108z" fill="none" display="block"/></g></g><path stroke-linecap="round" stroke-linejoin="round" stroke="#08A88A" stroke-width="12.6" d="M306.05 162.622c-20.069 11.44-32.563 29.642-33.365 45.983 14.469 7.635 36.498 6.157 56.567-5.283 20.069-11.441 32.563-29.642 33.365-45.983-14.469-7.635-36.498-6.158-56.567 5.283z" fill="none" display="block"/></g></g><g display="block"><path stroke-linecap="round" stroke-linejoin="round" stroke="#121331" stroke-width="12.6" d="M340.673 282.219c-7.924 19.855-24.193 34.009-38.49 48.648a1530.952 1530.952 0 00-41.281 43.975c-9.275 10.279-17.94 19.943-30.62 24.147-21.784 7.222-45.143-3.148-55.122-24.82-1.802-3.913-3.151-8.115-4.033-12.465-5.119-25.127-10.824-50.053-16.391-75.025-4.773-21.41-10.485-44.718-4.986-67.433 4.998-20.645 20.261-36.017 37.809-43.356 21.924-9.165 50.238-10.922 78.995-3.047 28.478 7.798 51.761 23.493 65.998 42.313 11.505 15.208 16.001 37.041 11.112 57.626a67.582 67.582 0 01-2.991 9.437zM305.741 255.277l-1.682 5.804M255.326 220.041l-1.682 5.803M221.879 337.737l-1.682 5.803M207.408 275.478l-1.683 5.803M259.892 290.784l-1.682 5.803M193.828 221.155l-1.683 5.803" fill="none"/></g></g></svg>