<?xml version="1.0" encoding="utf-8"?>
<!-- Generator: Adobe Illustrator 25.0.1, SVG Export Plug-In . SVG Version: 6.00 Build 0)  -->
<svg version="1.1" id="Layer_1" xmlns="http://www.w3.org/2000/svg" xmlns:xlink="http://www.w3.org/1999/xlink" x="0px" y="0px"
	 viewBox="0 0 430 430" style="enable-background:new 0 0 430 430;" xml:space="preserve">
<style type="text/css">
	.st0{fill:#FFFFFF;}
	.st1{fill:#FFFFFF;}
</style>
<g>
	<path class="st0" d="M208.3,304.8c-53.7,0-105-31.2-127.9-83.5c-0.6-1.5-0.7-3.1-0.1-4.6c0.6-1.5,1.7-2.7,3.2-3.3l244.3-106.8
		c1.5-0.6,3.1-0.7,4.6-0.1c1.5,0.6,2.7,1.7,3.3,3.2c30.8,70.4-1.5,152.7-71.9,183.4C245.8,301.1,226.9,304.8,208.3,304.8z
		 M93.9,221.9c29.9,60.5,102.6,87.5,165.1,60.2c62.5-27.3,92.1-99,68-162.1L93.9,221.9z"/>
	<path class="st0" d="M208.1,336.6c-21.1,0-42.2-4-62.4-11.9c-42.5-16.7-76-48.9-94.3-90.7c-1.3-3,0.1-6.6,3.1-7.9l29-12.7
		c1.5-0.6,3.1-0.7,4.6-0.1c1.5,0.6,2.7,1.7,3.3,3.2c28.1,64.3,103.3,93.8,167.6,65.7c64.3-28.1,93.8-103.3,65.7-167.6
		c-1.3-3,0.1-6.6,3.1-7.9l29-12.7c1.5-0.6,3.1-0.7,4.6-0.1c1.5,0.6,2.7,1.7,3.3,3.2c37.7,86.4-1.8,187.4-88.2,225.1
		C254.6,331.8,231.4,336.6,208.1,336.6z M64.9,234.6c17.5,36.3,47.5,64.1,85.2,78.9c39.5,15.5,82.7,14.7,121.7-2.3
		c78.5-34.3,115.4-124.7,84.3-203.8l-18,7.9c26.8,69.1-5.6,147.9-74.2,177.9c-18.1,7.9-37,11.6-55.6,11.7
		c-51.8,0-101.4-29.1-125.3-78.1L64.9,234.6z"/>
</g>
<path class="st1" d="M242.4,247.5c-2.3,0-4.5-1.3-5.5-3.6l-3.8-8.7c-1.3-3,0.1-6.6,3.1-7.9c3-1.3,6.6,0.1,7.9,3.1l3.8,8.7
	c1.3,3-0.1,6.6-3.1,7.9C244,247.3,243.2,247.5,242.4,247.5z"/>
<g>
	<path class="st1" d="M166.3,243c-2.3,0-4.5-1.3-5.5-3.6l-3.8-8.7c-1.3-3,0.1-6.6,3.1-7.9c3-1.3,6.6,0.1,7.9,3.1l3.8,8.7
		c1.3,3-0.1,6.6-3.1,7.9C167.9,242.8,167.1,243,166.3,243z"/>
	<path class="st1" d="M288.9,189.4c-2.3,0-4.5-1.3-5.5-3.6l-3.8-8.7c-1.3-3,0.1-6.6,3.1-7.9c3-1.3,6.6,0.1,7.9,3.1l3.8,8.7
		c1.3,3-0.1,6.6-3.1,7.9C290.5,189.2,289.7,189.4,288.9,189.4z"/>
</g>
</svg>
