<svg xmlns="http://www.w3.org/2000/svg" width="500" height="500" style="width:100%;height:100%;content-visibility:visible"><defs><clipPath id="a"><path d="M0 0h500v500H0z"/></clipPath></defs><g display="block" clip-path="url(#a)"><path stroke-linecap="round" stroke-linejoin="round" stroke="#FFF" stroke-width="12.6" d="M230.186 205.434l134.363-58.71s0 0 0 0c29.481 67.47-1.321 146.057-68.791 175.538-67.47 29.481-146.053-1.311-175.534-68.781l109.962-48.047" fill="none"/><path stroke-linecap="round" stroke-linejoin="round" stroke="#FFF" stroke-width="12.6" d="M393.569 134.044c36.48 83.488-1.634 180.755-85.131 217.239-83.488 36.48-180.755-1.634-217.235-85.122l29.021-12.68c29.481 67.47 108.064 98.262 175.534 68.781 67.47-29.481 98.272-108.068 68.791-175.538l29.02-12.68zM272.911 267.385l3.804 8.705" fill="none"/><g><path stroke-linecap="round" stroke-linejoin="round" stroke="#FFF" stroke-width="12.6" d="M196.818 262.837l3.804 8.705M319.378 209.285l3.804 8.705" fill="none"/></g></g></svg>