<svg id="图层_1" data-name="图层 1" xmlns="http://www.w3.org/2000/svg" viewBox="0 0 512 512">
  <defs>
    <style>.cls-1{fill:#df5b23;}</style>
  </defs>
  <path class="cls-1" d="M256,0C114.62,0,0,114.62,0,256S114.62,512,256,512,512,397.38,512,256,397.38,0,256,0ZM414.19,256A564.77,564.77,0,0,0,256,414.19h0l-.4-.4a562,562,0,0,0-70.87-86.53A562,562,0,0,0,98.2,256.4l-.4-.4.24-.24a561.53,561.53,0,0,0,86.72-71,561.53,561.53,0,0,0,71-86.72l.24-.24.4.4a562,562,0,0,0,70.87,86.53A562,562,0,0,0,413.8,255.6l.4.4Z" />
</svg>