<?xml version="1.0" encoding="utf-8"?>
<!-- Generator: Adobe Illustrator 25.0.1, SVG Export Plug-In . SVG Version: 6.00 Build 0)  -->
<svg version="1.1" id="Layer_1" xmlns="http://www.w3.org/2000/svg" xmlns:xlink="http://www.w3.org/1999/xlink" x="0px" y="0px"
	 viewBox="0 0 430 430" style="enable-background:new 0 0 430 430;" xml:space="preserve">
<style type="text/css">
	.st0{fill:#FFFFFF;}
	.st1{fill:#FFFFFF;}
</style>
<g id="_x35_43">
	<path class="st0" d="M198.4,125.3c-8.6,0-17.5-2.1-25.8-6.3c-16.9-8.6-28.3-24.3-29.7-41.2c-0.2-2.2,0.9-4.4,2.8-5.6
		c14.4-8.9,33.8-9.1,50.8-0.5c16.9,8.6,28.3,24.3,29.7,41.2c0.2,2.2-0.9,4.4-2.8,5.6C216,123.1,207.3,125.3,198.4,125.3z
		 M155.4,80.7c2.3,11.3,10.7,21.6,22.6,27.7c11.9,6,25.2,6.6,35.7,1.8c-2.3-11.3-10.7-21.6-22.6-27.7c0,0,0,0,0,0
		C179.2,76.4,165.9,75.8,155.4,80.7z"/>
	<path class="st1" d="M215,164.6c-2.4,0-4.6-1.4-5.6-3.8c-1.7-4.2-9.4-26.2,3.7-47.6c10.3-16.8,29.3-26.4,49.5-25
		c3.3,0.2,5.8,3.1,5.6,6.4s-3.1,5.8-6.4,5.6c-15.8-1.1-30.5,6.3-38.5,19.3c-10.3,16.8-3.6,34.9-2.8,36.9c1.2,3.1-0.3,6.6-3.4,7.8
		C216.5,164.5,215.7,164.6,215,164.6z"/>
	<path class="st1" d="M265.5,364.5c-8.7,0-17-1.9-24.8-5.5c-0.2-0.1-0.4-0.2-0.7-0.4c-1.7-1.1-3.5-2.1-5.2-2.9
		c-6.2-2.9-12.9-4.4-19.8-4.4c-6.9,0-13.5,1.5-19.6,4.3c-1.9,0.9-3.7,1.9-5.5,3c-0.2,0.1-0.4,0.3-0.7,0.4
		c-7.8,3.6-16.1,5.5-24.7,5.5c-22.7,0-44.8-14.6-63.9-42.3c-15.8-22.9-24.5-50.9-24.5-78.9c0-24.2,6.7-50,18-69.2
		c14.5-24.5,35.2-37.4,59.9-37.4c5.7,0,11.4,0.7,16.8,2.2c5.1,1.4,8.8,3,10.4,3.7l0.2,0.1c9.4,4.2,22.3,10,34.4,9.8
		c11.7-0.2,24.6-6.1,32.2-9.6l0.2-0.1c1.6-0.7,4.9-2.3,9.6-3.6c0.4-0.1,9-2.5,18.1-2.5c53.7,0,77.8,62.3,77.8,106.6
		c0,25.9-7.7,52.3-21.7,74.4C312.9,348.3,289.8,364.5,265.5,364.5z M246.1,348.3c6.1,2.8,12.6,4.2,19.4,4.2
		c25.2,0,44.7-22.4,56.6-41.2c12.8-20.2,19.8-44.4,19.8-68c0-39.3-20.4-94.6-65.8-94.6c-7.4,0-14.7,2.1-14.8,2.1
		c-3.8,1.1-6.6,2.4-7.9,3l-0.2,0.1c-8.5,3.9-22.8,10.5-37.1,10.7c-14.8,0.2-29.7-6.5-39.5-10.9l-0.2-0.1c-1.4-0.6-4.4-2-8.6-3.1
		c-4.5-1.2-9.1-1.8-13.7-1.8c-25.6,0-41.1,17.1-49.6,31.5c-10.3,17.4-16.4,40.9-16.4,63.1c0,25.5,8,51.1,22.4,72.1
		c11.7,16.9,30.6,37.1,54.1,37.1c6.7,0,13.2-1.4,19.3-4.2c2.1-1.3,4.3-2.5,6.5-3.5c7.7-3.6,16.1-5.5,24.7-5.5
		c8.7,0,17.1,1.9,24.9,5.5C241.9,345.9,244,347,246.1,348.3z"/>
	<path class="st1" d="M123,244.1c-3,0-5.6-2.3-6-5.3c-0.9-8.2-1.1-24.3,8.3-40.6c7.1-12.4,16.8-19.9,23.6-24
		c2.8-1.7,6.5-0.8,8.2,2.1c1.7,2.8,0.8,6.5-2.1,8.2c-5.6,3.4-13.6,9.5-19.4,19.7c-7.6,13.4-7.5,26.6-6.7,33.4c0.4,3.3-2,6.3-5.3,6.6
		C123.4,244.1,123.2,244.1,123,244.1z"/>
</g>
</svg>
