<?xml version="1.0" encoding="utf-8"?>
<!-- Generator: Adobe Illustrator 25.0.1, SVG Export Plug-In . SVG Version: 6.00 Build 0)  -->
<svg version="1.1" id="Layer_1" xmlns="http://www.w3.org/2000/svg" xmlns:xlink="http://www.w3.org/1999/xlink" x="0px" y="0px"
	 viewBox="0 0 430 430" style="enable-background:new 0 0 430 430;" xml:space="preserve">
<style type="text/css">
	.st0{fill:#FFFFFF;}
	.st1{fill:#FFFFFF;}
</style>
<g>
	<g>
		<path class="st0" d="M215,366.7L215,366.7c-27.7-0.1-53.8-5.9-77.4-17.4c-21.6-10.5-40.8-25.3-57-44.2
			c-29.9-34.9-47.1-80.3-47-124.7c0.1-32.8,9.5-61.1,27.4-81.9c19.8-23.1,49.2-35.3,84.8-35.3c42.2,0,76.7,15.5,97.2,43.7l0.2,0.3
			c0.2,0.2,0.4,0.5,0.5,0.7c13.7,19.5,18.8,42.4,14.6,66.4c-2.2,12.7-7.3,24.6-15.3,35.5c-2,2.7-5.7,3.3-8.4,1.3s-3.3-5.7-1.3-8.4
			c6.8-9.4,11.3-19.6,13.2-30.5c3.6-20.8-0.7-40.7-12.6-57.5c0,0,0-0.1-0.1-0.1c-0.1-0.2-0.2-0.3-0.4-0.5l-0.2-0.3
			c-24.4-33.7-65.3-38.7-87.4-38.7C72,75.3,45.6,129.6,45.6,180.4c-0.2,83.6,64.6,174,169.4,174.3c3.3,0,6,2.7,6,6
			C221,364.1,218.3,366.7,215,366.7z"/>
		<path class="st0" d="M215.1,192.1c-1.8,0-3.6-0.8-4.8-2.4c-12.3-16.5-12.4-39.3-0.3-59.5c1.7-2.8,5.4-3.8,8.2-2.1s3.8,5.4,2.1,8.2
			c-7.5,12.5-11.5,31.2-0.3,46.2c2,2.7,1.4,6.4-1.2,8.4C217.6,191.7,216.3,192.1,215.1,192.1z"/>
		<path class="st0" d="M316.6,241.4c-0.4,0-0.9,0-1.3-0.1c-1.9-0.4-47.3-10.7-80.1-29.7c-0.1,0-0.1-0.1-0.2-0.1
			c-1.9-1.2-18.3-11.8-24.9-22.2c-1.8-2.8-0.9-6.5,1.9-8.3c2.8-1.8,6.5-0.9,8.3,1.9c4.3,6.9,16.6,15.5,21.1,18.4
			c26.2,15.1,62.1,24.7,73.2,27.5c6.9-8.4,27-37.4,16.1-80.2c-3.9-15.4-15.7-24.3-25-29.1c-18.6-9.6-42.5-10.9-62.4-3.4
			c-0.6,0.2-1.3,0.5-2,0.8c-3,1.4-6.6,0-7.9-3c-1.3-3,0-6.6,3-7.9c0.9-0.4,1.8-0.8,2.6-1.1c23-8.8,50.6-7.3,72.2,3.9
			c16.1,8.4,27.1,21.4,31.1,36.8c14.5,57-19.9,92.6-21.4,94.1C319.7,240.8,318.1,241.4,316.6,241.4z"/>
		<path class="st0" d="M113.6,241.4c-1.6,0-3.1-0.6-4.3-1.8c-1.5-1.5-35.9-37.1-21.4-94.1c3.9-15.4,14.9-28.4,31.1-36.8
			c21.5-11.2,49.2-12.7,72.2-3.9c0.7,0.3,1.5,0.6,2.5,1c10.6,4.7,20,13.3,26.5,24.2c12.1,20.2,12,43-0.3,59.5
			c-2,2.7-5.7,3.2-8.4,1.2s-3.2-5.7-1.2-8.4c11.2-15,7.2-33.7-0.3-46.2c-5.3-8.8-12.8-15.7-21.1-19.4c-0.7-0.3-1.3-0.6-1.9-0.8
			c-19.9-7.6-43.8-6.3-62.4,3.4c-9.2,4.8-21,13.7-25,29.1c-10.9,42.9,9.2,71.9,16.1,80.2c11-2.6,47-11.9,73.2-27.4
			c2.9-1.7,6.5-0.8,8.2,2.1c1.7,2.9,0.8,6.5-2.1,8.2c-32.9,19.5-78.3,29.2-80.2,29.6C114.4,241.4,114,241.4,113.6,241.4z"/>
		<path class="st0" d="M215.1,299.3c-59.4,0-81.3-30.5-82.2-31.8c-1.2-1.7-1.4-3.8-0.6-5.7c0.8-1.9,2.4-3.2,4.4-3.6
			c0.4-0.1,40.8-8.2,73.5-31.1c0.7-0.5,1.4-1,2-1.5c2.6-2,6.4-1.6,8.4,1.1c2,2.6,1.6,6.4-1.1,8.4c-0.8,0.6-1.6,1.2-2.5,1.8
			c-24.7,17.3-52.8,26.5-67.6,30.5c9.4,7.9,29.7,19.8,65.6,19.8c3.3,0,6,2.7,6,6S218.4,299.3,215.1,299.3z"/>
		<path class="st0" d="M215.1,299.3c-3.3,0-6-2.7-6-6s2.7-6,6-6c35.9,0,56.8-12.1,66.8-20c-14.9-4.1-42.8-13.2-67.3-30.4
			c-9.6-6.8-19.6-16.5-27.3-26.7c-2-2.6-1.5-6.4,1.2-8.4c2.6-2,6.4-1.5,8.4,1.2c7,9.2,16,18,24.7,24.1c32.7,22.9,73.1,31,73.5,31.1
			c2,0.4,3.7,1.8,4.4,3.7c0.7,1.9,0.5,4.1-0.8,5.7C297.6,268.8,274.4,299.3,215.1,299.3z"/>
		<path class="st0" d="M215,366.7l-0.1-6v-6c104.9-0.4,169.6-90.8,169.5-174.3C384.3,129.6,358,75.3,284.2,75.3
			c-25.6,0-48.5,6.2-66,18c-2.7,1.9-6.5,1.1-8.3-1.6c-1.9-2.7-1.1-6.5,1.6-8.3c19.5-13.1,44.6-20.1,72.7-20.1
			c35.6,0,65,12.2,84.8,35.3c17.9,20.8,27.3,49.1,27.4,81.8c0.1,44.4-17,89.9-47,124.7c-16.2,18.9-35.4,33.7-57,44.2
			C268.8,360.8,242.8,366.6,215,366.7z"/>
		<path class="st0" d="M192,212.5c-1.8,0-3.7-0.8-4.8-2.4c-8-10.9-13.2-22.9-15.4-35.6c-4.2-24,0.9-47,14.6-66.5
			c1.9-2.7,5.7-3.4,8.4-1.4c2.7,1.9,3.4,5.7,1.4,8.4c-11.9,16.8-16.2,36.7-12.6,57.5c1.9,10.9,6.4,21.2,13.3,30.6
			c2,2.7,1.4,6.4-1.3,8.4C194.5,212.1,193.2,212.5,192,212.5z"/>
	</g>
	<path class="st1" d="M292.7,95.9h-0.2c-3.3,0-6-2.7-6-6s2.7-6,6-6h0.2c3.3,0,6,2.7,6,6S296,95.9,292.7,95.9z"/>
	<path class="st1" d="M307.5,294.9h-0.2c-3.3,0-6-2.7-6-6s2.7-6,6-6h0.2c3.3,0,6,2.7,6,6S310.9,294.9,307.5,294.9z"/>
	<path class="st1" d="M87.9,111.2h-0.2c-3.3,0-6-2.7-6-6s2.7-6,6-6h0.2c3.3,0,6,2.7,6,6S91.2,111.2,87.9,111.2z"/>
	<path class="st1" d="M253.7,238.5c-3.3,0-6-2.7-6-6s2.7-6,6-6l0,0c3.3,0,6,2.7,6,6S257,238.5,253.7,238.5z"/>
	<path class="st1" d="M368.7,189c-3.3,0-6-2.7-6-6s2.7-6,6-6l0,0c3.3,0,6,2.7,6,6S372,189,368.7,189z"/>
	<path class="st1" d="M80.8,234c-3.3,0-6-2.7-6-6s2.7-6,6-6l0,0c3.3,0,6,2.7,6,6S84.2,234,80.8,234z"/>
	<path class="st1" d="M197.1,335.9c-3.3,0-6-2.7-6-6s2.7-6,6-6l0,0c3.3,0,6,2.7,6,6S200.4,335.9,197.1,335.9z"/>
</g>
</svg>
