<?xml version="1.0" encoding="utf-8"?>
<!-- Generator: Adobe Illustrator 25.0.1, SVG Export Plug-In . SVG Version: 6.00 Build 0)  -->
<svg version="1.1" id="Layer_1" xmlns="http://www.w3.org/2000/svg" xmlns:xlink="http://www.w3.org/1999/xlink" x="0px" y="0px"
	 viewBox="0 0 430 430" style="enable-background:new 0 0 430 430;" xml:space="preserve">
<style type="text/css">
	.st0{fill:#FFFFFF;}
	.st1{fill:#FFFFFF;}
</style>
<g id="_x35_45">
	<path class="st0" d="M190.2,148.6c-1.9,0-3.8-0.9-4.9-2.6l-41.8-60.7c-2.4-3.5-2.3-8.2,0.3-11.6c2.6-3.4,7.1-4.7,11.1-3.3l24.4,8.7
		l17.4-25.7c1.8-2.7,5.5-3.5,8.3-1.7L231.1,69l19.2-17.4c3.2-2.9,7.8-3.4,11.6-1.2c3.7,2.2,5.6,6.4,4.7,10.6L251,133
		c-0.7,3.2-3.9,5.3-7.1,4.6c-3.2-0.7-5.3-3.9-4.6-7.1L253.5,65l-17.8,16c-2,1.8-5,2.1-7.3,0.6l-25.1-16.5l-16.7,24.7
		c-1.5,2.3-4.4,3.2-7,2.3L157.2,84l38,55.2c1.9,2.7,1.2,6.5-1.5,8.3C192.6,148.2,191.4,148.6,190.2,148.6z"/>
	<path class="st1" d="M260,381c-12.7,0-24.1-8.6-27.3-21.3l-48.7-194.1c-2.6-10.3-0.9-20.9,4.8-29.8c5.7-9,14.5-15,24.9-17.1
		c10.4-2.1,20.9,0.2,29.6,6.3c8.7,6.1,14.3,15.3,15.8,25.8l28.7,198.1c2.2,14.8-7.7,28.8-22.4,31.7C263.7,380.8,261.8,381,260,381z
		 M221.4,129.8c-1.7,0-3.4,0.2-5.2,0.5c-7.1,1.4-13.2,5.6-17.1,11.7c-3.9,6.2-5.1,13.4-3.3,20.5l48.7,194.1
		c2.1,8.3,10.3,13.6,18.8,11.9c8.4-1.7,14.1-9.6,12.9-18.2l-28.7-198.1c-1-7.2-4.9-13.5-10.8-17.7
		C232,131.5,226.7,129.8,221.4,129.8z"/>
	<path class="st1" d="M192.4,180c-2.8,0-5.3-2-5.9-4.8c-0.6-3.3,1.5-6.4,4.7-7L212,164c3.2-0.6,6.4,1.5,7,4.7s-1.5,6.4-4.7,7
		l-20.7,4.1C193.2,179.9,192.8,180,192.4,180z"/>
	<path class="st1" d="M245.8,231.7c-2.8,0-5.3-2-5.9-4.8c-0.6-3.3,1.5-6.4,4.7-7l17.5-3.5c3.2-0.6,6.4,1.5,7,4.7
		c0.6,3.3-1.5,6.4-4.7,7l-17.5,3.5C246.6,231.7,246.2,231.7,245.8,231.7z"/>
	<path class="st1" d="M220.3,289.2c-2.8,0-5.3-2-5.9-4.8c-0.6-3.3,1.5-6.4,4.7-7l16.1-3.2c3.3-0.6,6.4,1.5,7,4.7s-1.5,6.4-4.7,7
		l-16.1,3.2C221.1,289.1,220.7,289.2,220.3,289.2z"/>
</g>
</svg>
