<?xml version="1.0" encoding="utf-8"?>
<!-- Generator: Adobe Illustrator 25.0.1, SVG Export Plug-In . SVG Version: 6.00 Build 0)  -->
<svg version="1.1" id="Layer_1" xmlns="http://www.w3.org/2000/svg" xmlns:xlink="http://www.w3.org/1999/xlink" x="0px" y="0px"
	 viewBox="0 0 430 430" style="enable-background:new 0 0 430 430;" xml:space="preserve">
<style type="text/css">
	.st0{fill:#FFFFFF;}
	.st1{fill:#FFFFFF;}
</style>
<g>
	<g>
		<path class="st0" d="M136.3,193.3c-3.3,0-6-2.7-6-6c0-11.5,0-22.9-0.1-34.4l0-17.6c0-1.6,0.6-3.1,1.8-4.3c1.1-1.1,2.7-1.8,4.2-1.8
			c0,0,0,0,0,0c26.6,0,53.3,0.1,79.9,0.1l40.9,0c3.3,0,6,2.7,6,6c0,3.3-2.7,6-6,6c0,0,0,0,0,0l-40.9,0c-24.6,0-49.3-0.1-73.9-0.1
			l0,11.6c0,11.5,0,22.9,0.1,34.4C142.3,190.6,139.6,193.3,136.3,193.3C136.3,193.3,136.3,193.3,136.3,193.3z"/>
		<path class="st0" d="M143.4,236.3L143.4,236.3c-3.3,0-6-2.7-6-6s2.7-6,6-6s6,2.7,6,6S146.7,236.3,143.4,236.3z"/>
		<path class="st0" d="M220.6,236.3h-29.6c-3.3,0-6-2.7-6-6s2.7-6,6-6h29.6c3.3,0,6,2.7,6,6S223.9,236.3,220.6,236.3z"/>
		<path class="st0" d="M136.2,141.2c-3.3,0-6-2.6-6-6v-0.1c0-16.3,14-31.1,39.3-41.8c23.7-10,55.1-15.5,88.4-15.5
			s64.7,5.5,88.4,15.5c25.4,10.7,39.3,25.5,39.3,41.8c0,3.3-2.7,6-6,6s-6-2.7-6-6c0-11-11.7-22.2-32-30.7
			c-22.3-9.4-52-14.6-83.8-14.6s-61.5,5.2-83.8,14.6c-20.3,8.6-32,19.8-32,30.7C142.2,138.5,139.5,141.2,136.2,141.2z"/>
	</g>
	<g>
		<path class="st0" d="M257.9,192.5c-13,0-25.9-0.9-38.3-2.5c-3-0.4-5.2-2.9-5.2-5.9c0-1.3,0.4-2.7,1.2-3.7
			c12.2-16.2,24.4-32.3,36.5-48.5c2-2.6,5.8-3.2,8.4-1.2c2.6,2,3.2,5.8,1.2,8.4c-10.1,13.4-20.2,26.8-30.3,40.2
			c8.6,0.8,17.5,1.2,26.4,1.2c18.2,0,35.7-1.7,51.9-5c38.2-7.8,63.9-24,63.9-40.3c0-3.3,2.7-6,6-6s6,2.7,6,6
			c0,22.8-28.1,42.8-73.4,52.1C295.2,190.7,276.9,192.5,257.9,192.5z"/>
		<path class="st0" d="M257.9,284.8c-6.8,0-13.7-0.2-20.3-0.7c-6-0.4-12-1-17.8-1.8c-3-0.4-5.2-2.9-5.2-5.9l-0.2-92.4
			c0-3.3,2.7-6,6-6c0,0,0,0,0,0c3.3,0,6,2.7,6,6l0.2,87.1c3.9,0.5,7.9,0.8,11.9,1.1c12.7,0.9,26.2,0.9,38.9,0
			c54-3.7,96.3-23.3,96.3-44.6v-92.3c0-3.3,2.7-6,6-6s6,2.7,6,6v92.3c0,14.6-11.6,28.4-32.6,38.8c-19.4,9.5-45.9,15.9-74.9,17.9
			C271.6,284.6,264.8,284.8,257.9,284.8z"/>
	</g>
	<g>
		<g>
			<path class="st1" d="M113.4,352.1h-0.1c-1.6,0-3.1-0.6-4.3-1.8l-20.8-21.1C74.1,315,60.1,300.8,46,286.6
				c-1.1-1.1-1.7-2.6-1.7-4.2V198c0-2.4,1.5-4.6,3.7-5.6c2.3-0.9,4.8-0.4,6.5,1.3c19.6,19.8,39.1,39.6,58.7,59.4
				c24.4-25.6,48.9-51.2,73.3-76.8c1.7-1.8,4.3-2.3,6.6-1.4c2.3,0.9,3.8,3.1,3.8,5.6v84.4c0,1.5-0.6,3-1.7,4.1
				c-5,5.2-9.9,10.4-14.9,15.6c-7.2,7.6-14.4,15.1-21.7,22.7c-12.1,12.7-24.2,25.4-36.4,38.1l-4.6,4.8
				C116.6,351.4,115,352.1,113.4,352.1z M56.3,279.9c13.5,13.6,27,27.3,40.4,40.9l16.5,16.7l0.4-0.4c12.1-12.7,24.2-25.4,36.4-38.1
				c7.2-7.6,14.5-15.1,21.7-22.7c4.4-4.6,8.8-9.2,13.2-13.9v-67c-21.3,22.4-42.7,44.7-64,67l-3.2,3.4c-1.1,1.2-2.7,1.8-4.3,1.9
				c-1.6,0-3.2-0.6-4.3-1.8c-17.6-17.8-35.2-35.6-52.8-53.4V279.9z"/>
			<path class="st1" d="M113.3,267.8c-1.6,0-3.1-0.6-4.3-1.8l-63-63.8c-1.6-1.6-2.1-4-1.4-6.2c0.7-2.2,2.7-3.7,4.9-4
				c46.8-5.8,93.7-11.6,140.5-17.5c0,0,0,0,0.1,0c2.7-0.3,5.3,1.1,6.3,3.6c0.9,2.2,0.5,4.8-1.2,6.5l-77.6,81.3
				C116.6,267.1,115,267.7,113.3,267.8C113.4,267.8,113.4,267.8,113.3,267.8z M63.1,202.4l50.1,50.7l61.7-64.6
				C137.7,193.2,100.4,197.8,63.1,202.4z"/>
			<path class="st1" d="M113.3,352.1C113.3,352.1,113.3,352.1,113.3,352.1c-3.3,0-6-2.7-6-6V346l0.1-84.2c0-3.3,2.7-6,6-6
				c0,0,0,0,0,0c3.3,0,6,2.7,6,6l-0.1,84.3C119.3,349.4,116.6,352.1,113.3,352.1z"/>
		</g>
		<path class="st1" d="M149.1,252.6c-8.1,0-15.1-7.5-16-17.2c-0.3-3.3,2.1-6.2,5.4-6.5c3.3-0.3,6.2,2.1,6.5,5.4
			c0.4,4.1,2.9,6.3,4.1,6.3c0,0,0,0,0,0c0.9,0,2.5-1.7,3.2-3.1c0.9-1.7,0.8-3.4,0.4-6.4c-0.3-3.3-1.5-6.5-3.3-9.6
			c-1.7-2.8-0.8-6.5,2-8.2c2.8-1.7,6.5-0.8,8.2,2c2.7,4.6,4.4,9.4,4.9,14.5c0.4,3.5,0.9,8.3-1.8,13.3
			C162,244.8,157.4,252.6,149.1,252.6C149.1,252.6,149.1,252.6,149.1,252.6z"/>
		<path class="st1" d="M78.4,316.8c-1.3,0-2.7-0.4-3.8-1.4c-2-1.7-2.7-4.3-1.8-6.7c-0.3,0.1-0.6,0.2-1,0.2c-3.3,0.5-6.4-1.7-6.9-4.9
			c-0.4-2.4-0.6-4.9-0.6-7.4c0-13.1,4.6-21.5,11.8-21.5s11.8,8.4,11.8,21.5c0,7.6-1.8,14.3-4.7,17.9
			C81.9,316.1,80.2,316.8,78.4,316.8z"/>
	</g>
</g>
</svg>
