<?xml version="1.0" standalone="no"?><!DOCTYPE svg PUBLIC "-//W3C//DTD SVG 1.1//EN" "http://www.w3.org/Graphics/SVG/1.1/DTD/svg11.dtd"><svg t="1635950444566" class="icon" viewBox="0 0 1024 1024" version="1.1" xmlns="http://www.w3.org/2000/svg" p-id="1332" xmlns:xlink="http://www.w3.org/1999/xlink" width="200" height="200"><defs><style type="text/css"></style></defs><path d="M872.528 204.368A34.128 34.128 0 1 0 824.32 156.16L492.368 488.112c-13.28 13.312-13.28 34.88 0 48.208L824.32 867.84a34.128 34.128 0 1 0 48.208-48.208L564.912 512l307.616-307.632z m-341.328 0a34.128 34.128 0 0 0-48.208-48.208L151.04 488.112c-13.28 13.312-13.28 34.88 0 48.208l331.952 331.952a34.128 34.128 0 0 0 48.208-48.224L223.568 512 531.2 204.368z" fill="#000000" p-id="1333"></path></svg>