<svg id="图层_1" data-name="图层 1" xmlns="http://www.w3.org/2000/svg" viewBox="0 0 512 512"><defs><style>.cls-1{fill:#df5b23;fill-rule:evenodd;}</style></defs><path class="cls-1" d="M222.59,222.6a47.25,47.25,0,1,1,0,66.8,47.24,47.24,0,0,1,0-66.8Z"/><path class="cls-1" d="M69.84,222.6a47.24,47.24,0,1,1,0,66.8,47.23,47.23,0,0,1,0-66.8Z"/><path class="cls-1" d="M375.34,222.6a47.25,47.25,0,1,1,0,66.8,47.24,47.24,0,0,1,0-66.8Z"/><path class="cls-1" d="M222.59,69.84a47.25,47.25,0,1,1,0,66.81,47.26,47.26,0,0,1,0-66.81Z"/><path class="cls-1" d="M222.59,375.35a47.25,47.25,0,1,1,0,66.81,47.24,47.24,0,0,1,0-66.81Z"/></svg>