<?xml version="1.0" standalone="no"?><!DOCTYPE svg PUBLIC "-//W3C//DTD SVG 1.1//EN" "http://www.w3.org/Graphics/SVG/1.1/DTD/svg11.dtd"><svg t="1641893639698" class="icon" viewBox="0 0 1024 1024" version="1.1" xmlns="http://www.w3.org/2000/svg" p-id="1479" xmlns:xlink="http://www.w3.org/1999/xlink" width="200" height="200"><defs><style type="text/css"></style></defs><path d="M603.733333 654.933333h-106.666666v32.426667h106.666666z m0-118.186666h-106.666666v37.546666h106.666666z m0 59.733333h-106.666666v35.413333h106.666666z m0-203.093333a64 64 0 0 1-64-63.573334v-145.066666H314.88a37.546667 37.546667 0 0 0-37.546667 37.546666v577.706667a37.546667 37.546667 0 0 0 37.546667 37.546667h394.24a37.546667 37.546667 0 0 0 37.546667-37.546667V393.813333z m28.16 324.266666H389.973333v-213.333333h244.053334z m-28.16-349.866666h140.8L640 260.266667l-72.533333-74.24v145.066666a37.546667 37.546667 0 0 0 38.4 37.546667z m-139.093333 287.146666H420.266667v32.426667h46.933333z m0-118.186666H420.266667v37.546666h46.933333z m0 59.733333H420.266667v35.413333h46.933333z" p-id="1480" fill="#ffffff"></path></svg>