<svg id="图层_1" data-name="图层 1" xmlns="http://www.w3.org/2000/svg" viewBox="0 0 512 512"><defs><style>.cls-1{fill:#eb5c20;}.cls-1,.cls-2{fill-rule:evenodd;}.cls-2{fill:#e29227;}</style></defs><path class="cls-1" d="M31.44,126.84C19,116.38,9,94.5,9.31,78.25L10,36.85C10.32,20.59,20.86,15.69,33.47,26L232.21,188.07c12.6,10.28,33.51,10.65,46.46.81L483,33.82c13-9.84,23.33-4.57,23,11.69L505.38,81c-.29,16.26-10.89,37.92-23.55,48.12L276.29,294.65c-12.66,10.2-33.21,10-45.67-.47L31.44,126.84Z"/><path class="cls-2" d="M28.14,316.07C15.68,305.61,5.72,283.74,6,267.48l.72-41.39c.28-16.26,10.83-21.16,23.43-10.87L228.91,377.31c12.59,10.28,33.51,10.65,46.46.81l204.28-155c13-9.84,23.32-4.59,23,11.68l-.62,35.48c-.28,16.26-10.88,37.91-23.54,48.11L273,483.9c-12.67,10.19-33.22,10-45.67-.48L28.14,316.07Z"/></svg>