<svg width="1024" height="1024" xmlns="http://www.w3.org/2000/svg" class="icon">
 <g>
  <title>Layer 1</title>
  <path d="m424,476c-4.4,0 -8,3.6 -8,8l0,276c0,4.4 3.6,8 8,8l32.5,0c4.4,0 8,-3.6 8,-8l0,-95.5l63.3,0c59.4,0 96.2,-38.9 96.2,-94.1c0,-54.5 -36.3,-94.3 -96,-94.3l-104,0l0,-0.1zm150.6,94.3c0,43.4 -26.5,54.3 -71.2,54.3l-38.9,0l0,-108.4l56.2,0c33.8,0 53.9,19.7 53.9,54.1zm280,-281.7l-215.2,-215.2c-6,-6 -14.1,-9.4 -22.6,-9.4l-424.8,0c-17.7,0 -32,14.3 -32,32l0,832c0,17.7 14.3,32 32,32l640,0c17.7,0 32,-14.3 32,-32l0,-616.7c0,-8.5 -3.4,-16.7 -9.4,-22.7zm-64.4,37.4l-188.2,0l0,-188.2l188.2,188.2zm1.8,562l-560,0l0,-752l302,0l0,216a42,42 0 0 0 42,42l216,0l0,494z" id="svg_1" fill="#ffffff"/>
 </g>

</svg>