<svg id="图层_1" data-name="图层 1" xmlns="http://www.w3.org/2000/svg" viewBox="0 0 512 512"><defs><style>.cls-1{fill:#b5b5b6;}</style></defs><path class="cls-1" d="M505.63,196.62a9.69,9.69,0,0,0-9-7.29l-164-10.06a8.77,8.77,0,0,1-7.68-5.71L265,12.25C264,9.12,260,6,256,6s-8,3.12-9,6.25L187.09,173.56a8.77,8.77,0,0,1-7.68,5.71l-164,10.06a9.69,9.69,0,0,0-9,7.3,12.11,12.11,0,0,0,2.6,11,8.33,8.33,0,0,0,.85.83L137,317a8.78,8.78,0,0,1,2.79,8.9L96.24,492.46a10.6,10.6,0,0,0,3.57,11.11,7.47,7.47,0,0,0,.87.64c2.71,1.68,6.73,2.5,9.58.52l3.06-2.22,137.8-92.2a8.76,8.76,0,0,1,9.76,0l139.5,93.34c.27.18.55.34.83.49,1.85,1,3.64,1.86,4.57,1.86a11.3,11.3,0,0,0,4.92-1.53,8.2,8.2,0,0,0,2.87-2.32,12.31,12.31,0,0,0,2.19-9.69l-43.55-167.6A8.77,8.77,0,0,1,375,316L502.63,207C505.63,205,506.62,200.79,505.63,196.62Z"/></svg>