<?xml version="1.0" standalone="no"?><!DOCTYPE svg PUBLIC "-//W3C//DTD SVG 1.1//EN" "http://www.w3.org/Graphics/SVG/1.1/DTD/svg11.dtd"><svg t="1638338351602" class="icon" viewBox="0 0 1024 1024" version="1.1" xmlns="http://www.w3.org/2000/svg" p-id="6627" xmlns:xlink="http://www.w3.org/1999/xlink" width="200" height="200"><defs><style type="text/css"></style></defs><path d="M420.949333 468.053333H89.770667A46.250667 46.250667 0 0 1 42.666667 420.949333V89.770667C42.666667 63.061333 63.061333 42.666667 89.770667 42.666667h331.178666c26.709333 0 47.104 20.394667 47.104 47.104v331.178666c0 26.709333-20.394667 47.104-47.104 47.104zM136.832 373.888h237.056V136.832H136.832v237.056zM420.949333 981.333333H89.770667A46.250667 46.250667 0 0 1 42.666667 934.229333v-331.178666c0-26.709333 20.394667-47.104 47.104-47.104h331.178666c26.709333 0 47.104 20.394667 47.104 47.104v331.178666c0 26.709333-20.394667 47.104-47.104 47.104z m-284.117333-94.165333h237.056v-237.056H136.832v237.056zM934.229333 468.053333h-331.178666a46.250667 46.250667 0 0 1-47.104-47.104V89.770667c0-26.709333 20.394667-47.104 47.104-47.104h331.178666C960.938667 42.666667 981.333333 63.061333 981.333333 89.770667v331.178666c0 26.709333-20.394667 47.104-47.104 47.104z m-284.117333-94.165333h237.056V136.832h-237.056v237.056zM934.229333 981.333333h-331.178666a46.250667 46.250667 0 0 1-47.104-47.104v-331.178666c0-26.709333 20.394667-47.104 47.104-47.104h331.178666c26.709333 0 47.104 20.394667 47.104 47.104v331.178666c0 26.709333-20.394667 47.104-47.104 47.104z m-284.117333-94.165333h237.056v-237.056h-237.056v237.056z" p-id="6628" fill="#ffffff"></path></svg>