<svg id="图层_1" data-name="图层 1" xmlns="http://www.w3.org/2000/svg" viewBox="0 0 512 512"><defs><style>.cls-1{fill:#b5b5b6;}</style></defs><path class="cls-1" d="M434.2,323.71v110a3.66,3.66,0,0,1-3.65,3.65H81.45a3.66,3.66,0,0,1-3.65-3.65v-110a3.64,3.64,0,0,0-3.65-3.65H21.68A3.65,3.65,0,0,0,18,323.71V466.93A39.07,39.07,0,0,0,57.1,506H454.9A39.07,39.07,0,0,0,494,466.93V323.71a3.65,3.65,0,0,0-3.65-3.65H437.85A3.64,3.64,0,0,0,434.2,323.71Z"/><rect class="cls-1" x="107.69" y="364.33" width="287.78" height="35.42" rx="3.65"/><rect class="cls-1" x="107.69" y="295.71" width="287.78" height="35.42" rx="3.65"/><path class="cls-1" d="M262.52,276.86l111.4-144.25c3.59-4.65,1.72-8.45-4.15-8.44H309.29a3.64,3.64,0,0,1-3.65-3.65V16a10,10,0,0,0-10-10H216.34a10,10,0,0,0-10,10V120.51a3.65,3.65,0,0,1-3.65,3.65H142.24c-5.88,0-7.74,3.8-4.16,8.45L249.47,276.86C253.06,281.5,258.93,281.5,262.52,276.86Z"/></svg>