<svg id="图层_1" data-name="图层 1" xmlns="http://www.w3.org/2000/svg" viewBox="0 0 512 512"><defs><style>.cls-1{fill:#fff;}</style></defs><path class="cls-1" d="M248.12,9.82a5,5,0,0,0-5.57-.1C161.21,62.06,104.24,131.18,58.8,198.34c11.89-10,28.6-17.49,42.3-24.51a.8.8,0,0,0,0-1.45,25,25,0,0,0-10.41-2.84.74.74,0,0,1-.29-1.39c17.1-9.12,39.71-11.92,49.24-12.25h0c.72,0,.57-.5.44-.76l-.2-.35c-3.55-5.64-9.14-9.74-12.25-11.74a.73.73,0,0,1,.37-1.35c11.78-.44,39.93-6.54,60.69-2.63.79.15,1.25-.67.91-1.4a27.72,27.72,0,0,0-7.84-10,.75.75,0,0,1,.29-1.34c35.09-6,75.31,7.28,75.31,7.28,4.12,1,10.21-2.43,13.31-6.72l13.92-19.29a1.68,1.68,0,0,1,3.21,0,136.23,136.23,0,0,0,36.42,59.28l74.27,73.61a6.07,6.07,0,0,1,.13,8.47l-22.27,23.36a11.23,11.23,0,0,1-12.86,2.59l-39-10.93-4-.91-41.28-7.34a42.37,42.37,0,0,1-24.08-13.42l-9-10.05a4.75,4.75,0,0,0-6.71-.37l-37.52,33.72c-15.53,13.86-22.72,19.92-37.32,30.19l-26.41,15.65c26.29-10.12,89.67-27.61,138-19.91a2.35,2.35,0,0,1,1.93,2.86c-6.05,27.82-29.27,74.83-52.65,108.29a17.56,17.56,0,0,1-6,5.39l-50.13,27.25a1.89,1.89,0,0,1-2.72-2.15l9.12-34.53a10.45,10.45,0,0,1,6.37-7.1l17.26-6.6a14.27,14.27,0,0,0,7.77-7.14c4.43-9.25,8.69-22.77,11.4-37a2.51,2.51,0,0,0-2.74-3c-42.9,5.14-115.52,27.94-148.27,53.78-23.25,19.25-42.06,36.3-60.36,61.61a5.77,5.77,0,0,0,2.72,8.84c169.59,58.78,346.81,55.8,492.84-18.29a6.08,6.08,0,0,0,3.33-5.42C505.47,271.35,380.81,103.65,248.12,9.82Z"/></svg>