<?xml version="1.0" encoding="utf-8"?>
<!-- Generator: Adobe Illustrator 25.0.1, SVG Export Plug-In . SVG Version: 6.00 Build 0)  -->
<svg version="1.1" id="Layer_1" xmlns="http://www.w3.org/2000/svg" xmlns:xlink="http://www.w3.org/1999/xlink" x="0px" y="0px"
	 viewBox="0 0 430 430" style="enable-background:new 0 0 430 430;" xml:space="preserve">
<style type="text/css">
	.st0{fill:#FFFFFF;}
	.st1{fill:#FFFFFF;}
</style>
<path class="st0" d="M307.7,368.7c-7.4,0-14.2-2.8-19.3-7.8c-5.4-5.4-8.2-12.7-7.8-20.5c0.3-7.3,3.3-14.2,8.3-19.7l-60-60
	c-2.3-2.3-2.3-6.1,0-8.5c2.3-2.3,6.1-2.3,8.5,0l64.5,64.5c1.3,1.3,1.9,3,1.7,4.8c-0.2,1.8-1.1,3.4-2.6,4.4c-1,0.7-1.9,1.5-2.8,2.3
	c-7,7-7.7,17.9-1.4,24.2c6.3,6.3,17.1,5.7,24.2-1.4c3.8-3.8,5-8.4,5.1-8.8c0.3-1.7,0.2-3.1,0.2-4.6c-0.1-2.8-0.3-6.7,3-9.9
	c3.1-3,6.8-2.8,9.3-2.7c1.3,0.1,2.6,0.1,4.1-0.2c0.5-0.1,4.7-1.3,8.4-5c3.5-3.5,5.5-8,5.7-12.6c0.2-4.5-1.3-8.6-4.3-11.5
	c-6.3-6.3-17.1-5.7-24.2,1.4c-1.1,1.1-2.1,2.3-2.8,3.6c-1,1.6-2.6,2.6-4.4,2.8c-1.8,0.2-3.6-0.4-4.9-1.7L252,237.6
	c-2.3-2.3-2.3-6.1,0-8.5c2.3-2.3,6.1-2.3,8.5,0l59.4,59.4c11.7-11.7,30.1-12.3,41.1-1.3c5.4,5.4,8.2,12.7,7.8,20.5
	c-0.3,7.7-3.6,15-9.2,20.6c-6.4,6.4-13.6,8.1-14.4,8.3c-2.9,0.6-5.2,0.5-6.9,0.4c0.1,1.9,0.2,4.5-0.4,7.6c-0.2,0.9-1.9,8.4-8.4,14.9
	c-5.6,5.6-12.9,8.9-20.6,9.2C308.5,368.7,308.1,368.7,307.7,368.7z"/>
<path class="st1" d="M220.7,271.9c-1.4,0-2.8-0.3-4.1-0.8c-9.7-4-19.5-8.2-28.9-12.2c-19.9-8.5-40.5-17.3-61.2-24.9
	c-31.2-11.4-52.3-31.6-61-58.3c-8.2-25.3-4.4-53.4,10.2-75.4c3.2-4.8,6.9-9.3,11-13.4c22.1-22.1,46.7-26.1,63.4-25.6
	c25,0.8,49.5,12.3,65.6,30.6h0c4.2,4.8,7.7,10,10.4,15.4c5.7,11.3,10.3,23.5,14.8,35.2c2.3,6,4.7,12.1,7.1,18l21.1,51.1
	c0.7,1.6,1.3,3.2,2,4.8c1.7,4.3,0.4,9.9-3.1,13.5L230.1,268C227.6,270.5,224.1,271.9,220.7,271.9z M221.2,260
	C221.2,260,221.2,260,221.2,260C221.2,260,221.2,260,221.2,260z M147.2,73.3c-14.2,0-34.1,4.1-52.1,22.1c-3.5,3.5-6.7,7.4-9.5,11.5
	c-12.6,18.9-15.9,43.2-8.8,65c7.6,23.5,25.7,40.5,53.7,50.8c21,7.7,41.7,16.5,61.8,25.1c9.3,4,18.9,8.1,28.5,12
	c0.2,0,0.6-0.2,0.8-0.4l37.9-37.9c0.2-0.2,0.3-0.5,0.4-0.8c-0.6-1.5-1.2-3-1.8-4.5l-21.1-51.1c-2.5-6-4.9-12.3-7.2-18.3
	c-4.4-11.5-9-23.4-14.4-34.2c-2.2-4.5-5.2-8.8-8.7-12.9h0c-13.7-15.7-35.6-25.9-57-26.6C148.9,73.3,148.1,73.3,147.2,73.3z
	 M260,221.1L260,221.1L260,221.1z"/>
<path class="st1" d="M154.8,148.8c-0.1,0-0.2,0-0.3,0c-3.3-0.1-5.9-2.9-5.8-6.2c0.1-3.3,2.9-5.9,6.2-5.8c0,0,0.2,0,0.2,0
	c3.3,0.2,5.9,3,5.7,6.3C160.7,146.3,158,148.8,154.8,148.8z"/>
<path class="st1" d="M123.7,123c0,0-0.1,0-0.1,0c-3.3,0-6-2.7-6-6s2.7-6,6-6c0,0,0.1,0,0.1,0c3.3,0,6,2.7,6,6
	C129.7,120.3,127.1,123,123.7,123z"/>
<path class="st1" d="M160.9,117c0,0-0.1,0-0.1,0c-3.3,0-6-2.7-6-6s2.7-6,6-6c0,0,0.1,0,0.1,0c3.3,0,6,2.7,6,6
	C166.8,114.3,164.2,117,160.9,117z"/>
</svg>
