<?xml version="1.0" encoding="utf-8"?>
<!-- Generator: Adobe Illustrator 25.0.1, SVG Export Plug-In . SVG Version: 6.00 Build 0)  -->
<svg version="1.1" id="Layer_1" xmlns="http://www.w3.org/2000/svg" xmlns:xlink="http://www.w3.org/1999/xlink" x="0px" y="0px"
	 viewBox="0 0 430 430" style="enable-background:new 0 0 430 430;" xml:space="preserve">
<style type="text/css">
	.st0{fill:#FFFFFF;}
	.st1{fill:#FFFFFF;}
</style>
<g>
	<path class="st0" d="M215.5,382.3C215.5,382.3,215.4,382.3,215.5,382.3c-2.5,0-4.5-0.9-5.8-1.5c-6.5-2.9-13.3-5.7-19.9-8.5
		c-11.9-5-24.2-10.1-35.9-16c-16.5-7.2-33.8-15.7-47.5-31.8c-17.2-20.1-26.6-46.5-26.6-74.1c0-59.7,44.1-108.3,98.2-108.3
		c12.9,0,25.3,2.7,37.1,8c11.8-5.3,24.2-8,37.1-8c54.1,0,98.2,48.6,98.2,108.3c0,27.7-9.5,54-26.6,74.1
		c-15.2,17.9-36.2,26.9-56.5,35.7c-1.7,0.7-3.3,1.4-4.9,2.1c-11.2,4.9-25.9,11.4-40.7,18.2C220.1,381.3,218.1,382.3,215.5,382.3z
		 M215.2,370.3C215.2,370.3,215.2,370.3,215.2,370.3L215.2,370.3z M177.9,154.1c-47.5,0-86.2,43.2-86.2,96.3
		c0,24.8,8.4,48.4,23.8,66.3c12.1,14.3,27.4,21.7,43.4,28.7c0.1,0,0.2,0.1,0.3,0.1c11.4,5.7,23.6,10.8,35.3,15.7
		c6.6,2.8,13.5,5.6,20.1,8.6c0.3,0.1,0.7,0.3,0.9,0.4c0.3-0.1,0.7-0.3,1-0.4c14.9-6.9,29.7-13.4,41-18.4c1.7-0.7,3.3-1.4,5-2.2
		c19.9-8.6,38.7-16.8,52.1-32.5c15.3-18,23.8-41.5,23.8-66.3c0-53.1-38.7-96.3-86.2-96.3c-12,0-23.6,2.7-34.5,8
		c-1.7,0.8-3.6,0.8-5.3,0C201.5,156.8,189.9,154.1,177.9,154.1z"/>
	<path class="st0" d="M283.1,352.8c-2.4,0-4.6-1.4-5.6-3.7c-1.2-3,0.2-6.5,3.2-7.8l5.7-2.5c3-1.3,6.5,0,7.9,3c1.4,3,0.1,6.5-2.9,7.9
		c-2.2,1-4.2,1.9-6.1,2.7C284.5,352.6,283.8,352.8,283.1,352.8z"/>
	<path class="st0" d="M221,328.9c-1.7,0-3.4-0.7-4.6-2.1c-2.1-2.5-1.8-6.3,0.7-8.5c36-30.2,50.7-75.1,36.5-111.6
		c-9.6-24.6-30.1-38.5-41.4-44.6c-2.9-1.6-4-5.2-2.5-8.1c1.6-2.9,5.2-4,8.1-2.5c12.8,6.9,36,22.6,47,50.9c16,41.3,0,91.6-39.9,125.2
		C223.7,328.5,222.4,328.9,221,328.9z"/>
	<path class="st0" d="M215,162.8c-0.9,0-1.8-0.2-2.6-0.6c-3-1.4-4.2-5-2.8-8c0.1-0.2,10.4-22.2-2.7-42
		c-8.8-13.3-24.2-20.4-40.2-18.7c-3.3,0.4-6.3-2-6.6-5.3c-0.4-3.3,2-6.3,5.3-6.6c20.5-2.2,40.3,7,51.5,24
		c16.8,25.4,4.1,52.6,3.5,53.8C219.4,161.5,217.2,162.8,215,162.8z"/>
	<path class="st1" d="M221.6,126.9c-1.7,0-3.4-0.1-5.1-0.3c-2.3-0.3-4.2-2-4.9-4.2c-4.8-15.5,0.9-35.9,14.5-51.8
		c13.6-15.9,32.7-24.8,48.8-22.5c2.3,0.3,4.2,2,4.9,4.2c4.8,15.5-0.9,35.9-14.5,51.8l0,0C253.2,118.3,236.5,126.9,221.6,126.9z
		 M269.2,59.7c-11.3,0.2-24.2,7.2-34,18.6c-9.8,11.5-14.6,25.4-13,36.5c11.3-0.2,24.2-7.2,34-18.6C266,84.8,270.9,70.9,269.2,59.7z
		 M260.8,100.1L260.8,100.1L260.8,100.1z"/>
</g>
</svg>
