<?xml version="1.0" encoding="utf-8"?>
<!-- Generator: Adobe Illustrator 24.1.2, SVG Export Plug-In . SVG Version: 6.00 Build 0)  -->
<svg version="1.1" id="Warstwa_3" xmlns="http://www.w3.org/2000/svg" xmlns:xlink="http://www.w3.org/1999/xlink" x="0px" y="0px"
	 viewBox="0 0 430 430" style="enable-background:new 0 0 430 430;" xml:space="preserve">
<style type="text/css">
	.st0{fill:#FFFFFF;}
	.st1{fill:#FFFFFF;}
	.st2{fill:none;stroke:#FFFFFF;stroke-width:12;stroke-linecap:round;stroke-linejoin:round;stroke-miterlimit:10;}
	.st3{fill:#FFFFFF;}
</style>
<g>
	<path class="st0" d="M194.66,380.12c-3.12,0-5.75-2.41-5.98-5.57l-15.31-213.49c-0.24-3.31,2.25-6.18,5.56-6.41
		c3.31-0.24,6.18,2.25,6.41,5.56l15.31,213.49c0.24,3.31-2.25,6.18-5.56,6.41C194.95,380.12,194.81,380.12,194.66,380.12z"/>
	<path class="st0" d="M319.45,158.48c-2.15,0-4.23-1.16-5.31-3.2c-1.55-2.93-0.43-6.56,2.5-8.11c3.31-1.75,5.36-5.16,5.36-8.91
		c0-5-3.72-9.29-8.65-9.98c-2.34-0.33-4.28-2-4.93-4.28c-0.66-2.27,0.08-4.72,1.89-6.25c3.2-2.7,5.03-6.64,5.03-10.81
		c0-7.76-6.32-14.08-14.08-14.08c-2.54,0-5.04,0.68-7.2,1.98c-1.71,1.02-3.81,1.13-5.61,0.29c-1.8-0.84-3.07-2.51-3.39-4.47
		c-0.52-3.2-3.27-5.53-6.53-5.53c-1.51,0-2.91,0.49-4.06,1.41c-1.78,1.42-4.22,1.71-6.28,0.75c-2.07-0.96-3.41-3.02-3.46-5.3
		c-0.17-7.53-6.44-13.65-13.97-13.65c-2.48,0-4.91,0.66-7.02,1.9c-1.44,0.84-3.16,1.05-4.75,0.57c-1.6-0.48-2.92-1.6-3.66-3.09
		c-1.45-2.92-4.37-4.74-7.63-4.74c-3.55,0-6.75,2.24-7.98,5.57c-0.95,2.59-3.55,4.19-6.28,3.89c-2.74-0.3-4.92-2.43-5.29-5.16
		c-0.42-3.09-3.09-5.42-6.21-5.42c-3.46,0-6.27,2.82-6.27,6.28c0,0.21,0.01,0.42,0.03,0.62c0.19,1.93-0.56,3.83-2.02,5.11
		s-3.45,1.77-5.33,1.32c-1.03-0.24-2.12-0.37-3.24-0.37c-3.4,0-6.59,1.16-9.22,3.35c-1.58,1.32-3.72,1.73-5.68,1.1
		c-1.96-0.63-3.46-2.22-3.97-4.21c-0.9-3.48-4.05-5.91-7.65-5.91c-4.36,0-7.91,3.55-7.91,7.91c0,0.36,0.03,0.71,0.08,1.04
		c0.46,2.95-1.31,5.78-4.16,6.66c-6.49,2-10.84,7.9-10.84,14.7c0,0.68,0.04,1.3,0.11,1.83c0.26,1.89-0.38,3.78-1.74,5.12
		c-1.36,1.33-3.27,1.94-5.15,1.64c-1.09-0.18-2.19-0.26-3.26-0.26c-11.18,0-20.27,9.09-20.27,20.27c0,8.11,4.82,15.42,12.27,18.63
		c3.04,1.31,4.45,4.84,3.14,7.88s-4.84,4.45-7.88,3.14c-11.86-5.11-19.53-16.75-19.53-29.65c0-17.22,13.55-31.33,30.55-32.22
		c1.18-9.01,6.72-16.77,14.8-20.81c1.03-10.02,9.52-17.86,19.81-17.86c6.39,0,12.22,3.04,15.89,7.91c3.13-1.38,6.52-2.15,9.97-2.23
		c2.28-7.5,9.25-12.98,17.49-12.98c5.07,0,9.74,2.11,13.08,5.54c3.55-2.8,7.99-4.42,12.69-4.42c5.87,0,11.28,2.44,15.1,6.61
		c2.56-0.82,5.25-1.25,7.97-1.25c11.1,0,20.73,7.16,24.39,17.1c1.11-0.21,2.25-0.31,3.39-0.31c6.6,0,12.46,3.4,15.77,8.67
		c2.26-0.62,4.6-0.94,6.96-0.94c14.38,0,26.08,11.7,26.08,26.08c0,4.55-1.18,8.96-3.36,12.83c6.06,3.98,10.02,10.86,10.02,18.48
		c0,8.21-4.5,15.68-11.76,19.51C321.35,158.26,320.39,158.48,319.45,158.48z"/>
	<path class="st0" d="M239.66,380.12c-0.14,0-0.29-0.01-0.44-0.02c-3.31-0.24-5.79-3.11-5.56-6.41l15.31-213.49
		c0.24-3.31,3.12-5.79,6.41-5.56c3.31,0.24,5.79,3.11,5.56,6.41l-15.31,213.49C245.42,377.71,242.78,380.12,239.66,380.12z"/>
	<path class="st1" d="M336.56,161.11c0.01-0.07,0.01-0.14,0.02-0.2c0-0.1,0-0.21,0-0.31c0-0.1,0-0.19,0-0.29
		c0-0.06-0.01-0.11-0.02-0.17c-0.04-0.53-0.15-1.04-0.33-1.53c-0.04-0.13-0.1-0.25-0.15-0.37c-0.02-0.05-0.04-0.1-0.06-0.15
		c-0.22-0.47-0.51-0.91-0.85-1.32c-0.03-0.04-0.07-0.09-0.1-0.13c-0.07-0.07-0.14-0.14-0.21-0.21c-0.07-0.07-0.14-0.15-0.22-0.22
		c-0.05-0.05-0.11-0.09-0.16-0.13c-0.1-0.09-0.2-0.17-0.31-0.25c-0.01-0.01-0.02-0.02-0.03-0.03l-9.68-7.1
		c-18.95-13.91-44.42-13.91-63.37,0l-6.12,4.5l-6.12-4.49c-18.95-13.91-44.42-13.91-63.37,0l-6.12,4.49l-6.12-4.49
		c-18.95-13.92-44.42-13.91-63.37,0l-9.67,7.1c-0.01,0.01-0.02,0.02-0.03,0.03c-0.1,0.08-0.2,0.16-0.3,0.25
		c-0.06,0.05-0.12,0.09-0.17,0.14c-0.07,0.07-0.14,0.14-0.21,0.21c-0.07,0.07-0.15,0.14-0.21,0.22c-0.03,0.04-0.06,0.08-0.09,0.11
		c-0.35,0.41-0.64,0.86-0.86,1.33c-0.02,0.04-0.04,0.09-0.06,0.14c-0.06,0.13-0.11,0.26-0.16,0.39c-0.18,0.49-0.28,1.01-0.33,1.55
		c0,0.05-0.01,0.1-0.02,0.15c-0.01,0.1,0,0.2,0,0.3c0,0.1,0,0.2,0,0.3c0,0.07,0.01,0.14,0.02,0.21c0.01,0.13,0.02,0.26,0.04,0.4
		c0,0.01,0,0.03,0,0.04l33.36,213.49c0.46,2.92,2.97,5.07,5.93,5.07h160.12c2.96,0,5.47-2.15,5.93-5.07l33.36-213.49
		c0-0.01,0-0.03,0-0.04C336.54,161.38,336.55,161.25,336.56,161.11z M292.1,368.12H142.25l-32-204.82l6.73-4.94
		c14.7-10.8,34.46-10.8,49.17,0l9.67,7.1c2.11,1.55,4.99,1.55,7.1,0l9.67-7.1c14.7-10.79,34.46-10.8,49.17,0l9.67,7.1
		c2.11,1.55,4.99,1.55,7.1,0l9.67-7.1c14.7-10.79,34.46-10.79,49.16,0l6.74,4.95L292.1,368.12z"/>
	<path class="st0" d="M259.07,126.18c-3.31,0-6-2.69-6-6c0-4.53-3.68-8.21-8.21-8.21c-4.53,0-8.21,3.68-8.21,8.21c0,3.31-2.69,6-6,6
		s-6-2.69-6-6c0-11.14,9.07-20.21,20.21-20.21s20.21,9.07,20.21,20.21C265.07,123.49,262.38,126.18,259.07,126.18z"/>
</g>
</svg>
