<?xml version="1.0" encoding="utf-8"?>
<!-- Generator: Adobe Illustrator 25.0.1, SVG Export Plug-In . SVG Version: 6.00 Build 0)  -->
<svg version="1.1" id="Layer_1" xmlns="http://www.w3.org/2000/svg" xmlns:xlink="http://www.w3.org/1999/xlink" x="0px" y="0px"
	 viewBox="0 0 430 430" style="enable-background:new 0 0 430 430;" xml:space="preserve">
<style type="text/css">
	.st0{fill:#FFFFFF;}
	.st1{fill:#FFFFFF;}
</style>
<g>
	<path class="st0" d="M215.4,186C215.4,186,215.4,186,215.4,186c-3.4,0-6-2.7-6-6c0.2-22.4,3.1-44.7,8.7-66.3
		c4.3-16.5,10.1-32.6,17.4-48.1c1.4-3,5-4.3,8-2.9c3,1.4,4.3,5,2.9,8c-7,14.7-12.5,30.2-16.6,45.9c-5.3,20.6-8.1,41.9-8.3,63.3
		C221.4,183.4,218.7,186,215.4,186z"/>
	<path class="st0" d="M215,188.4c-0.6,0-1.2-0.1-1.8-0.3c-3.2-1-4.9-4.4-3.9-7.5c0.3-1,0.6-2,0.8-2.9c0.2-0.8,0.3-1.5,0.4-2.4
		c0-0.2,0-0.4,0.1-0.5c0.3-2.8,0.2-5.6-0.4-8.4c0-0.1,0-0.2,0-0.2c-0.5-2.3-1.2-4.5-2.2-6.6c-4.5-9.3-14.5-15.2-24.1-20.9
		c-1.1-0.6-2.2-1.3-3.2-1.9c-2.4-1.5-4.9-2.9-7.3-4.4c-10.9-6.5-22.1-13.1-32.1-21.1c-4.4-3.5-7.5-8-9.3-13c-2.5,3.7-5,7.6-7.5,11.4
		c-1.7,2.7-3,5.1-4,7.3c-3.1,6.9-3.6,13.1-1.5,19.8c0.7,2.2,1.7,4.3,2.9,6.4c1.8,2.8,0.9,6.5-1.9,8.3c-2.8,1.8-6.5,0.9-8.3-1.9
		c-1.8-2.9-3.2-6-4.2-9.2c-2.9-9.5-2.3-18.8,2-28.3c1.2-2.7,2.8-5.6,4.9-8.8c3.7-5.8,7.5-11.5,11.1-16.9c0.2-0.3,0.8-1.4,1.4-2.3
		c7.6-12.7,9.7-16.1,14.6-15.3c2,0.3,3.7,1.6,4.6,3.5c0.8,1.9,0.7,4-0.4,5.7l-0.8,1.3c-4.7,7.2-3,17.2,3.9,22.6
		c9.4,7.4,20.3,13.9,30.8,20.1c2.5,1.5,4.9,2.9,7.4,4.4c1,0.6,2.1,1.2,3.1,1.9c10.6,6.3,22.6,13.4,28.7,26c1.5,3.1,2.6,6.4,3.2,9.7
		c0,0.1,0,0.2,0,0.3c0.7,3.9,0.9,7.9,0.5,11.8c0,0,0,0.1,0,0.1c-0.1,1.3-0.3,2.6-0.6,3.8c-0.3,1.3-0.6,2.7-1.1,4.1
		C219.9,186.7,217.5,188.4,215,188.4z"/>
	<path class="st0" d="M215.7,187.9C215.7,187.9,215.7,187.9,215.7,187.9c-3.4,0-6-2.7-6-6.1c0-1.2,0.1-2.5,0.2-3.7
		c0.1-1.2,0.3-2.3,0.5-3.4c0-0.2,0.1-0.4,0.1-0.6c2.8-13.6,12.2-24.6,25.1-29.6c9.2-3.5,18.9-5.2,28.4-6.8c5.8-1,11.3-1.9,16.6-3.2
		c11-2.7,29.3-7.3,33.3-19.2c0.8-2.3,0.5-4.6,0.1-7.6c-0.2-1.3-0.3-2.7-0.4-4.2c-0.2-2.8,1.7-5.4,4.4-6.1c2.7-0.7,5.6,0.6,6.9,3.1
		c0.7,1.4,1.3,2.9,1.8,4.7c2.6,9.5,5.7,19.6,9.6,31.8c6.4,19.6-0.1,35.9-17.2,43.5c-0.4,0.2-1.6,0.7-7.6,2.6c-3.2,1-6.5-0.7-7.6-3.9
		s0.7-6.5,3.9-7.6c5.3-1.7,6.4-2.2,6.4-2.2c14.4-6.4,13.8-19.2,10.6-28.8c-1.5-4.6-2.9-9-4.1-13.1c-9.1,11.7-26.2,15.9-37.3,18.7
		c-5.8,1.4-11.8,2.4-17.5,3.4c-9.3,1.6-18,3-26.1,6.1c-9.1,3.5-15.7,11.3-17.7,20.8c0,0.1,0,0.2,0,0.3c-0.2,0.8-0.3,1.6-0.4,2.5
		c-0.1,0.9-0.1,1.7-0.1,2.6C221.7,185.3,219,187.9,215.7,187.9z"/>
	<path class="st1" d="M189.8,367.7c-3.4,0-6.8-0.4-10.1-1.3c-15.2-3.9-26.9-16.4-29.9-31.7c-0.1-0.4-0.2-0.9-0.2-1.4
		c0-3.3,2.7-6,6-6h0c2.9,0,5.4,2.1,5.9,4.9c2.1,10.9,10.4,19.8,21.1,22.6c13.1,3.4,27-2.9,33-15c1.5-3,5.1-4.2,8.1-2.7
		c3,1.5,4.2,5.1,2.7,8.1C219.4,359.2,205,367.7,189.8,367.7z"/>
	<path class="st1" d="M227.9,349.2c-2.1,0-4.1-0.2-6.2-0.5c-0.5-0.1-1.1-0.2-1.6-0.3c-17.2-3.4-30.3-17.3-32.7-34.6c0,0,0-0.1,0-0.1
		c-0.5-3.9-0.5-7.8,0.1-11.7c0.5-3,1.3-6,2.4-8.7c1.2-3.1,4.7-4.6,7.8-3.4s4.6,4.7,3.4,7.8c-0.8,2-1.3,4-1.7,6.2
		c-0.4,2.8-0.5,5.6-0.1,8.3c0,0,0,0.1,0,0.1c1.7,12.2,11,22,23,24.3c0.4,0.1,0.7,0.1,1.1,0.2c15.8,2.4,30.6-8.4,33-24.2
		c0.7-4.8,0.3-9.7-1.4-14.2c-1.1-3.1,0.5-6.6,3.6-7.7c3.1-1.1,6.6,0.5,7.7,3.6c2.3,6.4,3,13.3,1.9,20.1
		C265.2,334.8,247.7,349.2,227.9,349.2z"/>
	<path class="st1" d="M161.3,339.8c-2.1,0-4.1-0.2-6.2-0.5c-0.2,0-0.4-0.1-0.6-0.1c-22-3.7-37-24.6-33.6-46.6
		c1.2-7.8,4.6-15,9.8-20.9c1.1-1.3,2.8-2,4.5-2c3.3,0,6,2.7,6,6c0,1.6-0.6,3.1-1.7,4.2c-3.6,4.1-5.9,9.1-6.8,14.6
		c-2.4,15.5,8.2,30.3,23.7,32.9c0.1,0,0.3,0,0.4,0.1c12.9,2,25.5-4.9,30.8-16.7c0.9-2.2,3-3.7,5.5-3.7c3.3,0,6,2.7,6,6v0
		c0,0.8-0.2,1.7-0.5,2.4C192.1,330.4,177.3,339.8,161.3,339.8z M157,327.5C157,327.5,157.1,327.5,157,327.5
		C157.1,327.5,157,327.5,157,327.5z"/>
	<path class="st1" d="M139.7,282.1c-1.7,0-3.4-0.1-5.1-0.3c-0.4,0-0.8-0.1-1.3-0.2c-22.2-3.4-37.6-24.4-34.1-46.6
		c1.9-12.2,9.1-22.8,19.7-29c7.3-4.3,15.5-6.2,23.9-5.5c3.3,0.3,5.8,3.1,5.5,6.4c-0.3,3.3-3.1,5.8-6.4,5.5
		c-5.9-0.5-11.7,0.9-16.9,3.9c-7.5,4.4-12.6,11.9-13.9,20.5c-2.4,15.7,8.4,30.5,24.2,33c0.2,0,0.4,0.1,0.5,0.1c0.1,0,0.2,0,0.3,0
		c8.5,1.1,17-1.6,23.3-7.5c2.4-2.2,6.2-2.1,8.5,0.3c2.2,2.4,2.1,6.2-0.3,8.5C159.8,278.2,149.9,282.1,139.7,282.1z"/>
	<path class="st1" d="M262.8,302.6c-0.8,0-1.7,0-2.5-0.1c-1.2-0.1-2.5-0.2-3.8-0.4c-14.6-2.2-26.9-12.2-32.1-26.1
		c-1.2-3.1,0.4-6.6,3.5-7.7c3.1-1.2,6.6,0.4,7.7,3.5c3.7,9.8,12.4,16.9,22.7,18.4c0.9,0.1,1.8,0.2,2.7,0.3c15,0.9,28-9.6,30.3-24.5
		c1.3-8.4-1.1-16.8-6.6-23.2c-2.2-2.5-1.9-6.3,0.6-8.5c2.5-2.2,6.3-1.9,8.5,0.6c7.8,9.1,11.2,21,9.4,32.9
		C300,288.1,282.9,302.6,262.8,302.6z"/>
	<path class="st1" d="M195.4,301.6c-0.1,0-0.3,0-0.4,0c-1.2-0.1-2.3-0.2-3.4-0.4c-3.7-0.6-7.2-1.6-10.6-3.1
		c-12.4-5.6-21.1-16.9-23.5-30.2c-0.2-1.1-0.3-2.1-0.4-3.2c-0.3-3.4-0.2-6.8,0.3-10.1c1.4-9.1,5.9-17.5,12.6-23.8
		c0,0,0.1-0.1,0.1-0.1l0.3-0.2c0.3-0.2,0.5-0.5,0.8-0.7c1.1-0.9,2.6-1.4,4.1-1.3c7.4,0.3,14.5-2.1,20.2-7c2.5-2.2,6.3-1.9,8.5,0.6
		c2.2,2.5,1.9,6.3-0.6,8.5c-7.3,6.3-16.4,9.8-26,9.9c-4.3,4.4-7.1,9.9-8.1,16c-0.4,2.4-0.4,4.8-0.2,7.2c0.1,0.7,0.2,1.5,0.3,2.2
		c1.7,9.5,7.9,17.4,16.6,21.4c2.4,1.1,4.9,1.8,7.5,2.2c0.8,0.1,1.6,0.2,2.5,0.3c3.3,0.2,5.8,3.1,5.6,6.4
		C201.1,299.1,198.5,301.6,195.4,301.6z"/>
	<path class="st1" d="M197.8,301.6c-0.7,0-1.3,0-2,0c-3.3-0.2-5.9-3-5.7-6.3s3-5.9,6.3-5.7c2.2,0.1,4.5,0,6.7-0.5
		c9.2-1.8,16.8-7.7,20.7-16.1c0.2-2.3,1.7-4.4,4.1-5.2c3.1-1,6.5,0.7,7.6,3.8l0.1,0.1c0.6,1.4,0.6,3,0,4.5
		c-5.2,12.9-16.5,22.1-30.2,24.7C202.9,301.4,200.3,301.6,197.8,301.6z"/>
	<path class="st1" d="M230.4,254.5c-1.7,0-3.4-0.8-4.6-2.1c-13.5-2.4-24.8-11.4-30.2-24c-1.3-3,0.1-6.6,3.1-7.9
		c3-1.3,6.6,0.1,7.9,3.1c4,9.2,12.2,15.6,22.1,17.1c0.6,0.1,1,0.1,1.5,0.2c2.2,0.2,4.1,1.6,5,3.6c0.3,0.6,0.5,1.3,0.8,1.9
		c1.1,3.1-0.5,6.6-3.6,7.7C231.8,254.4,231.1,254.5,230.4,254.5z"/>
	<path class="st1" d="M230,279.9c-0.8,0-1.6-0.2-2.4-0.5c-3-1.3-4.4-4.8-3.1-7.9c0,0,0,0,0,0c0-0.1,0.1-0.2,0.1-0.3
		c0.8-2,1.3-4,1.7-6.1c0.8-4.9,0.2-9.9-1.5-14.5c-1.2-3.1,0.4-6.6,3.5-7.7c3.1-1.2,6.6,0.4,7.7,3.5c2.5,6.5,3.2,13.6,2.1,20.6
		c-0.5,3-1.2,5.9-2.3,8.6c-0.1,0.2-0.2,0.5-0.3,0.7C234.6,278.6,232.4,279.9,230,279.9z M224.5,271.6
		C224.5,271.6,224.5,271.6,224.5,271.6C224.5,271.6,224.5,271.6,224.5,271.6z"/>
	<path class="st1" d="M196.1,301.6c-0.1,0-0.2,0-0.2,0c-0.3,0-0.7,0-1-0.1c-3.3-0.3-5.8-3.1-5.5-6.4c0.3-3.3,3.1-5.8,6.4-5.5
		c0.2,0,0.3,0,0.5,0c3.3,0.1,5.9,2.9,5.8,6.2C202,299.1,199.3,301.6,196.1,301.6z"/>
	<path class="st1" d="M143.4,216.7c-3.3,0-6-2.7-6-6v0c0-3.3,2.7-6,6-6s6,2.7,6,6S146.8,216.7,143.4,216.7z"/>
	<path class="st1" d="M121.9,217.1c-0.6,0-1.2-0.1-1.7-0.3c-19.3-5.9-31.6-25.4-28.5-45.4c2-13.1,10.3-24.5,22.2-30.4
		c7.6-3.8,16-5.1,24.4-3.8c15.1,2.3,27.6,12.8,32.5,27.2c1.1,3.1-0.6,6.5-3.7,7.6c-3.1,1.1-6.5-0.6-7.6-3.7
		c-3.5-10.2-12.3-17.6-22.9-19.3c-5.9-0.9-11.9,0-17.3,2.7c-8.4,4.2-14.3,12.2-15.7,21.5c-2.2,14.1,6.5,27.9,20.1,32.1
		c3.2,1,5,4.3,4,7.5C126.9,215.4,124.5,217.1,121.9,217.1z"/>
	<path class="st0" d="M261.6,198L261.6,198c-3.3,0-6-2.7-6-6s2.7-6,6-6s6,2.7,6,6S265,198,261.6,198z"/>
	<path class="st1" d="M199.3,231.9c-1.7,0-3.4-0.7-4.6-2.1c-2.1-2.5-1.8-6.3,0.7-8.5c0.3-0.3,0.7-0.6,1-0.9c2.4-2.3,6.2-2.3,8.5,0.1
		c2.3,2.4,2.3,6.2-0.1,8.5c-0.5,0.5-1,0.9-1.6,1.5C202,231.4,200.7,231.9,199.3,231.9z"/>
	<path class="st1" d="M174.9,240.3c-0.1,0-0.1,0-0.2,0c-0.5,0-0.9,0-1.4-0.1c-1.1-0.1-2.1-0.2-3.1-0.4
		c-15.1-2.3-27.5-12.8-32.5-27.2c0-0.1,0-0.1-0.1-0.2c-0.6-1.6-1-3.3-1.3-4.9c-1-4.6-1.1-9.5-0.3-14.3c1.5-10,6.7-18.9,14.4-25.3
		c3.8-3.1,8.1-5.5,12.7-7.1c6.2-2.2,13-2.8,19.5-1.7c14.4,2.2,26.7,12.1,31.9,25.7c1.2,3.1-0.3,6.6-3.4,7.8
		c-3.1,1.2-6.6-0.3-7.8-3.4c-3.7-9.6-12.4-16.6-22.6-18.2c-4.6-0.7-9.4-0.3-13.8,1.2c-3.3,1.1-6.3,2.8-9,5.1
		c-5.5,4.5-9.1,10.9-10.2,17.9c-0.5,3.4-0.4,6.8,0.2,10.1c0.2,1.3,0.6,2.4,1,3.6c0,0.1,0,0.1,0.1,0.2c3.5,10.1,12.3,17.5,22.9,19.1
		c0.7,0.1,1.4,0.2,2.2,0.3c0.3,0,0.5,0,0.8,0c3.3,0.1,5.9,2.8,5.8,6.2C180.8,237.7,178.2,240.3,174.9,240.3z"/>
	<path class="st1" d="M287.4,245c-2,0-4.1-0.2-6.2-0.5c-8.2-1.3-15.8-5-21.8-10.7c-2.4-2.3-2.5-6.1-0.2-8.5c2.3-2.4,6.1-2.5,8.5-0.2
		c4.3,4,9.6,6.6,15.4,7.5c2,0.3,4,0.4,5.9,0.3c13.6-0.7,25-11,27.1-24.5c1.6-10.1-2.2-20-10-26.6c-4-3.4-8.9-5.6-14.1-6.4
		c-11.7-1.8-23.6,3.9-29.5,14.2c-1.6,2.9-5.3,3.9-8.2,2.2c-2.9-1.6-3.9-5.3-2.2-8.2c8.3-14.6,25.1-22.7,41.7-20.1
		c7.4,1.1,14.3,4.3,20,9.1c11.1,9.3,16.4,23.3,14.2,37.6c-2.9,19.1-19.1,33.7-38.3,34.6C288.8,245,288.1,245,287.4,245z"/>
	<path class="st1" d="M233.1,253.1c-0.8,0-1.6,0-2.5-0.1c-0.4,0-1-0.1-1.5-0.1c-0.7-0.1-1.4-0.1-2.3-0.3
		c-14-2.2-25.7-11.2-31.3-24.2c-0.2-0.6-0.5-1.1-0.6-1.6c-2.5-6.6-3.3-13.8-2.2-20.9c1.4-9,5.6-17.1,12.2-23.4
		c2.1-2,4.4-3.7,6.8-5.2c0.2-0.1,0.5-0.3,0.7-0.4l0.2-0.1c8.1-4.7,17.6-6.5,26.8-5.1c8.2,1.3,15.8,5,21.8,10.7
		c1.9,1.8,3.6,3.8,5.1,5.9c0.1,0.1,0.1,0.2,0.2,0.3c6.2,8.7,8.7,19.3,7,29.9c-0.8,5-2.4,9.8-4.9,14.1
		C261.4,245.2,247.6,253.1,233.1,253.1z M233.1,183.2c-5,0-9.9,1.3-14.4,3.9l-0.2,0.1c-0.1,0-0.2,0.1-0.2,0.1
		c-0.1,0-0.2,0.1-0.2,0.1c-1.8,1.1-3.4,2.3-4.9,3.7c-4.7,4.4-7.6,10.1-8.6,16.5c-0.8,5-0.2,10.1,1.6,14.8c0,0.1,0,0.1,0.1,0.2
		c0.1,0.3,0.2,0.6,0.4,0.9c4,9.2,12.3,15.6,22.1,17.1c0.6,0.1,1,0.1,1.5,0.2c0.1,0,0.1,0,0.2,0c0.3,0,0.6,0.1,0.9,0.1
		c11,0.7,21.5-5,26.9-14.5c1.8-3.1,2.9-6.4,3.5-10c0,0,0,0,0,0c1.1-7.4-0.6-14.8-4.8-20.9c-0.1-0.1-0.1-0.2-0.2-0.2
		c-1.1-1.5-2.4-3-3.7-4.3c-4.3-4-9.6-6.6-15.4-7.5C236.1,183.3,234.6,183.2,233.1,183.2z"/>
</g>
</svg>
