<?xml version="1.0" encoding="utf-8"?>
<!-- Generator: Adobe Illustrator 25.0.1, SVG Export Plug-In . SVG Version: 6.00 Build 0)  -->
<svg version="1.1" id="Layer_1" xmlns="http://www.w3.org/2000/svg" xmlns:xlink="http://www.w3.org/1999/xlink" x="0px" y="0px"
	 viewBox="0 0 430 430" style="enable-background:new 0 0 430 430;" xml:space="preserve">
<style type="text/css">
	.st0{fill:#FFFFFF;}
	.st1{fill:#FFFFFF;}
</style>
<g id="_x35_51">
	<g>
		<path class="st0" d="M260.2,283.1c-19.8,0-39.2-4.3-56.3-12.6c-4.2-2-8.2-4.3-12.1-6.5c-7-3.9-13.7-7.7-20.9-10
			c-8.6-2.7-17.4-2.3-26.6-1.9c-3.6,0.2-7.3,0.4-11.1,0.4c-27.7,0-53.4-12.5-67.1-32.7c-6-8.9-9.5-19-10-29.2
			c-0.1-0.9-0.1-1.9-0.1-2.8c0-21.1,13.2-41.1,35.2-53.4c15.6-8.7,32.6-9.7,49-10.7c1.6-0.1,3.2-0.2,4.8-0.3
			c18.3-1.2,33.4-5.6,47.7-13.9c22.1-12.8,44.2-19.1,67.5-19.1c62.8,0,113.8,43.2,113.8,96.3c0,0.2,0,0.5,0,0.7
			c-0.1,10.2-2,20.2-5.8,29.7C352.8,256.6,309.3,283.1,260.2,283.1z M154.3,240c6.6,0,13.3,0.6,20.2,2.8c8.4,2.7,15.9,6.9,23.1,10.9
			c3.9,2.2,7.6,4.3,11.5,6.1c15.4,7.4,33.1,11.4,51.1,11.4c44.3,0,83.2-23.4,96.9-58.3c3.2-8.2,4.9-16.8,4.9-25.5c0-0.1,0-0.2,0-0.3
			l0-0.1c0-46.5-45.7-84.3-101.8-84.3c-21.1,0-41.2,5.7-61.5,17.5c-16,9.3-32.8,14.2-53,15.5c-1.6,0.1-3.2,0.2-4.8,0.3
			c-15.8,1-30.6,1.9-43.8,9.2c-18.2,10.2-29.1,26.2-29.1,43c0,0.7,0,1.5,0.1,2.2c0.4,8.2,3.1,16,8,23.1
			c11.5,16.9,33.4,27.4,57.1,27.4c3.5,0,7.1-0.2,10.5-0.3C147.2,240.1,150.7,240,154.3,240z"/>
		<path class="st0" d="M260.2,339.5c-19.8,0-39.2-4.3-56.3-12.6c-4.2-2-8.2-4.3-12.1-6.5c-7-3.9-13.7-7.7-20.9-10
			c-8.6-2.7-17.4-2.3-26.6-1.9c-3.6,0.2-7.3,0.4-11.1,0.4c-41.4,0-75.3-27.2-77.1-61.9c0-0.1,0-0.2,0-0.3v-56.4c0-3.3,2.6-5.9,5.8-6
			c3.2-0.1,6,2.4,6.1,5.7c0.4,8.2,3.1,15.9,7.9,23.1c11.5,16.9,33.4,27.4,57.1,27.4c3.5,0,7.1-0.2,10.5-0.3c9.9-0.5,20.2-1,30.9,2.4
			c8.4,2.7,15.9,6.9,23.1,10.9c3.9,2.2,7.6,4.3,11.5,6.1c15.4,7.4,33.1,11.4,51.1,11.4c44.3,0,83.2-23.4,96.9-58.3
			c3.2-8.2,4.9-16.8,4.9-25.5c0-3.3,2.7-6,6-6c3.3,0,6,2.7,6,6v55.9C374,296.3,322.9,339.5,260.2,339.5z M154.3,296.4
			c6.6,0,13.3,0.6,20.2,2.8c8.3,2.7,15.9,6.9,23.1,10.9c3.9,2.2,7.6,4.3,11.5,6.1c15.4,7.4,33.1,11.4,51.1,11.4
			c56.1,0,101.8-37.8,101.8-84.3v-13.3c-19,32.3-58.2,53.2-101.8,53.2c-19.8,0-39.2-4.3-56.3-12.6c-4.2-2-8.2-4.3-12.1-6.5
			c-7-3.9-13.7-7.7-20.9-10c-8.6-2.7-17.4-2.3-26.6-1.9c-3.6,0.2-7.3,0.4-11.1,0.4c-26.4,0-51-11.4-65.1-29.9v24
			c1.5,28.2,30.1,50.3,65.1,50.3c3.5,0,7.1-0.2,10.5-0.3C147.2,296.5,150.7,296.4,154.3,296.4z"/>
	</g>
	<path class="st0" d="M132.2,210.3c-16.7,0-29.8-9.8-29.8-22.3s13.1-22.3,29.8-22.3S162,175.5,162,188S148.9,210.3,132.2,210.3z
		 M132.2,177.7c-10.5,0-17.8,5.4-17.8,10.3s7.3,10.3,17.8,10.3S150,192.9,150,188S142.7,177.7,132.2,177.7z"/>
	<path class="st1" d="M302.9,231.5c-0.5,0-1-0.1-1.5-0.2l-98.5-25c-3.2-0.8-5.2-4.1-4.3-7.3c0.8-3.2,4.1-5.2,7.3-4.3l98.5,25
		c3.2,0.8,5.2,4.1,4.3,7.3C308,229.7,305.6,231.5,302.9,231.5z"/>
	<path class="st1" d="M294.4,193.9c-0.5,0-1-0.1-1.5-0.2l-64.3-16.3c-3.2-0.8-5.2-4.1-4.3-7.3c0.8-3.2,4.1-5.2,7.3-4.3l64.3,16.3
		c3.2,0.8,5.2,4.1,4.3,7.3C299.5,192.1,297.1,193.9,294.4,193.9z"/>
	<path class="st1" d="M291.3,156.7c-0.5,0-1-0.1-1.5-0.2l-32.5-8.2c-3.2-0.8-5.2-4.1-4.3-7.3c0.8-3.2,4.1-5.2,7.3-4.3l32.5,8.2
		c3.2,0.8,5.2,4.1,4.3,7.3C296.4,154.9,293.9,156.7,291.3,156.7z"/>
</g>
</svg>
