<svg id="图层_1" data-name="图层 1" xmlns="http://www.w3.org/2000/svg" viewBox="0 0 512 512"><defs><style>.cls-1{fill:#df5b23;}</style></defs><path class="cls-1" d="M208.56,301.49q-18.21,0-28.84-8.84T169.11,267V211.88H187.6v53.71q0,10.14,5.48,15.14t15.48,5q10,0,15.42-5t5.41-15.14V211.88h18.49V267q0,16.85-10.55,25.69T208.56,301.49Z"/><path class="cls-1" d="M290.22,301.49a95.73,95.73,0,0,1-15.83-1.24,54.47,54.47,0,0,1-12.67-3.56v-16.3a77.42,77.42,0,0,0,13,4,64.44,64.44,0,0,0,13.7,1.51q9.58,0,14.11-1.78t4.52-8.09a9.6,9.6,0,0,0-1.92-6.3c-1.28-1.55-3.49-2.95-6.64-4.18a139.87,139.87,0,0,0-13.36-4.18q-13.84-3.82-19.46-9.59t-5.61-15.89q0-12.2,8.9-18.77t25.9-6.58a93.87,93.87,0,0,1,14.79,1.1,65,65,0,0,1,11.1,2.6v16.31a65.75,65.75,0,0,0-23.43-4.25q-8.62,0-13.56,1.85t-4.93,7.74a8.07,8.07,0,0,0,1.78,5.48,15.2,15.2,0,0,0,6.09,3.7,124.89,124.89,0,0,0,12.13,3.7q10.81,2.88,16.71,6.85a22,22,0,0,1,8.16,9A27.74,27.74,0,0,1,326,276a22.49,22.49,0,0,1-8.77,18.5Q308.44,301.49,290.22,301.49Z"/><path class="cls-1" d="M338.85,300.12V211.88h37q19.88,0,29.94,10.21t10.07,34.32q0,22.74-9.93,33.22t-30.08,10.49Zm18.5-14.25h15.89a32,32,0,0,0,13.15-2.4q5.36-2.4,8-8.77t2.67-18.29q0-11.93-2.47-18.22t-7.67-8.63q-5.2-2.33-13.7-2.33H357.35Z"/><path class="cls-1" d="M418.45,300.12l33.71-88.24h20.27L506,300.12H486.82l-8.36-21.24H446l-8.22,21.24Zm30.28-35.49h27l-13.56-35.48Z"/><path class="cls-1" d="M38.11,256.66l26.21,24.95a1.59,1.59,0,0,1,.49,1.14V318.8a.68.68,0,0,1-1.11.52L6.57,271.77A1.57,1.57,0,0,1,6,270.56v-29a1.57,1.57,0,0,1,.57-1.21L63.7,192.68a.68.68,0,0,1,1.11.52v36.13a1.57,1.57,0,0,1-.49,1.14l-26.2,24.71A1,1,0,0,0,38.11,256.66Z"/><path class="cls-1" d="M129.46,241.52v29a1.56,1.56,0,0,1-.56,1.21L71.76,319.32a.68.68,0,0,1-1.11-.52V282.75a1.59,1.59,0,0,1,.49-1.14l26.05-25a1,1,0,0,0,0-1.47l-26-24.71a1.57,1.57,0,0,1-.49-1.14V193.2a.68.68,0,0,1,1.11-.52l57.14,47.63A1.56,1.56,0,0,1,129.46,241.52Z"/></svg>