<svg width="161" height="48" viewBox="0 0 161 48" fill="none" xmlns="http://www.w3.org/2000/svg">
    <path d="M145.296 23.5297C144.805 22.8582 144.103 22.3201 143.194 21.9155C142.284 21.5099 141.214 21.308 139.983 21.308C137.702 21.308 135.925 21.8163 134.657 22.8327C133.869 23.446 133.244 24.203 132.782 25.107C132.319 26.0105 131.96 27.109 131.704 28.4032L131.187 31.0836C130.902 32.5452 130.76 33.6756 130.76 34.4758C130.76 36.2734 131.404 37.619 132.694 38.5114C133.981 39.4053 135.693 39.8515 137.829 39.8515C138.586 39.8515 139.409 39.8027 140.293 39.7042C141.179 39.6053 141.848 39.482 142.301 39.3337C142.426 39.2945 142.527 39.2503 142.624 39.2053L143.58 35.4408C143.555 35.4468 143.536 35.4447 143.51 35.4532C142.94 35.641 142.192 35.8234 141.267 36.0016C140.344 36.1792 139.491 36.2677 138.715 36.2677C136.294 36.2677 135.084 35.5175 135.084 34.0157C135.084 33.7405 135.143 33.2556 135.261 32.5644H144.233C144.676 32.5644 144.987 32.4858 145.164 32.3278C145.341 32.1706 145.468 31.8836 145.547 31.4684L145.99 28.8918C146.157 27.9433 146.24 27.1974 146.24 26.6548C146.24 25.4499 145.926 24.4088 145.296 23.5297ZM141.858 29.2325H135.896C136.013 28.58 136.127 28.0448 136.234 27.6253C136.343 27.2059 136.49 26.7864 136.678 26.3657C136.865 25.9464 137.081 25.6209 137.327 25.3887C137.572 25.157 137.891 24.9687 138.279 24.8257C138.668 24.683 139.122 24.6108 139.644 24.6108C141.376 24.6108 142.241 25.381 142.241 26.9218C142.241 27.3365 142.114 28.1068 141.858 29.2325Z" fill="white"/>
    <path d="M90.9656 21.308C89.3498 21.308 87.4011 21.56 85.8952 21.8924L85.2909 25.5189C86.6573 25.1977 88.4462 24.9518 89.8736 24.9518C90.8774 24.9518 91.6232 25.0797 92.1098 25.337C92.5977 25.5943 92.8398 26.0833 92.8398 26.8035C92.8398 27.0993 92.7287 27.8159 92.5017 28.9511C91.2021 28.8326 90.0076 28.7733 88.9149 28.7733C86.7504 28.7733 85.1268 29.1293 84.0454 29.8396C82.3924 30.9366 81.5664 32.8069 81.5664 35.4538C81.5664 36.7566 82.0159 37.8161 82.9165 38.6307C83.8162 39.445 85.0789 39.852 86.702 39.852C88.6297 39.852 90.16 39.2853 91.2908 38.1492L91.4234 39.3569H94.9606C95.0664 38.2769 95.3021 36.5075 95.5565 35.1424L96.5001 30.3136C96.9241 28.2009 97.1349 26.7145 97.1349 25.8558C97.1349 22.8236 95.0797 21.308 90.9656 21.308ZM91.233 35.4237C90.4933 36.1646 89.4468 36.5349 88.0888 36.5349C87.3411 36.5349 86.7824 36.3716 86.4134 36.0459C86.0457 35.7197 85.8601 35.2761 85.8601 34.7136C85.8601 34.2294 85.9486 33.7891 86.1254 33.3949C86.3026 33.0002 86.5336 32.7034 86.8196 32.5065C87.3508 32.1608 88.1671 31.9876 89.2686 31.9876C90.115 31.9876 90.9906 32.0374 91.8964 32.1349L91.233 35.4237Z" fill="white"/>
    <path d="M80.1998 17.5473C79.63 16.9751 78.9035 16.5548 78.0237 16.2878C77.1427 16.0217 75.9832 15.888 74.5484 15.888H67.9288L63.3496 39.5133H67.909L69.5302 31.1447H72.3047C73.7115 31.1447 74.9017 31.0315 75.8769 30.8039C76.8501 30.5769 77.7042 30.1846 78.436 29.6266C79.1694 29.0688 79.7598 28.3374 80.2088 27.4341C80.6556 26.5302 81.0225 25.388 81.3074 24.0053C81.4946 23.0482 81.5881 22.1688 81.5881 21.3691C81.5882 19.7494 81.1256 18.4754 80.1998 17.5473ZM76.8357 23.3089C76.6687 24.2174 76.4715 24.9137 76.2447 25.3976C76.0186 25.882 75.7036 26.2811 75.3003 26.5978C74.9067 26.9139 74.4544 27.1282 73.9433 27.2414C73.4312 27.3551 72.7328 27.4116 71.8471 27.4116H70.3125L71.7295 19.621H73.2201C74.1933 19.621 74.9238 19.6752 75.4111 19.7843C75.8983 19.8928 76.2742 20.0997 76.5394 20.4058C76.8454 20.7915 76.9971 21.3049 76.9971 21.9465C76.9971 22.2327 76.9434 22.6869 76.8357 23.3089Z" fill="white"/>
    <path d="M111.523 21.6486C109.908 25.6559 108.026 29.9483 106.304 33.5577H106.113C105.417 29.5621 105.664 30.5952 104.3 21.6486H99.9927C102.797 35.9925 99.7977 20.6802 103.422 39.8676L103.394 39.8813C102.842 40.8593 102.268 41.5282 101.666 41.8896C101.12 42.2165 100.511 42.3875 99.843 42.4165L99.002 45.9397H99.6443H100.486C101.982 45.9397 103.272 45.4683 104.36 44.5256C105.447 43.5822 106.561 41.9805 107.703 39.7195C110.142 34.8574 113.534 27.4832 116.085 21.6486H111.523Z" fill="white"/>
    <path d="M126.082 39.2469L126.978 35.4931C126.476 35.6979 125.907 35.8775 125.249 36.0229C124.511 36.1862 123.822 36.2677 123.183 36.2677C122.169 36.2677 121.436 36.0851 120.984 35.7194C120.53 35.3545 120.304 34.7371 120.304 33.8683C120.304 33.3349 120.418 32.4563 120.644 31.2313L120.998 29.4103C121.215 28.3728 121.431 27.6158 121.647 27.1368C121.864 26.6576 122.139 26.2499 122.474 25.9147C123.123 25.2327 124.073 24.8923 125.323 24.8923C126.671 24.8923 128.033 25.2299 128.899 25.6153C128.916 25.6236 128.945 25.6303 128.969 25.6373L129.804 22.1433C129.206 21.9416 128.103 21.6109 127.344 21.4929C126.547 21.3694 125.815 21.308 125.146 21.308C123.965 21.308 122.917 21.4463 122.002 21.7227C121.086 21.9991 120.251 22.4586 119.494 23.0999C118.194 24.2158 117.294 26.0969 116.792 28.7433L116.409 30.7133C116.123 32.1445 115.98 33.3598 115.98 34.3573C115.98 35.8283 116.354 37.0086 117.102 37.8972C118.223 39.2007 120.029 39.8517 122.518 39.8517C123.64 39.8517 124.806 39.6602 126.015 39.2749C126.04 39.2675 126.059 39.2558 126.082 39.2469Z" fill="white"/>
    <path d="M160.57 21.6978C160.014 21.491 159.265 21.3972 158.798 21.3972C157.991 21.3972 157.145 21.6149 156.26 22.0496C155.373 22.4845 154.621 23.107 154.002 23.9164L154.062 21.5762H150.76L147.273 39.5127H151.543L154.002 26.9229C154.621 26.3897 155.308 25.9771 156.061 25.686C156.813 25.395 157.553 25.2489 158.281 25.2489C158.458 25.2489 158.677 25.2536 158.938 25.2632C159.107 25.2703 159.518 25.2908 159.804 25.3039L160.57 21.6978Z" fill="white"/>
    <path d="M23.518 0.087028C23.3575 -0.0256739 23.1428 -0.0289135 22.9776 0.0773094C15.0767 5.16117 9.54216 11.8757 5.12839 18.3995C6.28327 17.4326 7.90685 16.7006 9.23722 16.0186C9.29702 15.9846 9.29702 15.9115 9.23722 15.8777C8.89473 15.6801 8.48599 15.6194 8.22657 15.6017C8.15471 15.5966 8.13467 15.5008 8.1982 15.4667C9.85967 14.5811 12.0553 14.3084 12.9808 14.2769V14.2762C13.0511 14.2752 13.0365 14.2271 13.0243 14.2024C13.0171 14.1906 13.0109 14.1792 13.0041 14.1678C12.6597 13.6205 12.1171 13.2215 11.8144 13.028C11.7552 12.9896 11.7807 12.8992 11.8505 12.8965C12.9947 12.8534 15.7293 12.2616 17.7457 12.6413C17.8223 12.6554 17.8673 12.5756 17.8342 12.505C17.6349 12.0703 17.2884 11.6848 17.0721 11.5332C17.0198 11.4975 17.0383 11.4152 17.1008 11.4039C20.5096 10.8184 24.4155 12.1102 24.4155 12.1102C24.816 12.2058 25.4073 11.8744 25.7084 11.4575L27.0606 9.584C27.1087 9.43055 27.3251 9.43123 27.3725 9.58536C28.0347 11.7799 29.2542 13.7639 30.9109 15.343L38.1249 22.4937C38.3513 22.7183 38.3573 23.0842 38.1369 23.3159L35.9741 25.5851C35.6539 25.9294 35.1514 26.0301 34.7245 25.8371L30.9364 24.7752C30.8068 24.7464 30.6771 24.7166 30.5477 24.6869L26.5386 23.9734C25.6363 23.8126 24.8129 23.3539 24.1993 22.6704L23.3237 21.6936C23.1535 21.5035 22.8621 21.4881 22.6722 21.6581L19.0282 24.9338C17.5196 26.2797 16.8207 26.8687 15.4032 27.8659L12.8374 29.3863C15.3913 28.4027 21.5475 26.7038 26.2401 27.4519C26.3724 27.4722 26.4564 27.5984 26.4275 27.7304C25.84 30.4327 23.5845 34.9982 21.3133 38.2486C21.1612 38.4666 20.9628 38.6459 20.7301 38.7723C19.7371 39.3116 16.8847 40.8621 15.8598 41.4193C15.7186 41.4957 15.5554 41.3663 15.5962 41.2101L16.4816 37.8568C16.565 37.54 16.7959 37.2836 17.1007 37.167L18.7769 36.5254C19.1078 36.3994 19.3786 36.1516 19.532 35.8318C19.962 34.9334 20.3764 33.6202 20.639 32.2395C20.6699 32.0775 20.5362 31.9309 20.373 31.9505C16.2062 32.4497 9.15211 34.6642 5.97102 37.1748C3.71207 39.044 1.88496 40.7008 0.107461 43.1591C-0.112029 43.4629 0.0187818 43.8945 0.371971 44.0173C16.8453 49.727 34.06 49.4375 48.2447 42.2406C48.4413 42.1416 48.5683 41.9358 48.5677 41.715C48.516 25.4913 36.4072 9.20122 23.518 0.087028Z" fill="white"/>
</svg>