<svg id="图层_1" data-name="图层 1" xmlns="http://www.w3.org/2000/svg" viewBox="0 0 512 512"><defs><style>.cls-1{fill:#b5b5b6;}</style></defs><path class="cls-1" d="M434.19,326.58V430.85a6.52,6.52,0,0,1-6.52,6.53H84.32a6.52,6.52,0,0,1-6.52-6.53V326.58a6.52,6.52,0,0,0-6.53-6.52H24.56A6.52,6.52,0,0,0,18,326.58V464.06A41.94,41.94,0,0,0,60,506H452A41.94,41.94,0,0,0,494,464.06V326.58a6.52,6.52,0,0,0-6.53-6.52H440.72A6.53,6.53,0,0,0,434.19,326.58Z"/><rect class="cls-1" x="107.69" y="364.33" width="287.77" height="35.42" rx="6.52"/><rect class="cls-1" x="107.69" y="295.71" width="287.77" height="35.42" rx="6.52"/><path class="cls-1" d="M262.52,9.48l111.4,144.25c3.58,4.65,1.71,8.45-4.15,8.45H312.16a6.52,6.52,0,0,0-6.52,6.53V270.37a10,10,0,0,1-10,10H216.34a10,10,0,0,1-10-10V168.71a6.53,6.53,0,0,0-6.53-6.53h-57.6c-5.88,0-7.74-3.8-4.15-8.45L249.48,9.48C253.06,4.84,258.93,4.84,262.52,9.48Z"/></svg>