<svg id="图层_1" data-name="图层 1" xmlns="http://www.w3.org/2000/svg" viewBox="0 0 512 512"><defs><style>.cls-1{fill:#eb5c20;}</style></defs><path class="cls-1" d="M137.69,346c-.94-.93-1.85-1.89-2.72-2.86L53.55,416.47q3.23,3.57,6.67,7t7,6.67l73.31-81.42C139.58,347.87,138.63,347,137.69,346Z"/><path class="cls-1" d="M153.33,358c-1.14-.65-2.26-1.35-3.36-2.06L90.3,447.86q4,2.61,8.26,5.06t8.51,4.62l49.75-97.61C155.65,359.32,154.49,358.7,153.33,358Z"/><path class="cls-1" d="M125.68,330.38q-1-1.72-1.89-3.48L26.18,376.64c1.46,2.86,3,5.7,4.62,8.52s3.31,5.56,5.06,8.27l91.88-59.68C127,332.64,126.35,331.52,125.68,330.38Z"/><path class="cls-1" d="M115.56,292.6c0-1.33,0-2.64.1-4L6.25,282.91c-.16,3.21-.25,6.44-.25,9.69s.09,6.48.25,9.68l109.41-5.73C115.6,295.24,115.56,293.92,115.56,292.6Z"/><path class="cls-1" d="M118.13,312.15c-.34-1.28-.65-2.55-.92-3.84L10,331.09c.68,3.14,1.43,6.28,2.27,9.42s1.76,6.23,2.75,9.29L119.25,316C118.85,314.69,118.48,313.44,118.13,312.15Z"/><path class="cls-1" d="M118.13,273c.34-1.28.72-2.55,1.12-3.79L15.06,235.39c-1,3.06-1.91,6.15-2.75,9.3S10.72,251,10,254.11l107.17,22.77C117.49,275.61,117.79,274.32,118.13,273Z"/><path class="cls-1" d="M30.05,201.39,43.64,209a168.93,168.93,0,0,1,14-20.92l-12.23-9.66A185.26,185.26,0,0,0,30.05,201.39Z"/><path class="cls-1" d="M97.23,133.07l8,13.41a167.5,167.5,0,0,1,22.6-11.14L122,120.86A185.13,185.13,0,0,0,97.23,133.07Z"/><path class="cls-1" d="M22.86,313.08,7.38,314.89A185.18,185.18,0,0,0,12.72,342l15-4.21A169.53,169.53,0,0,1,22.86,313.08Z"/><path class="cls-1" d="M11.91,246.19,27,250a168.66,168.66,0,0,1,8.12-23.85L20.82,220h0a183.55,183.55,0,0,0-8.92,26.16Z"/><path class="cls-1" d="M21.62,294c0-.46,0-.91,0-1.37a171.17,171.17,0,0,1,1.7-23.77L7.86,266.57a186.19,186.19,0,0,0-1.86,26c0,.53,0,1,0,1.56Z"/><path class="cls-1" d="M214.47,364.46c-1.25.4-2.51.78-3.8,1.12s-2.56.66-3.84.93L229.6,473.67c3.15-.66,6.29-1.42,9.43-2.26s6.24-1.76,9.29-2.75Z"/><path class="cls-1" d="M170.46,121.93l-3.32-17.05c-9.84,3.19-26.49,9.21-33.23,11.65l33.86,104.21c1.25-.41,2.51-.78,3.79-1.12s2.57-.65,3.85-.93l-19.72-92.77C160.52,124.39,165.44,123,170.46,121.93Z"/><path class="cls-1" d="M70.3,173.7a170.85,170.85,0,0,1,18.94-16.61L79.93,144.6a185.62,185.62,0,0,0-20.78,18.22Z"/><path class="cls-1" d="M264.54,462.51l-6.22-14.25a168,168,0,0,1-23.8,8.24l3.91,15v0a181.7,181.7,0,0,0,26.11-9Z"/><path class="cls-1" d="M146.73,456.25l-4.13,15v.06a185.26,185.26,0,0,0,27.15,5.21v0L171.48,461A169.65,169.65,0,0,1,146.73,456.25Z"/><path class="cls-1" d="M98.55,132.28q-4.22,2.44-8.26,5.07L150,229.22c1.09-.7,2.22-1.39,3.36-2.06s2.31-1.29,3.48-1.88l-49.74-97.62C104.21,129.11,101.37,130.66,98.55,132.28Z"/><path class="cls-1" d="M308.53,441.35l-9.95-14.52a167.15,167.15,0,0,1-14.7,8.62L232.27,356c-1.1.71-2.23,1.4-3.38,2.06s-2.3,1.29-3.47,1.9l49.74,97.61C277.89,456.14,308.53,441.35,308.53,441.35Z"/><path class="cls-1" d="M218.07,475.73l-2.33-15.4a170.77,170.77,0,0,1-24.62,1.8h-.52l-.11,15.57h0l.63,0a185.63,185.63,0,0,0,26.95-2Z"/><path class="cls-1" d="M89.92,428.6a171,171,0,0,1-19-16.52L59.81,423a185.43,185.43,0,0,0,20.86,18.12Z"/><path class="cls-1" d="M122.86,464.7l0,0,5.67-14.47a169.27,169.27,0,0,1-22.65-11L98,452.58v0A182.89,182.89,0,0,0,122.86,464.7Z"/><path class="cls-1" d="M58.19,397.74a169.73,169.73,0,0,1-24.33-41.8L19.38,361.7A184.73,184.73,0,0,0,46,407.46Z"/><path class="cls-1" d="M167.77,364.45,133.91,468.66q4.59,1.48,9.29,2.75c3.14.84,6.28,1.6,9.43,2.26l22.78-107.16c-1.28-.27-2.57-.58-3.85-.93S169,364.86,167.77,364.45Z"/><path class="cls-1" d="M229.22,112.11,206.83,218.69c1.19.26,6.47,1.67,7.64,2.05l0-.09,139.19-60.12,1-4.38,31.7-112Zm114.37,38.46L221.76,204.05,246,119.31,362.88,70.43Z"/><path class="cls-1" d="M191.12,368.16c-1.33,0-2.65,0-4-.11l-5.74,109.41q4.81.26,9.69.26t9.69-.26l-5.74-109.41C193.76,368.12,192.45,368.16,191.12,368.16Z"/><path class="cls-1" d="M187.17,217.14c1.3-.07,2.62-.1,4-.1s2.64,0,3.95.1c0,0,5.5-106.84,5.44-106.84l137.3-59.49,4.72-16.53L181.38,101.34Z"/><path class="cls-1" d="M30.8,200q-2.43,4.25-4.62,8.52l97.61,49.75c.6-1.17,1.23-2.34,1.89-3.48s1.35-2.27,2.07-3.38L35.86,191.78Q33.25,195.82,30.8,200Z"/><path class="cls-1" d="M506,321.7l-108.72-55L258.45,326.9c-.6,1.17-3.25,5.74-4,6.85l89.6,58.31ZM348.4,373.23l-75.29-39.9,125.38-54.2,75.29,41.68Z"/><path class="cls-1" d="M60.23,161.7q-3.46,3.45-6.68,7L135,242c.88-1,1.78-1.94,2.72-2.87s1.9-1.85,2.87-2.72L67.25,155C64.86,157.17,62.52,159.41,60.23,161.7Z"/><path class="cls-1" d="M326.49,414.63l-79.22-71.47c-.88,1-4.62,4.71-5.59,5.59l78.18,86L482,362.18,466.1,354Z"/><path class="cls-1" d="M330,295.55a63.24,63.24,0,0,1-63.17-63.16A62.38,62.38,0,0,1,273.08,205l.11-.23-17.05,7.36a76.28,76.28,0,0,0-2.81,20.28c0,39.37,30.71,72.9,69.9,76.31l.7.06.33-.63a16.36,16.36,0,0,1,10-8.19c1.94-.56,3.88-1.12,5.8-1.78l1.06-.42.28-.11.18-.24a13.87,13.87,0,0,1,1-1.18l2.21-2.38-3.19.61A62.82,62.82,0,0,1,330,295.55Z"/></svg>