<?xml version="1.0" standalone="no"?><!DOCTYPE svg PUBLIC "-//W3C//DTD SVG 1.1//EN" "http://www.w3.org/Graphics/SVG/1.1/DTD/svg11.dtd"><svg t="1638776533959" class="icon" viewBox="0 0 1024 1024" version="1.1" xmlns="http://www.w3.org/2000/svg" p-id="1259" xmlns:xlink="http://www.w3.org/1999/xlink" width="175" height="175"><defs><style type="text/css"></style></defs><path d="M447.015385 894.030769l-25.6-19.692307c-27.569231-19.692308-27.569231-59.076923-27.569231-78.769231v-57.107693c0-15.753846-13.784615-29.538462-29.538462-29.538461h-118.153846c-15.753846 0-29.538462 13.784615-29.538461 29.538461v151.63077c0 53.169231 31.507692 94.523077 80.738461 94.523077H393.846154c57.107692 0 61.046154-39.384615 61.046154-39.384616s9.846154-35.446154-7.876923-51.2zM886.153846 354.461538V84.676923c0-47.261538-59.076923-61.046154-90.584615-29.538461l-175.261539 165.415384c-27.569231 23.630769-63.015385 33.476923-98.461538 33.476923H222.523077C120.123077 256 39.384615 344.615385 39.384615 447.015385v3.938461c0 102.4 80.738462 179.2 183.138462 179.2h299.323077c37.415385 0 72.861538 15.753846 100.430769 39.384616l173.292308 169.353846c31.507692 31.507692 90.584615 19.692308 90.584615-27.569231V543.507692c59.076923 0 94.523077-41.353846 94.523077-94.523077 0-53.169231-35.446154-94.523077-94.523077-94.523077z" p-id="1260" fill="#ffffff"></path></svg>