<svg id="图层_1" data-name="图层 1" xmlns="http://www.w3.org/2000/svg" viewBox="0 0 512 512"><defs><style>.cls-1{fill:#df5924;}</style></defs><path class="cls-1" d="M260.09,446.15c.57-.68,1.08-1.41,1.7-2Q306,399.94,350.1,355.75a4.52,4.52,0,0,1,4.62-1.4c12.62,2.4,22.19,11.72,24.35,24.3a29.23,29.23,0,0,1-7,25c-.62.72-1.3,1.4-2,2.08q-45.36,45.35-90.7,90.72a30.35,30.35,0,0,1-23,9.37,40.06,40.06,0,0,1-9.27-.91,29.28,29.28,0,0,1-13.59-7.71q-46.12-46.1-92.2-92.26c-8.66-8.72-11-19.44-6.95-31s12.56-17.95,24.57-19.82c.16,0,.32,0,.48-.05,6.65-.58,6.65-.58,11.34,4.1q39,39,78,78C252.22,439.59,255.24,443.56,260.09,446.15Z"/><path class="cls-1" d="M208.85,322.63a47.24,47.24,0,1,1,47.5,47.19A47.16,47.16,0,0,1,208.85,322.63Z"/><path class="cls-1" d="M256.07,169.32A32.07,32.07,0,1,1,224,201.26,32,32,0,0,1,256.07,169.32Z"/><path class="cls-1" d="M255.77,134.55a26.46,26.46,0,1,1,26.76-26A26.41,26.41,0,0,1,255.77,134.55Z"/><path class="cls-1" d="M238.59,23.41a17.5,17.5,0,1,1,17.19,17.81A17.49,17.49,0,0,1,238.59,23.41Z"/></svg>