<svg width="75" height="44" viewBox="0 0 75 44" fill="none" xmlns="http://www.w3.org/2000/svg">
<rect width="75" height="44" rx="2" fill="#b5b5b6"/>
<rect x="7" y="20" width="28" height="4" fill="white"/>
<rect x="19" y="7" width="4" height="29" fill="white"/>
<path d="M47.6847 11.6364H44.6918L39.6108 14.9574V17.9006L44.483 14.7188H44.6023V32H47.6847V11.6364ZM60.2827 32.3381C64.9858 32.3381 67.7401 28.5 67.7401 21.8281C67.7401 15.206 64.946 11.358 60.2827 11.358C55.6094 11.358 52.8253 15.196 52.8153 21.8281C52.8153 28.4901 55.5696 32.3281 60.2827 32.3381ZM60.2827 29.6832C57.5284 29.6832 55.8679 26.919 55.8679 21.8281C55.8778 16.7571 57.5384 13.9631 60.2827 13.9631C63.017 13.9631 64.6875 16.7571 64.6875 21.8281C64.6875 26.919 63.027 29.6832 60.2827 29.6832Z" fill="white"/>
</svg>
