<svg id="图层_1" data-name="图层 1" xmlns="http://www.w3.org/2000/svg" viewBox="0 0 512 512"><defs><style>.cls-1{fill:#b5b5b6;}.cls-2{fill:#b5b5b6;stroke:#b5b5b6;stroke-miterlimit:10;stroke-width:10px;}</style></defs><path class="cls-1" d="M282.23,342.67l-.16-.17a5.43,5.43,0,0,1-.77-6.27L325,256,281.3,175.77a5.43,5.43,0,0,1,6.94-7.57L477.39,251a5.43,5.43,0,0,1,0,9.94L288.25,343.8A5.44,5.44,0,0,1,282.23,342.67Zm16.2-158.16L336,253.4a5.4,5.4,0,0,1,0,5.2l-37.55,68.89L461.69,256Z"/><circle class="cls-2" cx="222.93" cy="256" r="40"/><circle class="cls-2" cx="127.15" cy="256" r="30"/><circle class="cls-2" cx="51.36" cy="256" r="20"/></svg>