<svg xmlns="http://www.w3.org/2000/svg" xmlns:xlink="http://www.w3.org/1999/xlink" viewBox="0 0 512 512"><defs><style>.cls-1{isolation:isolate;}.cls-2{fill:#fff100;}.cls-10,.cls-12,.cls-14,.cls-16,.cls-18,.cls-2,.cls-20,.cls-22,.cls-24,.cls-4,.cls-6,.cls-8{mix-blend-mode:multiply;}.cls-3{fill:url(#linear-gradient);}.cls-4{fill:#ffe000;}.cls-5{fill:url(#linear-gradient-2);}.cls-6{fill:#fac000;}.cls-7{fill:url(#linear-gradient-3);}.cls-8{fill:#f4a000;}.cls-9{fill:url(#linear-gradient-4);}.cls-10{fill:#ee7300;}.cls-11{fill:url(#linear-gradient-5);}.cls-12{fill:#e94709;}.cls-13{fill:url(#linear-gradient-6);}.cls-14{fill:#009e41;}.cls-15{fill:url(#linear-gradient-7);}.cls-16{fill:#40af36;}.cls-17{fill:url(#linear-gradient-8);}.cls-18{fill:#72bb2b;}.cls-19{fill:url(#linear-gradient-9);}.cls-20{fill:#e3e300;}.cls-21{fill:url(#linear-gradient-10);}.cls-22{fill:#a3ca0f;}.cls-23{fill:url(#linear-gradient-11);}.cls-24{fill:#c4d700;}.cls-25{fill:url(#linear-gradient-12);}</style><linearGradient id="linear-gradient" x1="135.81" y1="360.37" x2="141.87" y2="360.37" gradientTransform="translate(-215.1 394.84) rotate(-90)" gradientUnits="userSpaceOnUse"><stop offset="0" stop-color="#8fc31f"/><stop offset="1" stop-color="#001400"/></linearGradient><linearGradient id="linear-gradient-2" x1="139.49" y1="309.8" x2="145.56" y2="309.8" gradientTransform="translate(-39.57 587.26) rotate(-119.55)" xlink:href="#linear-gradient"/><linearGradient id="linear-gradient-3" x1="170.38" y1="265.95" x2="176.44" y2="265.95" gradientTransform="translate(219.46 668.85) rotate(-150.24)" xlink:href="#linear-gradient"/><linearGradient id="linear-gradient-4" x1="252.71" y1="366.48" x2="258.78" y2="366.48" gradientUnits="userSpaceOnUse"><stop offset="0" stop-color="#001400"/><stop offset="1" stop-color="#8fc31f"/></linearGradient><linearGradient id="linear-gradient-5" x1="267.77" y1="-47.88" x2="273.84" y2="-47.88" gradientTransform="translate(522.19 176.89) rotate(150.45)" xlink:href="#linear-gradient"/><linearGradient id="linear-gradient-6" x1="312.16" y1="-17.63" x2="318.23" y2="-17.63" gradientTransform="translate(492.78 28.46) rotate(119.76)" xlink:href="#linear-gradient"/><linearGradient id="linear-gradient-7" x1="366.73" y1="259.03" x2="366.73" y2="252.97" xlink:href="#linear-gradient-4"/><linearGradient id="linear-gradient-8" x1="329.44" y1="80.38" x2="335.51" y2="80.38" gradientTransform="translate(257.8 -127.35) rotate(60.45)" xlink:href="#linear-gradient"/><linearGradient id="linear-gradient-9" x1="299.72" y1="124.14" x2="305.79" y2="124.14" gradientTransform="translate(109.37 -97.94) rotate(29.76)" xlink:href="#linear-gradient"/><linearGradient id="linear-gradient-10" x1="157.17" y1="407.65" x2="163.23" y2="407.65" gradientTransform="translate(-274 138.55) rotate(-60.24)" xlink:href="#linear-gradient"/><linearGradient id="linear-gradient-11" x1="252.71" y1="145.52" x2="258.78" y2="145.52" gradientTransform="matrix(1, 0, 0, 1, 0, 0)" xlink:href="#linear-gradient"/><linearGradient id="linear-gradient-12" x1="201.16" y1="438.07" x2="207.23" y2="438.07" gradientTransform="translate(-192.42 -120.48) rotate(-29.55)" xlink:href="#linear-gradient"/></defs><g class="cls-1"><g id="图层_1" data-name="图层 1"><path class="cls-2" d="M203.47,256c-16.95,0-17,48.15-89,48.73S6,256,6,256Z"/><path class="cls-2" d="M203.47,256c-16.95,0-17-48.16-89-48.73S6,256,6,256Z"/><polygon class="cls-3" points="73.6 256 216.94 259.03 216.94 256 216.94 252.97 73.6 256"/><path class="cls-4" d="M210.27,281.78c-14.75,8.36,9,50.27-53.42,86.29S38.48,379.16,38.48,379.16Z"/><path class="cls-4" d="M210.27,281.78c-14.75,8.36-38.53-33.51-101.48,1.52s-70.31,95.86-70.31,95.86Z"/><polygon class="cls-5" points="97.29 345.82 223.48 277.78 221.98 275.14 220.49 272.5 97.29 345.82"/><path class="cls-6" d="M229.8,301.38c-8.42,14.72,33.37,38.65-1.89,101.48s-96.12,69.95-96.12,69.95Z"/><path class="cls-6" d="M229.8,301.38c-8.42,14.72-50.24-9.15-86.49,53.11s-11.52,118.32-11.52,118.32Z"/><polygon class="cls-7" points="165.34 414.12 239.12 291.2 236.48 289.69 233.85 288.19 165.34 414.12"/><path class="cls-8" d="M255.75,308.27c0,17,48.15,17,48.72,89s-48.72,108.45-48.72,108.45Z"/><path class="cls-8" d="M255.75,308.27c0,17-48.16,17-48.73,89s48.73,108.45,48.73,108.45Z"/><polygon class="cls-9" points="255.75 438.14 258.78 294.81 255.75 294.81 252.71 294.81 255.75 438.14"/><path class="cls-10" d="M281.52,301.47c8.37,14.75,50.28-9,86.3,53.43s11.09,118.36,11.09,118.36Z"/><path class="cls-10" d="M281.52,301.47C289.89,316.22,248,340,283,403s95.87,70.3,95.87,70.3Z"/><polygon class="cls-11" points="345.57 414.45 277.52 288.26 274.88 289.76 272.25 291.26 345.57 414.45"/><path class="cls-12" d="M301.12,281.94c14.72,8.42,38.66-33.37,101.48,1.89s70,96.13,70,96.13Z"/><path class="cls-12" d="M301.12,281.94c14.72,8.42-9.14,50.24,53.11,86.49S472.56,380,472.56,380Z"/><polygon class="cls-13" points="413.87 346.4 290.94 272.63 289.44 275.26 287.93 277.9 413.87 346.4"/><path class="cls-14" d="M308.53,256c17,0,17-48.15,89-48.73S506,256,506,256Z"/><path class="cls-14" d="M308.53,256c17,0,17,48.15,89,48.73S506,256,506,256Z"/><polygon class="cls-15" points="438.4 256 295.06 252.97 295.06 256 295.06 259.04 438.4 256"/><path class="cls-16" d="M301.22,230.22c14.75-8.36-9-50.27,53.42-86.29S473,132.84,473,132.84Z"/><path class="cls-16" d="M301.22,230.22c14.75-8.36,38.53,33.51,101.48-1.52S473,132.84,473,132.84Z"/><polygon class="cls-17" points="414.2 166.17 288.01 234.22 289.51 236.86 291 239.5 414.2 166.17"/><path class="cls-18" d="M281.69,210.62c8.41-14.72-33.37-38.65,1.89-101.47s96.12-70,96.12-70Z"/><path class="cls-18" d="M281.69,210.62c8.41-14.72,50.24,9.15,86.49-53.11S379.7,39.19,379.7,39.19Z"/><polygon class="cls-19" points="346.15 97.88 272.37 220.8 275.01 222.31 277.64 223.81 346.15 97.88"/><path class="cls-20" d="M209.91,230.68c-14.72-8.42-38.65,33.37-101.47-1.89s-70-96.13-70-96.13Z"/><path class="cls-20" d="M209.91,230.68c-14.72-8.42,9.15-50.24-53.1-86.49S38.48,132.66,38.48,132.66Z"/><polygon class="cls-21" points="97.17 166.22 220.09 240 221.6 237.36 223.11 234.73 97.17 166.22"/><path class="cls-22" d="M255.75,203.73c0-17-48.16-17-48.73-89S255.75,6.25,255.75,6.25Z"/><path class="cls-22" d="M255.75,203.73c0-17,48.15-17,48.72-89S255.75,6.25,255.75,6.25Z"/><polygon class="cls-23" points="255.75 73.86 252.71 217.19 255.75 217.19 258.78 217.19 255.75 73.86"/><path class="cls-24" d="M230,210.53c-8.36-14.76-50.28,9-86.3-53.43S132.58,38.74,132.58,38.74C156,80,230,210.53,230,210.53Z"/><path class="cls-24" d="M230,210.53C221.61,195.77,263.48,172,228.45,109s-95.87-70.3-95.87-70.3C156,80,230,210.53,230,210.53Z"/><polygon class="cls-25" points="165.92 97.54 233.97 223.73 236.61 222.24 239.25 220.74 165.92 97.54"/></g></g></svg>