<?xml version="1.0" standalone="no"?><!DOCTYPE svg PUBLIC "-//W3C//DTD SVG 1.1//EN" "http://www.w3.org/Graphics/SVG/1.1/DTD/svg11.dtd"><svg t="1635927903220" class="icon" viewBox="0 0 1024 1024" version="1.1" xmlns="http://www.w3.org/2000/svg" p-id="1033" xmlns:xlink="http://www.w3.org/1999/xlink" width="200" height="200"><defs><style type="text/css"></style></defs><path d="M151.472 204.368A34.128 34.128 0 1 1 199.68 156.16l331.952 331.952c13.28 13.312 13.28 34.88 0 48.208L199.68 867.84a34.128 34.128 0 1 1-48.208-48.208L459.088 512 151.472 204.368z m341.328 0a34.128 34.128 0 0 1 48.208-48.208L872.96 488.112c13.28 13.312 13.28 34.88 0 48.208L541.008 868.272a34.128 34.128 0 0 1-48.208-48.224L800.432 512 492.8 204.368z" fill="#000000" p-id="1034"></path></svg>