<svg width="200" height="200" xmlns="http://www.w3.org/2000/svg" fill="#FFFFFF" enable-background="new 0 0 20 20">

 <g>
  <title>Layer 1</title>
  <g id="svg_1">
   <rect id="svg_2" x="0" width="20" height="20" fill="none"/>
  </g>
  <g id="svg_3">
   <g id="svg_4">
    <path fill="#BBBBBB" id="svg_5" d="m7,4l0,0.73c-0.68,-0.32 -1.4,-0.5 -2.13,-0.5c-1.28,0 -2.56,0.49 -3.54,1.46l2.12,2.12l1.41,0l-0.1,1.32c0.62,0.62 1.42,0.92 2.23,0.92c0,0 0.01,0 0.01,0l0,1.95l-2,0l0,2.5c0,0.83 0.67,1.5 1.5,1.5l7.5,0c1.1,0 2,-0.9 2,-2l0,-10l-9,0zm-0.01,5.05c-0.43,0 -0.84,-0.12 -1.19,-0.36l0.15,-1.87l-2.08,0l-1.03,-1.03c0.61,-0.36 1.31,-0.55 2.03,-0.55c1.07,0 2.07,0.42 2.83,1.17l1.41,1.41l-0.6,0.6c-0.41,0.4 -0.95,0.63 -1.52,0.63zm8.01,4.95c0,0.55 -0.45,1 -1,1s-1,-0.45 -1,-1l0,-2l-5,0l0,-2.13c0.44,-0.15 0.86,-0.39 1.22,-0.74l0.6,-0.6l2.47,2.47l0.71,0l0,-0.71l-4.6,-4.59c-0.12,-0.13 -0.26,-0.22 -0.4,-0.33l0,-0.37l7,0l0,9z"/>
   </g>
  </g>
 </g>
</svg>