<?xml version="1.0" standalone="no"?><!DOCTYPE svg PUBLIC "-//W3C//DTD SVG 1.1//EN" "http://www.w3.org/Graphics/SVG/1.1/DTD/svg11.dtd"><svg t="1636096795404" class="icon" viewBox="0 0 1024 1024" version="1.1" xmlns="http://www.w3.org/2000/svg" p-id="1185" xmlns:xlink="http://www.w3.org/1999/xlink" width="200" height="200"><defs><style type="text/css"></style></defs><path d="M864 332.8c2.133 4.267 2.133 12.8 2.133 23.467 0 83.2-19.2 164.266-59.733 241.066-42.667 81.067-100.267 147.2-174.933 196.267-81.067 53.333-177.067 81.067-281.6 81.067-102.4 0-194.134-27.734-279.467-81.067 12.8 2.133 27.733 2.133 42.667 2.133 85.333 0 160-25.6 226.133-78.933-40.533 0-76.8-12.8-106.667-36.267s-51.2-53.333-64-89.6c10.667 2.134 23.467 2.134 32 2.134 17.067 0 32-2.134 49.067-4.267-40.533-8.533-76.8-29.867-104.533-64s-40.534-72.533-40.534-115.2v-4.267c25.6 14.934 53.334 23.467 81.067 23.467-23.467-17.067-44.8-38.4-59.733-66.133-14.934-25.6-23.467-55.467-23.467-87.467s8.533-61.867 25.6-91.733c44.8 57.6 100.267 102.4 166.4 134.4s134.4 51.2 209.067 55.466c-2.134-12.8-4.267-27.733-4.267-40.533 0-32 8.533-61.867 23.467-91.733s38.4-51.2 66.133-66.134c29.867-12.8 59.733-21.333 93.867-21.333 25.6 0 51.2 4.267 74.666 14.933C780.8 179.2 800 192 817.067 211.2c42.666-8.533 81.066-23.467 115.2-42.667-12.8 42.667-40.534 76.8-78.934 100.267 34.134-4.267 68.267-14.933 104.534-29.867C930.133 275.2 900.267 307.2 864 332.8z" p-id="1186" fill="#0e0304"></path></svg>