<svg id="图层_1" data-name="图层 1" xmlns="http://www.w3.org/2000/svg" viewBox="0 0 512 512"><defs><style>.cls-1{fill:#b5b5b6;}</style></defs><path class="cls-1" d="M256,506c138.07,0,250-111.93,250-250S394.07,6,256,6,6,117.93,6,256,117.93,506,256,506ZM145.22,270a29.24,29.24,0,0,1,42.8,0l37.71,39.67V128.84C225.73,111.25,239.29,97,256,97s30.28,14.26,30.28,31.85V309.71L324,270a29.24,29.24,0,0,1,42.81,0,33,33,0,0,1,0,45l-89.38,94.05a29.24,29.24,0,0,1-42.81,0l-89.36-94.05A33,33,0,0,1,145.22,270Z"/></svg>